<?xml version="1.0" encoding="utf-8"?>
<svg version="1.1" xmlns:xlink="http://www.w3.org/1999/xlink" width="8px" height="14px" xmlns="http://www.w3.org/2000/svg">
  <defs>
    <mask fill="white" id="clip72">
      <path d="M 8 9.85148698196363  L 5.33386666666667 7.25847190844783  L 8 4.14799451872153  L 3.73333333333332 0  L 3.73333333333332 5.70452946187179  L 0.533333333333331 3.11151438835599  L 0 3.62949520388133  L 3.73333333333332 6.74100959223732  L 3.73333333333332 7.25847190844783  L 0.533333333333331 10.3705047961187  L 1.06666666666666 10.8890041109589  L 3.73333333333332 8.29598903744306  L 3.73333333333332 14  L 8 9.85148698196363  Z M 5 3  L 7 4.49999999999999  L 5 6  L 5 3  Z M 6 9.50000000000006  L 5 11  L 5 8  L 6 9.50000000000006  Z " fill-rule="evenodd" />
    </mask>
  </defs>
  <g transform="matrix(1 0 0 1 -3016 -2972 )">
    <path d="M 8 9.85148698196363  L 5.33386666666667 7.25847190844783  L 8 4.14799451872153  L 3.73333333333332 0  L 3.73333333333332 5.70452946187179  L 0.533333333333331 3.11151438835599  L 0 3.62949520388133  L 3.73333333333332 6.74100959223732  L 3.73333333333332 7.25847190844783  L 0.533333333333331 10.3705047961187  L 1.06666666666666 10.8890041109589  L 3.73333333333332 8.29598903744306  L 3.73333333333332 14  L 8 9.85148698196363  Z M 5 3  L 7 4.49999999999999  L 5 6  L 5 3  Z M 6 9.50000000000006  L 5 11  L 5 8  L 6 9.50000000000006  Z " fill-rule="nonzero" fill="#ffffff" stroke="none" transform="matrix(1 0 0 1 3016 2972 )" />
    <path d="M 8 9.85148698196363  L 5.33386666666667 7.25847190844783  L 8 4.14799451872153  L 3.73333333333332 0  L 3.73333333333332 5.70452946187179  L 0.533333333333331 3.11151438835599  L 0 3.62949520388133  L 3.73333333333332 6.74100959223732  L 3.73333333333332 7.25847190844783  L 0.533333333333331 10.3705047961187  L 1.06666666666666 10.8890041109589  L 3.73333333333332 8.29598903744306  L 3.73333333333332 14  L 8 9.85148698196363  Z " stroke-width="2" stroke="#7f7f7f" fill="none" transform="matrix(1 0 0 1 3016 2972 )" mask="url(#clip72)" />
    <path d="M 5 3  L 7 4.49999999999999  L 5 6  L 5 3  Z " stroke-width="2" stroke="#7f7f7f" fill="none" transform="matrix(1 0 0 1 3016 2972 )" mask="url(#clip72)" />
    <path d="M 6 9.50000000000006  L 5 11  L 5 8  L 6 9.50000000000006  Z " stroke-width="2" stroke="#7f7f7f" fill="none" transform="matrix(1 0 0 1 3016 2972 )" mask="url(#clip72)" />
  </g>
</svg>