<?xml version="1.0" encoding="utf-8"?>
<svg version="1.1" xmlns:xlink="http://www.w3.org/1999/xlink" width="24px" height="22px" xmlns="http://www.w3.org/2000/svg">
  <g transform="matrix(1 0 0 1 -1626 -868 )">
    <path d="M 1.29305414561046 2.51129006643755  L 1.29305414561046 19.3934277859752  C 1.29305414561046 20.1437450179546  1.83358061601277 20.7332799859385  2.46811168996331 20.7332799859385  L 21.73905541735 20.7332799859385  C 22.3970876421875 20.7332799859385  22.9141129617028 20.1437450179546  23 19.3934277859752  L 23 2.77926050643022  C 22.9141129617028 2.02894327445076  22.3735864913005 1.43940830646691  21.73905541735 1.43940830646691  L 2.23310018109274 1.43940830646691  C 1.71607486157748 1.4394083064669  1.29305414561046 1.92175509845369  1.29305414561046 2.51129006643755  Z M 8.36690056261459 14.4895687341095  C 8.17889135551813 14.6503509981051  8.17889135551813 14.8379303060999  8.29639710995341 14.945118482097  L 14.4771997932494 20.6260918099414  C 14.5712043967976 20.7332799859385  14.5947055476846 20.8940622499341  14.5242020950235 21.0012504259311  L 14.2421882843788 21.4032060859201  C 14.1481836808306 21.5103942619172  14.0071767755082 21.5371913059165  13.91317217196 21.4568001739187  L 4.81822677866897 13.0693254021484  L 5.4057555508454 13.0693254021484  L 1.34005644738454 16.9280997380427  C 1.24605184383633 17.0352879140398  1.08154378762692 17.0084908700405  1.01104033496576 16.9013026940434  L 0.729026524321077 16.4993470340544  C 0.635021920772849 16.3921588580574  0.658523071659909 16.2045795500625  0.752527675208137 16.1241884180647  L 4.81822677866897 12.2654140821704  L 4.95923368399131 12.1314288621741  C 5.05323828753955 12.0510377301763  5.17074404197483 12.0510377301763  5.26474864552304 12.1314288621741  L 5.4057555508454 12.2654140821704  L 7.21534416914879 13.9268308101249  C 7.309348772697 14.0072219421227  7.45035567801936 14.0072219421227  7.54436028156758 13.9000337661256  L 14.4066963405882 6.39686144633111  L 14.5477032459105 6.23607918233552  C 14.6417078494588 6.12889100633845  14.7827147547811 6.12889100633845  14.8767193583293 6.20928213833625  L 15.0412274145388 6.34326735833258  L 23.5016417338792 14.141207162119  C 23.5956463374274 14.2483953381161  23.6191474883145 14.4091776021117  23.5486440356533 14.5163657781087  L 23.2666302250087 14.9183214380977  C 23.1726256214604 15.0255096140948  23.0316187161381 15.0523066580941  22.9376141125899 14.9719155260963  L 14.4771997932494 7.17397572230983  L 15.0882297163129 7.14717867831056  L 8.36690056261459 14.4895687341095  Z M 0.353008110128191 19.3934277859752  L 0.353008110128191 2.51129006643755  C 0.353008110128191 1.33222013046984  1.19904954206225 0.367526546496257  2.23310018109274 0.367526546496257  L 21.73905541735 0.367526546496257  C 22.9141129617028 0.367526546496257  23.8541589971851 1.4394083064669  23.8541589971851 2.77926050643021  L 23.8541589971851 19.6613982259678  C 23.8541589971851 20.8404681619355  23.008117565251 21.8051617459091  21.9740669262205 21.8051617459091  L 2.46811168996331 21.8051617459091  C 1.29305414561046 21.8051617459091  0.353008110128191 20.7332799859385  0.353008110128191 19.3934277859752  Z M 3.17314621657501 6.53084666632746  C 3.17314621657501 8.16546635028268  4.32470261004078 9.47852150624673  5.75827281415128 9.47852150624673  C 7.19184301826175 9.47852150624673  8.34339941172752 8.16546635028268  8.34339941172752 6.53084666632746  C 8.34339941172752 4.89622698237223  7.19184301826175 3.58317182640819  5.75827281415128 3.58317182640819  C 4.32470261004078 3.58317182640819  3.17314621657501 4.89622698237223  3.17314621657501 6.53084666632746  Z M 7.40335337624524 6.53084666632746  C 7.40335337624524 7.54913433829957  6.67481769874648 8.40663974627608  5.75827281415128 8.40663974627608  C 4.84172792955606 8.40663974627608  4.11319225205729 7.57593138229883  4.11319225205729 6.53084666632746  C 4.11319225205729 5.48576195035608  4.84172792955606 4.65505358637883  5.75827281415128 4.65505358637883  C 6.67481769874648 4.65505358637883  7.40335337624524 5.48576195035608  7.40335337624524 6.53084666632746  Z " fill-rule="nonzero" fill="#bcbcbc" stroke="none" transform="matrix(1 0 0 1 1626 868 )" />
  </g>
</svg>