<?xml version="1.0" encoding="utf-8"?>
<svg version="1.1" xmlns:xlink="http://www.w3.org/1999/xlink" width="26px" height="23px" xmlns="http://www.w3.org/2000/svg">
  <g transform="matrix(1 0 0 1 -2197 -3411 )">
    <path d="M 1.40080865774466 2.62543961491198  L 1.40080865774466 20.2749472307922  C 1.40080865774466 21.059369791498  1.9863790006805 21.6757018034812  2.67378766412692 21.6757018034812  L 23.5506433687958 21.6757018034812  C 24.2635116123698 21.6757018034812  24.823622375178 21.059369791498  24.823622375178 20.2749472307922  L 24.823622375178 2.90559052944977  C 24.823622375178 2.12116796874398  24.2380520322422 1.50483595676086  23.5506433687958 1.50483595676086  L 2.41919186285047 1.50483595676086  C 1.85908110004227 1.50483595676085  1.40080865774466 2.00910760292886  1.40080865774466 2.62543961491198  Z M 9.0641422761658 15.1481854947508  C 8.86046563514464 15.3162760434735  8.86046563514464 15.5123816836499  8.98776353578286 15.6244420494651  L 15.6836331093535 21.563641437666  C 15.785471429864 21.6757018034811  15.8109310099917 21.8437923522038  15.7345522696088 21.9558527180189  L 15.429037308077 22.3760790898256  C 15.3271989875664 22.4881394556407  15.1744415068006 22.5161545470945  15.07260318629 22.4321092727331  L 5.21974567689139 13.6633856477006  L 5.85623518008252 13.6633856477006  L 1.45172781799992 17.6975588170446  C 1.34988949748935 17.8096191828597  1.17167243659583 17.781604091406  1.09529369621291 17.6695437255909  L 0.789778734681167 17.2493173537842  C 0.687940414170586 17.1372569879691  0.713399994298235 16.9411513477926  0.815238314808815 16.8571060734313  L 5.21974567689139 12.8229329040872  L 5.37250315765725 12.6828574468183  C 5.47434147816785 12.598812172457  5.60163937880606 12.598812172457  5.70347769931663 12.6828574468183  L 5.85623518008252 12.8229329040872  L 7.81662284991119 14.5598685742215  C 7.91846117042175 14.6439138485828  8.07121865118764 14.6439138485828  8.17305697169821 14.5318534827677  L 15.6072543689706 6.68762787570979  L 15.7600118497364 6.51953732698713  C 15.861850170247 6.40747696117202  16.0146076510129 6.40747696117202  16.1164459715234 6.49152223553336  L 16.294663032417 6.63159769280225  L 25.4601118783692 14.7839893058517  C 25.5619501988797 14.8960496716668  25.5874097790074 15.0641402203895  25.5110310386244 15.1762005862046  L 25.2055160770927 15.5964269580113  C 25.1036777565821 15.7084873238264  24.9509202758163 15.7365024152802  24.8490819553057 15.6524571409188  L 15.6836331093535 7.50006552786936  L 16.3455821926723 7.47205043641559  L 9.0641422761658 15.1481854947508  Z M 0.382425452638873 20.2749472307922  L 0.382425452638873 2.62543961491198  C 0.382425452638873 1.39277559094574  1.2989703372341 0.384232298609724  2.41919186285047 0.384232298609724  L 23.5506433687958 0.384232298609724  C 24.823622375178 0.384232298609724  25.8420055802838 1.50483595676085  25.8420055802838 2.90559052944976  L 25.8420055802838 20.55509814533  C 25.8420055802838 21.7877621692962  24.9254606956886 22.7963054616323  23.8052391700722 22.7963054616323  L 2.67378766412692 22.7963054616323  C 1.40080865774466 22.7963054616323  0.382425452638873 21.6757018034812  0.382425452638873 20.2749472307922  Z M 3.43757506795626 6.82770333297871  C 3.43757506795626 8.53662391165917  4.68509449421085 9.90936339289431  6.23812888199722 9.90936339289431  C 7.79116326978357 9.90936339289431  9.03868269603815 8.53662391165917  9.03868269603815 6.82770333297871  C 9.03868269603815 5.11878275429824  7.79116326978357 3.74604327306311  6.23812888199722 3.74604327306311  C 4.68509449421085 3.74604327306311  3.43757506795626 5.11878275429824  3.43757506795626 6.82770333297871  Z M 8.02029949093235 6.82770333297871  C 8.02029949093235 7.89227680822228  7.23105250697535 8.78875973474318  6.23812888199722 8.78875973474318  C 5.24520525701907 8.78875973474318  4.45595827306207 7.92029189967605  4.45595827306207 6.82770333297871  C 4.45595827306207 5.73511476628135  5.24520525701907 4.86664693121423  6.23812888199722 4.86664693121423  C 7.23105250697535 4.86664693121423  8.02029949093235 5.73511476628135  8.02029949093235 6.82770333297871  Z " fill-rule="nonzero" fill="#ffffff" stroke="none" transform="matrix(1 0 0 1 2197 3411 )" />
  </g>
</svg>