<?xml version="1.0" encoding="utf-8"?>
<svg version="1.1" xmlns:xlink="http://www.w3.org/1999/xlink" width="37px" height="33px" xmlns="http://www.w3.org/2000/svg">
  <g transform="matrix(1 0 0 1 -4521 -1996 )">
    <path d="M 1.99345847448279 3.76693509965632  L 2 3.76693509965632  L 2 29.0901416789628  C 1.99345847448279 30.215617526932  2.82677011635302 31.0999199789077  3.80500552202676 31  L 33.5143771017478 31  C 34.5288434483724 31.0999199789077  35.3259241492918 30.215617526932  35 29.0901416789628  L 35 4.16889075964532  C 35.3259241492918 3.04341491167614  34.4926125074216 2.15911245970036  33.5143771017478 2.15911245970036  L 3.44269611251798 2.15911245970036  C 2.64561541159862 2.15911245970035  1.99345847448279 2.88263264768054  1.99345847448279 3.76693509965632  Z M 12.8989717006975 21.7343531011642  C 12.6091241730904 21.9755264971576  12.6091241730904 22.2568954591499  12.7902788778448 22.4176777231455  L 22.3190163479261 30.9391377149121  C 22.4639401117296 31.0999199789077  22.5001710526805 31.3410933749011  22.3914782298279 31.5018756388967  L 21.9567069384173 32.1048091288802  C 21.8117831746138 32.2655913928758  21.5943975289085 32.3057869588747  21.449473765105 32.185200260878  L 7.42809961711467 19.6039881032226  L 8.33387314088666 19.6039881032226  L 2.0659203563845 25.392149607064  C 1.920996592581 25.5529318710596  1.66738000592483 25.5127363050607  1.55868718307222 25.3519540410651  L 1.12391589166166 24.7490205510816  C 0.978992127858142 24.588238287086  1.01522306880903 24.3068693250938  1.16014683261255 24.1862826270971  L 7.42809961711467 18.3981211232556  L 7.64548526281993 18.1971432932611  C 7.79040902662347 18.0765565952644  7.97156373137786 18.0765565952644  8.11648749518135 18.1971432932611  L 8.33387314088666 18.3981211232556  L 11.1236555941044 20.8902462151873  C 11.2685793579079 21.010832913184  11.4859650036132 21.010832913184  11.6308887674167 20.8500506491884  L 22.2103235250735 9.59529216949666  L 22.4277091707787 9.35411877350328  C 22.5726329345822 9.19333650950768  22.7900185802876 9.19333650950768  22.9349423440911 9.31392320750438  L 23.1885589307472 9.51490103749887  L 36.2316976730638 21.2118107431785  C 36.3766214368673 21.3725930071741  36.4128523778182 21.6137664031675  36.3041595549656 21.7745486671631  L 35.869388263555 22.3774821571466  C 35.7244644997515 22.5382644211422  35.5070788540462 22.5784599871411  35.3621550902427 22.4578732891444  L 22.3190163479261 10.7609635834647  L 23.261020812649 10.7207680174658  L 12.8989717006975 21.7343531011642  Z M 1 29.0901416789628  L 1 3.76693509965632  C 0.544220836447627 1.99833019570475  1.84853471067929 0.551289819744386  3.44269611251798 1  L 33.5143771017478 1  C 35.3259241492918 0.551289819744386  36.775161787327 2.15911245970035  36.775161787327 4.16889075964531  L 36.775161787327 29.4920973389518  C 36.775161787327 31.2607022429033  35.4708479130953 32.7077426188637  33.8766865112567 32.7077426188637  L 3.80500552202676 32.7077426188637  C 1.99345847448279 32.7077426188637  0.544220836447627 31.0999199789077  1 29.0901416789628  Z M 4.89193375055314 9.79626999949119  C 4.89193375055314 12.248199525424  6.66724985714621 14.2177822593701  8.87733725514989 14.2177822593701  C 11.0874246531535 14.2177822593701  12.8627407597466 12.248199525424  12.8627407597466 9.79626999949119  C 12.8627407597466 7.34434047355834  11.0874246531535 5.37475773961228  8.87733725514989 5.37475773961228  C 6.66724985714621 5.37475773961228  4.89193375055314 7.34434047355834  4.89193375055314 9.79626999949119  Z M 11.4135031217114 9.79626999949119  C 11.4135031217114 11.3237015074494  10.2903439522342 12.6099596194141  8.87733725514989 12.6099596194141  C 7.46433055806559 12.6099596194141  6.34117138858833 11.3638970734482  6.34117138858833 9.79626999949119  C 6.34117138858833 8.22864292553411  7.46433055806559 6.98258037956825  8.87733725514989 6.98258037956825  C 10.2903439522342 6.98258037956825  11.4135031217114 8.22864292553411  11.4135031217114 9.79626999949119  Z " fill-rule="nonzero" fill="#ffffff" stroke="none" transform="matrix(1 0 0 1 4521 1996 )" />
  </g>
</svg>