<?xml version="1.0" encoding="utf-8"?>
<svg version="1.1" xmlns:xlink="http://www.w3.org/1999/xlink" width="51px" height="41px" xmlns="http://www.w3.org/2000/svg">
  <g transform="matrix(1 0 0 1 -7732 -6166 )">
    <path d="M 2.74774005942223 4.68013148745179  L 3 4.68013148745179  L 3 36.1422972374992  C 2.74774005942223 37.5406157152791  3.89635880902713 38.639294519249  5.24473734117203 38  L 46.1954927618686 38  C 47.5938112396485 38.639294519249  48.6924900436184 37.5406157152791  48 36.1422972374992  L 48 5.17953094380177  C 48.6924900436184 3.78121246602187  47.5438712940136 2.68253366205197  46.1954927618686 3  L 4.74533788482208 3  C 3.64665908085215 2.68253366205195  2.74774005942223 3.58145268348188  2.74774005942223 4.68013148745179  Z M 17.779663695556 27.0032871862949  C 17.380144130476 27.3029268601049  17.380144130476 27.6525064795499  17.629843858651 27.8522662620899  L 30.7640495606549 38.439534736709  C 30.9638093431948 38.639294519249  31.0137492888298 38.938934193059  30.8639294519249 39.1386939755989  L 30.2646501043049 39.8877931601239  C 30.0648903217649 40.0875529426638  29.765250647955 40.1374928882989  29.565490865415 39.9876730513939  L 10.2387319046716 24.3564700676401  L 11.4872305455465 24.3564700676401  L 2.84761995069215 31.5478222390795  C 2.64786016815219 31.7475820216195  2.2982805487072 31.6976420759845  2.14846071180224 31.4978822934446  L 1.54918136418229 30.7487831089196  C 1.3494215816423 30.5490233263796  1.39936152727731 30.1994437069347  1.59912130981729 30.0496238700297  L 10.2387319046716 22.8582716985903  L 10.5383715784815 22.6085719704153  C 10.7381313610215 22.4587521335103  10.9878310891965 22.4587521335103  11.1875908717365 22.6085719704153  L 11.4872305455465 22.8582716985903  L 15.3326063594412 25.95454832796  C 15.5323661419811 26.104368164865  15.8320058157911 26.104368164865  16.0317655983311 25.904608382325  L 30.6142297237499 11.9214236045262  L 30.9138693975599 11.6217839307162  C 31.1136291800998 11.4220241481762  31.4132688539099 11.4220241481762  31.6130286364498 11.5718439850812  L 31.9626082558948 11.8215437132562  L 49.9409886844933 26.35406789304  C 50.1407484670333 26.55382767558  50.1906884126684 26.8534673493899  50.0408685757633 27.0532271319299  L 49.4415892281434 27.8023263164549  C 49.2418294456034 28.0020860989948  48.9421897717934 28.0520260446298  48.7424299892535 27.9022062077248  L 30.7640495606549 13.369682027941  L 32.0624881471649 13.319742082306  L 17.779663695556 27.0032871862949  Z M 1 36.1422972374992  L 1 4.68013148745179  C 0.750142234022405 2.48277387951197  2.54798027688227 0.684935836652116  4.74533788482208 1  L 46.1954927618686 1  C 48.6924900436184 0.684935836652116  50.6900878690183 2.68253366205195  50 5.17953094380175  L 50 36.6416966938492  C 50.6900878690183 38.839054301789  48.8922498261584 40.6368923446488  46.6948922182186 40  L 5.24473734117203 40  C 2.74774005942223 40.6368923446488  0.750142234022405 38.639294519249  1 36.1422972374992  Z M 6.7429357102219 12.1711233327012  C 6.7429357102219 15.2174600164359  9.18999304633667 17.6645173525507  12.2363297300715 17.6645173525507  C 15.2826664138062 17.6645173525507  17.729723749921 15.2174600164359  17.729723749921 12.1711233327012  C 17.729723749921 9.12478664896642  15.2826664138062 6.67772931285162  12.2363297300715 6.67772931285162  C 9.18999304633667 6.67772931285162  6.7429357102219 9.12478664896642  6.7429357102219 12.1711233327012  Z M 15.7321259245211 12.1711233327012  C 15.7321259245211 14.068841266831  14.1839876098363 15.6669195271509  12.2363297300715 15.6669195271509  C 10.2886718503066 15.6669195271509  8.74053353562175 14.118781212466  8.74053353562175 12.1711233327012  C 8.74053353562175 10.2234654529363  10.2886718503066 8.67532713825146  12.2363297300715 8.67532713825146  C 14.1839876098363 8.67532713825146  15.7321259245211 10.2234654529363  15.7321259245211 12.1711233327012  Z " fill-rule="nonzero" fill="#ffffff" stroke="none" transform="matrix(1 0 0 1 7732 6166 )" />
  </g>
</svg>