<?xml version="1.0" encoding="utf-8"?>
<svg version="1.1" xmlns:xlink="http://www.w3.org/1999/xlink" width="26px" height="20px" xmlns="http://www.w3.org/2000/svg">
  <g transform="matrix(1 0 0 1 -1235 -1171 )">
    <path d="M 1.40080865774466 2.28299096948868  L 1.40080865774466 17.6303888963411  C 1.40080865774466 18.3124954708679  1.9863790006805 18.8484363508532  2.67378766412692 18.8484363508532  L 23.5506433687958 18.8484363508532  C 24.2635116123698 18.8484363508532  24.823622375178 18.3124954708679  24.823622375178 17.6303888963411  L 24.823622375178 2.5266004603911  C 24.823622375178 1.84449388586433  24.2380520322422 1.30855300587901  23.5506433687958 1.30855300587901  L 2.41919186285047 1.30855300587901  C 1.85908110004227 1.308553005879  1.40080865774466 1.74705008950336  1.40080865774466 2.28299096948868  Z M 9.0641422761658 13.1723352128268  C 8.86046563514464 13.3185009073683  8.86046563514464 13.4890275509999  8.98776353578286 13.5864713473609  L 15.6836331093535 18.7509925544922  C 15.785471429864 18.8484363508532  15.8109310099917 18.9946020453946  15.7345522696088 19.0920458417556  L 15.429037308077 19.4574600781092  C 15.3271989875664 19.5549038744702  15.1744415068006 19.5792648235604  15.07260318629 19.5061819762897  L 5.21974567689139 11.881204911044  L 5.85623518008252 11.881204911044  L 1.45172781799992 15.3891815800388  C 1.34988949748935 15.4866253763998  1.17167243659583 15.4622644273095  1.09529369621291 15.3648206309486  L 0.789778734681167 14.9994063945949  C 0.687940414170586 14.901962598234  0.713399994298235 14.7314359546023  0.815238314808815 14.6583531073315  L 5.21974567689139 11.1503764383367  L 5.37250315765725 11.0285716928855  C 5.47434147816785 10.9554888456148  5.60163937880606 10.9554888456148  5.70347769931663 11.0285716928855  L 5.85623518008252 11.1503764383367  L 7.81662284991119 12.6607552819317  C 7.91846117042175 12.7338381292024  8.07121865118764 12.7338381292024  8.17305697169821 12.6363943328415  L 15.6072543689706 5.81532858757373  L 15.7600118497364 5.66916289303229  C 15.861850170247 5.57171909667132  16.0146076510129 5.57171909667132  16.1164459715234 5.64480194394205  L 16.294663032417 5.76660668939326  L 25.4601118783692 12.8556428746536  C 25.5619501988797 12.9530866710146  25.5874097790074 13.0992523655561  25.5110310386244 13.196696161917  L 25.2055160770927 13.5621103982707  C 25.1036777565821 13.6595541946316  24.9509202758163 13.6839151437219  24.8490819553057 13.6108322964511  L 15.6836331093535 6.52179611119075  L 16.3455821926723 6.49743516210051  L 9.0641422761658 13.1723352128268  Z M 0.382425452638873 17.6303888963411  L 0.382425452638873 2.28299096948868  C 0.382425452638873 1.21110920951803  1.2989703372341 0.334115042269325  2.41919186285047 0.334115042269325  L 23.5506433687958 0.334115042269325  C 24.823622375178 0.334115042269325  25.8420055802838 1.308553005879  25.8420055802838 2.5266004603911  L 25.8420055802838 17.8739983872435  C 25.8420055802838 18.9458801472141  24.9254606956886 19.8228743144628  23.8052391700722 19.8228743144628  L 2.67378766412692 19.8228743144628  C 1.40080865774466 19.8228743144628  0.382425452638873 18.8484363508532  0.382425452638873 17.6303888963411  Z M 3.43757506795626 5.93713333302496  C 3.43757506795626 7.42315122752971  4.68509449421085 8.61683773295157  6.23812888199722 8.61683773295157  C 7.79116326978357 8.61683773295157  9.03868269603815 7.42315122752971  9.03868269603815 5.93713333302496  C 9.03868269603815 4.4511154385202  7.79116326978357 3.25742893309835  6.23812888199722 3.25742893309835  C 4.68509449421085 3.25742893309835  3.43757506795626 4.4511154385202  3.43757506795626 5.93713333302496  Z M 8.02029949093235 5.93713333302496  C 8.02029949093235 6.86284939845415  7.23105250697535 7.64239976934189  6.23812888199722 7.64239976934189  C 5.24520525701907 7.64239976934189  4.45595827306207 6.88721034754439  4.45595827306207 5.93713333302496  C 4.45595827306207 4.98705631850552  5.24520525701907 4.23186689670803  6.23812888199722 4.23186689670803  C 7.23105250697535 4.23186689670803  8.02029949093235 4.98705631850552  8.02029949093235 5.93713333302496  Z " fill-rule="nonzero" fill="#ffffff" stroke="none" transform="matrix(1 0 0 1 1235 1171 )" />
  </g>
</svg>