<?xml version="1.0" encoding="utf-8"?>
<svg version="1.1" xmlns:xlink="http://www.w3.org/1999/xlink" width="26px" height="21px" xmlns="http://www.w3.org/2000/svg">
  <g transform="matrix(1 0 0 1 -1791 -1137 )">
    <path d="M 1.40080865774466 2.39714051796311  L 1.40080865774466 18.5119083411581  C 1.40080865774466 19.2281202444112  1.9863790006805 19.7908581683958  2.67378766412692 19.7908581683958  L 23.5506433687958 19.7908581683958  C 24.2635116123698 19.7908581683958  24.823622375178 19.2281202444112  24.823622375178 18.5119083411581  L 24.823622375178 2.65293048341066  C 24.823622375178 1.93671858015754  24.2380520322422 1.37398065617296  23.5506433687958 1.37398065617296  L 2.41919186285047 1.37398065617296  C 1.85908110004227 1.37398065617295  1.40080865774466 1.83440259397853  1.40080865774466 2.39714051796311  Z M 9.0641422761658 13.8309519734681  C 8.86046563514464 13.9844259527367  8.86046563514464 14.1634789285499  8.98776353578286 14.265794914729  L 15.6836331093535 19.6885421822168  C 15.785471429864 19.7908581683958  15.8109310099917 19.9443321476644  15.7345522696088 20.0466481338434  L 15.429037308077 20.4303330820147  C 15.3271989875664 20.5326490681937  15.1744415068006 20.5582280647384  15.07260318629 20.4814910751042  L 5.21974567689139 12.4752651565962  L 5.85623518008252 12.4752651565962  L 1.45172781799992 16.1586406590407  C 1.34988949748935 16.2609566452198  1.17167243659583 16.235377648675  1.09529369621291 16.133061662496  L 0.789778734681167 15.7493767143247  C 0.687940414170586 15.6470607281457  0.713399994298235 15.4680077523324  0.815238314808815 15.3912707626981  L 5.21974567689139 11.7078952602535  L 5.37250315765725 11.5800002775298  C 5.47434147816785 11.5032632878955  5.60163937880606 11.5032632878955  5.70347769931663 11.5800002775298  L 5.85623518008252 11.7078952602535  L 7.81662284991119 13.2937930460283  C 7.91846117042175 13.3705300356626  8.07121865118764 13.3705300356626  8.17305697169821 13.2682140494835  L 15.6072543689706 6.10609501695242  L 15.7600118497364 5.9526210376839  C 15.861850170247 5.85030505150489  16.0146076510129 5.85030505150489  16.1164459715234 5.92704204113915  L 16.294663032417 6.05493702386292  L 25.4601118783692 13.4984250183863  C 25.5619501988797 13.6007410045653  25.5874097790074 13.7542149838339  25.5110310386244 13.8565309700129  L 25.2055160770927 14.2402159181842  C 25.1036777565821 14.3425319043632  24.9509202758163 14.368110900908  24.8490819553057 14.2913739112737  L 15.6836331093535 6.84788591675029  L 16.3455821926723 6.82230692020554  L 9.0641422761658 13.8309519734681  Z M 0.382425452638873 18.5119083411581  L 0.382425452638873 2.39714051796311  C 0.382425452638873 1.27166466999393  1.2989703372341 0.350820794382791  2.41919186285047 0.350820794382791  L 23.5506433687958 0.350820794382791  C 24.823622375178 0.350820794382791  25.8420055802838 1.37398065617295  25.8420055802838 2.65293048341065  L 25.8420055802838 18.7676983066057  C 25.8420055802838 19.8931741545748  24.9254606956886 20.814018030186  23.8052391700722 20.814018030186  L 2.67378766412692 20.814018030186  C 1.40080865774466 20.814018030186  0.382425452638873 19.7908581683958  0.382425452638873 18.5119083411581  Z M 3.43757506795626 6.23398999967621  C 3.43757506795626 7.7943087889062  4.68509449421085 9.04767961959915  6.23812888199722 9.04767961959915  C 7.79116326978357 9.04767961959915  9.03868269603815 7.7943087889062  9.03868269603815 6.23398999967621  C 9.03868269603815 4.67367121044622  7.79116326978357 3.42030037975327  6.23812888199722 3.42030037975327  C 4.68509449421085 3.42030037975327  3.43757506795626 4.67367121044622  3.43757506795626 6.23398999967621  Z M 8.02029949093235 6.23398999967621  C 8.02029949093235 7.20599186837686  7.23105250697535 8.02451975780899  6.23812888199722 8.02451975780899  C 5.24520525701907 8.02451975780899  4.45595827306207 7.23157086492161  4.45595827306207 6.23398999967621  C 4.45595827306207 5.2364091344308  5.24520525701907 4.44346024154343  6.23812888199722 4.44346024154343  C 7.23105250697535 4.44346024154343  8.02029949093235 5.2364091344308  8.02029949093235 6.23398999967621  Z " fill-rule="nonzero" fill="#ffffff" stroke="none" transform="matrix(1 0 0 1 1791 1137 )" />
  </g>
</svg>