<?xml version="1.0" encoding="utf-8"?>
<svg version="1.1" xmlns:xlink="http://www.w3.org/1999/xlink" width="25px" height="20px" xmlns="http://www.w3.org/2000/svg">
  <g transform="matrix(1 0 0 1 -7834 -4483 )">
    <path d="M 1.34693140167755 2.28299096948868  L 1.34693140167755 17.6303888963411  C 1.34693140167755 18.3124954708678  1.90997980834663 18.8484363508532  2.57094967704512 18.8484363508532  L 22.6448493930729 18.8484363508532  C 23.3302996272787 18.8484363508532  23.8688676684404 18.3124954708678  23.8688676684404 17.6303888963411  L 23.8688676684404 2.52660046039111  C 23.8688676684404 1.84449388586432  23.3058192617713 1.30855300587902  22.6448493930729 1.30855300587902  L 2.3261460219716 1.30855300587902  C 1.78757798080989 1.30855300587899  1.34693140167755 1.74705008950335  1.34693140167755 2.28299096948868  Z M 8.7155214193902 13.1723352128268  C 8.51967849533139 13.3185009073682  8.51967849533139 13.489027551  8.64208032286814 13.5864713473609  L 15.0804164513014 18.7509925544922  C 15.1783379133308 18.8484363508531  15.2028182788382 18.9946020453946  15.1293771823161 19.0920458417556  L 14.8356127962279 19.4574600781092  C 14.7376913341985 19.5549038744702  14.5908091411544 19.5792648235604  14.492887679125 19.5061819762897  L 5.01898622778018 11.881204911044  L 5.63099536546395 11.881204911044  L 1.39589213269224 15.3891815800388  C 1.29797067066283 15.4866253763998  1.12660811211137 15.4622644273095  1.05316701558931 15.3648206309485  L 0.759402629501096 14.999406394595  C 0.661481167471692 14.901962598234  0.685961532979093 14.7314359546023  0.783882995008497 14.6583531073315  L 5.01898622778018 11.1503764383367  L 5.1658684208243 11.0285716928855  C 5.2637898828537 10.9554888456148  5.38619171039045 10.9554888456148  5.48411317241982 11.0285716928855  L 5.63099536546395 11.1503764383367  L 7.51598350953 12.6607552819317  C 7.61390497155938 12.7338381292024  7.7607871646035 12.7338381292024  7.8587086266329 12.6363943328415  L 15.0069753547794 5.81532858757373  L 15.1538575478235 5.66916289303228  C 15.2517790098529 5.57171909667133  15.398661202897 5.57171909667133  15.4965826649264 5.64480194394204  L 15.6679452234779 5.76660668939326  L 24.4808768061242 12.8556428746537  C 24.5787982681536 12.9530866710146  24.603278633661 13.0992523655561  24.5298375371389 13.196696161917  L 24.2360731510507 13.5621103982706  C 24.1381516890213 13.6595541946316  23.9912694959771 13.6839151437219  23.8933480339478 13.6108322964512  L 15.0804164513014 6.52179611119075  L 15.7169059544926 6.49743516210052  L 8.7155214193902 13.1723352128268  Z M 0.367716781383535 17.6303888963411  L 0.367716781383535 2.28299096948868  C 0.367716781383535 1.21110920951804  1.24900993964818 0.334115042269332  2.3261460219716 0.334115042269332  L 22.6448493930729 0.334115042269332  C 23.8688676684404 0.334115042269332  24.8480822887344 1.30855300587899  24.8480822887344 2.52660046039111  L 24.8480822887344 17.8739983872435  C 24.8480822887344 18.9458801472141  23.9667891304698 19.8228743144628  22.8896530481464 19.8228743144628  L 2.57094967704512 19.8228743144628  C 1.34693140167755 19.8228743144628  0.367716781383535 18.8484363508532  0.367716781383535 17.6303888963411  Z M 3.30536064226564 5.93713333302495  C 3.30536064226564 7.42315122752973  4.50489855212584 8.61683773295158  5.99820084807425 8.61683773295158  C 7.49150314402266 8.61683773295158  8.69104105388286 7.42315122752973  8.69104105388286 5.93713333302495  C 8.69104105388286 4.45111543852019  7.49150314402266 3.25742893309834  5.99820084807425 3.25742893309834  C 4.50489855212584 3.25742893309834  3.30536064226564 4.45111543852019  3.30536064226564 5.93713333302495  Z M 7.71182643358881 5.93713333302495  C 7.71182643358881 6.86284939845416  6.95293510286092 7.64239976934189  5.99820084807425 7.64239976934189  C 5.04346659328755 7.64239976934189  4.28457526255968 6.8872103475444  4.28457526255968 5.93713333302495  C 4.28457526255968 4.98705631850552  5.04346659328755 4.23186689670803  5.99820084807425 4.23186689670803  C 6.95293510286092 4.23186689670803  7.71182643358881 4.98705631850552  7.71182643358881 5.93713333302495  Z " fill-rule="nonzero" fill="#ffffff" stroke="none" transform="matrix(1 0 0 1 7834 4483 )" />
  </g>
</svg>