<?xml version="1.0" encoding="utf-8"?>
<svg version="1.1" xmlns:xlink="http://www.w3.org/1999/xlink" width="25px" height="22px" xmlns="http://www.w3.org/2000/svg">
  <g transform="matrix(1 0 0 1 -3865 -2123 )">
    <path d="M 1.34693140167756 2.51129006643755  L 1.34693140167756 19.3934277859752  C 1.34693140167756 20.1437450179546  1.90997980834663 20.7332799859385  2.57094967704511 20.7332799859385  L 22.6448493930729 20.7332799859385  C 23.3302996272787 20.7332799859385  23.8688676684404 20.1437450179546  23.8688676684404 19.3934277859752  L 23.8688676684404 2.77926050643022  C 23.8688676684404 2.02894327445076  23.3058192617714 1.43940830646691  22.6448493930729 1.43940830646691  L 2.32614602197161 1.43940830646691  C 1.78757798080988 1.4394083064669  1.34693140167756 1.92175509845369  1.34693140167756 2.51129006643755  Z M 8.71552141939019 14.4895687341095  C 8.51967849533139 14.6503509981051  8.51967849533139 14.8379303060999  8.64208032286813 14.945118482097  L 15.0804164513014 20.6260918099414  C 15.1783379133308 20.7332799859385  15.2028182788382 20.8940622499341  15.1293771823161 21.0012504259311  L 14.8356127962279 21.4032060859201  C 14.7376913341985 21.5103942619172  14.5908091411544 21.5371913059165  14.492887679125 21.4568001739187  L 5.01898622778018 13.0693254021484  L 5.63099536546396 13.0693254021484  L 1.39589213269223 16.9280997380427  C 1.29797067066284 17.0352879140398  1.12660811211137 17.0084908700405  1.05316701558934 16.9013026940434  L 0.759402629501122 16.4993470340544  C 0.661481167471717 16.3921588580574  0.685961532979072 16.2045795500625  0.783882995008476 16.1241884180647  L 5.01898622778018 12.2654140821704  L 5.16586842082428 12.1314288621741  C 5.2637898828537 12.0510377301763  5.38619171039044 12.0510377301763  5.48411317241983 12.1314288621741  L 5.63099536546396 12.2654140821704  L 7.51598350952999 13.9268308101249  C 7.61390497155938 14.0072219421227  7.7607871646035 14.0072219421227  7.85870862663289 13.9000337661256  L 15.0069753547794 6.39686144633111  L 15.1538575478235 6.23607918233552  C 15.2517790098529 6.12889100633845  15.398661202897 6.12889100633845  15.4965826649264 6.20928213833625  L 15.6679452234779 6.34326735833258  L 24.4808768061242 14.141207162119  C 24.5787982681536 14.2483953381161  24.603278633661 14.4091776021117  24.5298375371389 14.5163657781087  L 24.2360731510507 14.9183214380977  C 24.1381516890213 15.0255096140948  23.9912694959772 15.0523066580941  23.8933480339478 14.9719155260963  L 15.0804164513014 7.17397572230983  L 15.7169059544926 7.14717867831056  L 8.71552141939019 14.4895687341095  Z M 0.367716781383532 19.3934277859752  L 0.367716781383532 2.51129006643755  C 0.367716781383532 1.33222013046984  1.24900993964817 0.367526546496257  2.32614602197161 0.367526546496257  L 22.6448493930729 0.367526546496257  C 23.8688676684404 0.367526546496257  24.8480822887344 1.4394083064669  24.8480822887344 2.77926050643021  L 24.8480822887344 19.6613982259678  C 24.8480822887344 20.8404681619355  23.9667891304698 21.8051617459091  22.8896530481464 21.8051617459091  L 2.57094967704511 21.8051617459091  C 1.34693140167756 21.8051617459091  0.367716781383532 20.7332799859385  0.367716781383532 19.3934277859752  Z M 3.30536064226564 6.53084666632746  C 3.30536064226564 8.16546635028268  4.50489855212582 9.47852150624673  5.99820084807425 9.47852150624673  C 7.49150314402266 9.47852150624673  8.69104105388284 8.16546635028268  8.69104105388284 6.53084666632746  C 8.69104105388284 4.89622698237223  7.49150314402266 3.58317182640819  5.99820084807425 3.58317182640819  C 4.50489855212582 3.58317182640819  3.30536064226564 4.89622698237223  3.30536064226564 6.53084666632746  Z M 7.71182643358879 6.53084666632746  C 7.71182643358879 7.54913433829957  6.95293510286091 8.40663974627608  5.99820084807425 8.40663974627608  C 5.04346659328756 8.40663974627608  4.28457526255968 7.57593138229883  4.28457526255968 6.53084666632746  C 4.28457526255968 5.48576195035608  5.04346659328756 4.65505358637883  5.99820084807425 4.65505358637883  C 6.95293510286091 4.65505358637883  7.71182643358879 5.48576195035608  7.71182643358879 6.53084666632746  Z " fill-rule="nonzero" fill="#bcbcbc" stroke="none" transform="matrix(1 0 0 1 3865 2123 )" />
  </g>
</svg>