<?xml version="1.0" encoding="utf-8"?>
<svg version="1.1" xmlns:xlink="http://www.w3.org/1999/xlink" width="36px" height="41px" xmlns="http://www.w3.org/2000/svg">
  <g transform="matrix(1 0 0 1 -1907 -1981 )">
    <path d="M 1.93958121841569 4.68013148745179  L 2 4.68013148745179  L 2 36.1422972374992  C 1.93958121841569 37.5406157152791  2.75037092401915 38.639294519249  3.70216753494496 38  L 32.6085831260249 38  C 33.5956314632813 38.639294519249  34.3711694425542 37.5406157152791  34 36.1422972374992  L 34 5.17953094380177  C 34.3711694425542 3.78121246602187  33.5603797369508 2.68253366205197  32.6085831260249 3  L 3.34965027163911 3  C 2.57411229236622 2.68253366205195  1.93958121841569 3.58145268348188  1.93958121841569 4.68013148745179  Z M 12.5503508439219 27.0032871862949  C 12.2683370332772 27.3029268601049  12.2683370332772 27.6525064795499  12.4445956649301 27.8522662620899  L 21.715799689874 38.439534736709  C 21.8568065951964 38.639294519249  21.8920583215269 38.938934193059  21.7863031425352 39.1386939755989  L 21.3632824265682 39.8877931601239  C 21.2222755212458 40.0875529426638  21.0107651632623 40.1374928882989  20.86975825794 39.9876730513939  L 7.22734016800346 24.3564700676401  L 8.10863332626811 24.3564700676401  L 2.01008467107681 31.5478222390795  C 1.86907776575449 31.7475820216195  1.62231568144037 31.6976420759845  1.51656050244864 31.4978822934446  L 1.09353978648162 30.7487831089196  C 0.952532881159273 30.5490233263796  0.987784607489864 30.1994437069347  1.12879151281221 30.0496238700297  L 7.22734016800346 22.8582716985903  L 7.43885052598696 22.6085719704153  C 7.57985743130933 22.4587521335103  7.75611606296224 22.4587521335103  7.89712296828456 22.6085719704153  L 8.10863332626811 22.8582716985903  L 10.8230162537232 25.95454832796  C 10.9640231590455 26.104368164865  11.175533517029 26.104368164865  11.3165404223514 25.904608382325  L 21.6100445108823 11.9214236045262  L 21.8215548688658 11.6217839307162  C 21.9625617741881 11.4220241481762  22.1740721321717 11.4220241481762  22.315079037494 11.5718439850812  L 22.5618411218081 11.8215437132562  L 35.2524626008188 26.35406789304  C 35.3934695061411 26.55382767558  35.4287212324718 26.8534673493899  35.32296605348 27.0532271319299  L 34.899945337513 27.8023263164549  C 34.7589384321906 28.0020860989948  34.5474280742071 28.0520260446298  34.4064211688848 27.9022062077248  L 21.7157996898741 13.369682027941  L 22.6323445744693 13.319742082306  L 12.5503508439219 27.0032871862949  Z M 1 36.1422972374992  L 1 4.68013148745179  C 0.529512165192286 2.48277387951197  1.79857431309337 0.684935836652116  3.34965027163911 1  L 32.6085831260249 1  C 34.3711694425542 0.684935836652116  35.7812384957776 2.68253366205195  35.7812384957776 5.17953094380175  L 35.7812384957776 36.6416966938492  C 35.7812384957776 38.839054301789  34.5121763478765 40.6368923446488  32.9611003893308 40  L 3.70216753494496 40  C 1.93958121841569 40.6368923446488  0.529512165192286 38.639294519249  1 36.1422972374992  Z M 4.75971932486252 12.1711233327012  C 4.75971932486252 15.2174600164359  6.48705391506118 17.6645173525507  8.63740922122692 17.6645173525507  C 10.7877645273926 17.6645173525507  12.5150991175913 15.2174600164359  12.5150991175913 12.1711233327012  C 12.5150991175913 9.12478664896642  10.7877645273926 6.67772931285162  8.63740922122692 6.67772931285162  C 6.48705391506118 6.67772931285162  4.75971932486252 9.12478664896642  4.75971932486252 12.1711233327012  Z M 11.1050300643679 12.1711233327012  C 11.1050300643679 14.068841266831  10.0122265481197 15.6669195271509  8.63740922122692 15.6669195271509  C 7.26259189433409 15.6669195271509  6.16978837808594 14.118781212466  6.16978837808594 12.1711233327012  C 6.16978837808594 10.2234654529363  7.26259189433409 8.67532713825146  8.63740922122692 8.67532713825146  C 10.0122265481197 8.67532713825146  11.1050300643679 10.2234654529363  11.1050300643679 12.1711233327012  Z " fill-rule="nonzero" fill="#ffffff" stroke="none" transform="matrix(1 0 0 1 1907 1981 )" />
  </g>
</svg>