<?xml version="1.0" encoding="utf-8"?>
<svg version="1.1" xmlns:xlink="http://www.w3.org/1999/xlink" width="49px" height="39px" xmlns="http://www.w3.org/2000/svg">
  <g transform="matrix(1 0 0 1 -8296 -4779 )">
    <path d="M 2.63998554728801 4.45183239050291  L 3 4.45183239050291  L 3 34.3792583478651  C 2.63998554728801 35.7093661681923  3.7435604243594 36.7544508841637  5.03906136700843 36  L 44.3839048104228 36  C 45.7273872694662 36.7544508841637  46.7829806301432 35.7093661681923  46 34.3792583478651  L 46 4.92687089776265  C 46.7829806301432 3.59676307743544  45.6794057530718 2.5516783614641  44.3839048104228 3  L 4.55924620306433 3  C 3.50365284238737 2.55167836146404  2.63998554728801 3.40674767453152  2.63998554728801 4.45183239050291  Z M 17.0824219820048 25.6860536650123  C 16.6985698508495 25.9710767693681  16.6985698508495 26.3036037244499  16.9384774328215 26.4936191273538  L 29.5576162445508 36.5644354812598  C 29.7495423101284 36.7544508841636  29.7975238265228 37.0394739885195  29.6535792773396 37.2294893914234  L 29.0778010806067 37.9420471523129  C 28.8858750150291 38.1320625552168  28.5979859166627 38.1795664059429  28.406059851085 38.0370548537649  L 9.83721300644913 23.1683495765358  L 11.0367509163093 23.1683495765358  L 2.73594858007678 30.0089040810757  C 2.54402251449915 30.1989194839795  2.20815189973828 30.1514156332536  2.06420735055505 29.9614002303496  L 1.48842915382215 29.2488424694602  C 1.29650308824452 29.0588270665563  1.34448460463904 28.7263001114744  1.53641067021667 28.5837885592965  L 9.83721300644913 21.7432340547566  L 10.1251021048156 21.5057148011268  C 10.3170281703933 21.3632032489488  10.5569357523653 21.3632032489488  10.7488618179429 21.5057148011268  L 11.0367509163093 21.7432340547566  L 14.7313276786788 24.6884727997668  C 14.9232537442564 24.8309843519447  15.2111428426228 24.8309843519447  15.4030689082005 24.6409689490409  L 29.4136716953676 11.3398907457688  L 29.701560793734 11.054867641413  C 29.8934868593116 10.8648522385091  30.1813759576781 10.8648522385091  30.3733020232557 11.007363790687  L 30.7091726380166 11.2448830443169  L 47.9825185400034 25.0685036055746  C 48.174444605581 25.2585190084785  48.2224261219755 25.5435421128343  48.0784815727922 25.7335575157382  L 47.5027033760594 26.4461152766278  C 47.3107773104817 26.6361306795317  47.0228882121152 26.6836345302576  46.8309621465376 26.5411229780797  L 29.5576162445508 12.717502416822  L 30.8051356708054 12.669998566096  L 17.0824219820048 25.6860536650123  Z M 1 34.3792583478651  L 1 4.45183239050291  C 0.720724891511736 2.36166295856017  2.44805948171043 0.651524332425197  4.55924620306433 1  L 44.3839048104228 1  C 46.7829806301432 0.651524332425197  48.7022412859195 2.55167836146404  48 4.92687089776265  L 48 34.8542968551248  C 48.7022412859195 36.9444662870675  46.9749066957209 38.6546049132025  44.8637199743669 38  L 5.03906136700843 38  C 2.63998554728801 38.6546049132025  0.720724891511736 36.7544508841637  1 34.3792583478651  Z M 6.47850685884066 11.5774099993986  C 6.47850685884066 14.475144893683  8.82960116216665 16.8028335792556  11.7564736622255 16.8028335792556  C 14.6833461622844 16.8028335792556  17.0344404656104 14.475144893683  17.0344404656104 11.5774099993986  C 17.0344404656104 8.67967510511437  14.6833461622844 6.35198641954176  11.7564736622255 6.35198641954176  C 8.82960116216665 6.35198641954176  6.47850685884066 8.67967510511437  6.47850685884066 11.5774099993986  Z M 15.1151798098341 11.5774099993986  C 15.1151798098341 13.3825563269856  13.6277528016074 14.9026795502167  11.7564736622255 14.9026795502167  C 9.88519452284359 14.9026795502167  8.39776751461699 13.4300601777116  8.39776751461699 11.5774099993986  C 8.39776751461699 9.72475982108577  9.88519452284359 8.25214044858066  11.7564736622255 8.25214044858066  C 13.6277528016074 8.25214044858066  15.1151798098341 9.72475982108577  15.1151798098341 11.5774099993986  Z " fill-rule="nonzero" fill="#ffffff" stroke="none" transform="matrix(1 0 0 1 8296 4779 )" />
  </g>
</svg>