<?xml version="1.0" encoding="utf-8"?>
<svg version="1.1" xmlns:xlink="http://www.w3.org/1999/xlink" width="15px" height="10px" xmlns="http://www.w3.org/2000/svg">
  <g transform="matrix(1 0 0 1 -2127 -1874 )">
    <path d="M 15 9.5  C 15 9.78  14.78 10  14.5 10  L 12.5 10  C 12.22 10  12 9.78  12 9.5  L 12 0.5  C 12 0.219999999999999  12.22 0  12.5 0  L 14.5 0  C 14.78 0  15 0.219999999999999  15 0.5  L 15 9.5  Z M 11 9.5  C 11 9.78  10.78 10  10.5 10  L 8.5 10  C 8.22000000000003 10  8 9.78  8 9.5  L 8 3.5  C 8 3.22  8.22000000000003 3  8.5 3  L 10.5 3  C 10.78 3  11 3.22  11 3.5  L 11 9.5  Z M 6.5 10  L 4.5 10  C 4.22000000000003 10  4 9.78  4 9.5  L 4 5.5  C 4 5.22  4.22000000000003 5  4.5 5  L 6.5 5  C 6.77999999999997 5  7 5.22  7 5.5  L 7 9.5  C 7 9.78  6.77999999999997 10  6.5 10  Z M 0.5 10  C 0.220000000000027 10  0 9.78  0 9.5  L 0 7.5  C 0 7.22  0.220000000000027 7  0.5 7  L 2.5 7  C 2.77999999999997 7  3 7.22  3 7.5  L 3 9.5  C 3 9.78  2.77999999999997 10  2.5 10  L 0.5 10  Z " fill-rule="nonzero" fill="#333333" stroke="none" transform="matrix(1 0 0 1 2127 1874 )" />
  </g>
</svg>