<?xml version="1.0" encoding="utf-8"?>
<svg version="1.1" xmlns:xlink="http://www.w3.org/1999/xlink" width="20px" height="19px" xmlns="http://www.w3.org/2000/svg">
  <g transform="matrix(1 0 0 1 -1872 -1162 )">
    <path d="M 7.14285714285717 1.51296296296297  L 7.14285714285717 3.02592592592593  L 12.8571428571428 3.02592592592593  L 12.8571428571428 1.51296296296297  L 7.14285714285717 1.51296296296297  Z M 12.5 10.5907407407407  L 20 10.5907407407407  L 20 16.2643518518518  C 20 16.7844328703704  19.8251488095238 17.2296537422839  19.4754464285714 17.6000144675926  C 19.125744047619 17.9703751929012  18.7053571428572 18.1555555555555  18.2142857142857 18  L 1.78571428571428 18  C 1.29464285714283 18.1555555555555  0.874255952380963 17.9703751929012  0.524553571428555 17.6000144675926  C 0.174851190476204 17.2296537422839  0 16.7844328703704  0 16.2643518518518  L 0 10.5907407407407  L 7.5 10.5907407407407  L 7.5 12.4819444444444  C 7.5 12.686824845679  7.57068452380952 12.8641251929012  7.71205357142856 13.0138454861111  C 7.85342261904759 13.163565779321  8.02083333333331 13.2384259259259  8.21428571428572 13.2384259259259  L 11.7857142857143 13.2384259259259  C 11.9791666666667 13.2384259259259  12.1465773809524 13.163565779321  12.2879464285714 13.0138454861111  C 12.4293154761905 12.8641251929012  12.5 12.686824845679  12.5 12.4819444444444  L 12.5 10.5907407407407  Z M 8.57142857142856 10.5907407407407  L 11.4285714285714 10.5907407407407  L 11.4285714285714 12.1037037037037  L 8.57142857142856 12.1037037037037  L 8.57142857142856 10.5907407407407  Z M 19.4754464285714 3.58146701388888  C 19.8251488095238 3.95182773919754  20 4.39704861111112  20 4.91712962962963  L 20 9.4560185185185  L 0 9.4560185185185  L 0 4.91712962962963  C 0 4.39704861111112  0.174851190476204 3.95182773919754  0.524553571428555 3.58146701388888  C 0.874255952380963 3.21110628858023  1.29464285714283 3.02592592592593  1.78571428571428 3.02592592592593  L 5.71428571428572 3.02592592592593  L 5.71428571428572 1.13472222222221  C 5.71428571428572 0.819521604938256  5.81845238095241 0.551601080246897  6.02678571428572 0.330960648148162  C 6.23511904761904 0.110320216049397  6.48809523809524 0  6.78571428571428 0  L 13.2142857142857 0  C 13.5119047619048 0  13.764880952381 0.110320216049397  13.9732142857143 0.330960648148162  C 14.1815476190476 0.551601080246897  14.2857142857143 0.819521604938256  14.2857142857143 1.13472222222221  L 14.2857142857143 3.02592592592593  L 18.2142857142857 3.02592592592593  C 18.7053571428572 3.02592592592593  19.125744047619 3.21110628858023  19.4754464285714 3.58146701388888  Z " fill-rule="nonzero" fill="#aaaaaa" stroke="none" transform="matrix(1 0 0 1 1872 1162 )" />
  </g>
</svg>