<?xml version="1.0" encoding="utf-8"?>
<svg version="1.1" xmlns:xlink="http://www.w3.org/1999/xlink" width="16px" height="16px" xmlns="http://www.w3.org/2000/svg">
  <g transform="matrix(1 0 0 1 -1866 -570 )">
    <path d="M 0.428571428571429 5.71428571428571  C 0.192857142857143 5.71428571428571  0 5.52142857142857  0 5.28571428571429  L 0 0.857142857142857  C 0 0.382142857142857  0.382142857142857 0  0.857142857142857 0  L 5.28571428571429 0  C 5.52142857142857 0  5.71428571428571 0.192857142857143  5.71428571428571 0.428571428571429  L 5.71428571428571 1.85714285714286  C 5.71428571428571 2.09285714285714  5.52142857142857 2.28571428571429  5.28571428571429 2.28571428571429  L 2.28571428571429 2.28571428571429  L 2.28571428571429 5.28571428571429  C 2.28571428571429 5.52142857142857  2.09285714285714 5.71428571428571  1.85714285714286 5.71428571428571  L 0.428571428571429 5.71428571428571  Z M 10.7142857142857 0  C 10.4785714285714 0  10.2857142857143 0.192857142857143  10.2857142857143 0.428571428571429  L 10.2857142857143 1.85714285714286  C 10.2857142857143 2.09285714285714  10.4785714285714 2.28571428571429  10.7142857142857 2.28571428571429  L 13.7142857142857 2.28571428571429  L 13.7142857142857 5.28571428571429  C 13.7142857142857 5.52142857142857  13.9071428571429 5.71428571428571  14.1428571428571 5.71428571428571  L 15.5714285714286 5.71428571428571  C 15.8071428571429 5.71428571428571  16 5.52142857142857  16 5.28571428571429  L 16 0.857142857142857  C 16 0.382142857142857  15.6178571428571 0  15.1428571428571 0  L 10.7142857142857 0  Z M 16 10.7142857142857  C 16 10.4785714285714  15.8071428571429 10.2857142857143  15.5714285714286 10.2857142857143  L 14.1428571428571 10.2857142857143  C 13.9071428571429 10.2857142857143  13.7142857142857 10.4785714285714  13.7142857142857 10.7142857142857  L 13.7142857142857 13.7142857142857  L 10.7142857142857 13.7142857142857  C 10.4785714285714 13.7142857142857  10.2857142857143 13.9071428571429  10.2857142857143 14.1428571428571  L 10.2857142857143 15.5714285714286  C 10.2857142857143 15.8071428571429  10.4785714285714 16  10.7142857142857 16  L 15.1428571428571 16  C 15.6178571428571 16  16 15.6178571428571  16 15.1428571428571  L 16 10.7142857142857  Z M 5.28571428571429 16  C 5.52142857142857 16  5.71428571428571 15.8071428571429  5.71428571428571 15.5714285714286  L 5.71428571428571 14.1428571428571  C 5.71428571428571 13.9071428571429  5.52142857142857 13.7142857142857  5.28571428571429 13.7142857142857  L 2.28571428571429 13.7142857142857  L 2.28571428571429 10.7142857142857  C 2.28571428571429 10.4785714285714  2.09285714285714 10.2857142857143  1.85714285714286 10.2857142857143  L 0.428571428571429 10.2857142857143  C 0.192857142857143 10.2857142857143  0 10.4785714285714  0 10.7142857142857  L 0 15.1428571428571  C 0 15.6178571428571  0.382142857142857 16  0.857142857142857 16  L 5.28571428571429 16  Z " fill-rule="nonzero" fill="#7f7f7f" stroke="none" transform="matrix(1 0 0 1 1866 570 )" />
  </g>
</svg>