<?xml version="1.0" encoding="utf-8"?>
<svg version="1.1" xmlns:xlink="http://www.w3.org/1999/xlink" width="37px" height="14px" xmlns="http://www.w3.org/2000/svg">
  <g transform="matrix(1 0 0 1 -1871 -717 )">
    <path d="M 1872 724  A 6 6 0 0 1 1878 718 L 1901 718  A 6 6 0 0 1 1907 724 A 6 6 0 0 1 1901 730 L 1878 730  A 6 6 0 0 1 1872 724 Z " fill-rule="nonzero" fill="#ffffff" stroke="none" fill-opacity="0" />
    <path d="M 1871.5 724  A 6.5 6.5 0 0 1 1878 717.5 L 1901 717.5  A 6.5 6.5 0 0 1 1907.5 724 A 6.5 6.5 0 0 1 1901 730.5 L 1878 730.5  A 6.5 6.5 0 0 1 1871.5 724 Z " stroke-width="1" stroke="#ffffff" fill="none" stroke-opacity="0.67843137254902" />
  </g>
</svg>