<?xml version="1.0" encoding="utf-8"?>
<svg version="1.1" xmlns:xlink="http://www.w3.org/1999/xlink" width="20px" height="14px" xmlns="http://www.w3.org/2000/svg">
  <g transform="matrix(1 0 0 1 -432 -1169 )">
    <path d="M 15.9283088235294 8.59090909090909  L 5.69852941176471 8.59090909090909  C 5.02450980392157 9.01515151515151  4.20343137254902 9.22727272727273  3.23529411764706 9.22727272727273  L 2.05882352941176 9.22727272727273  L 2.05882352941176 8.59090909090909  L 1.47058823529412 8.59090909090909  C 1.39093137254902 8.59090909090909  1.32199754901961 8.51302083333333  1.26378676470588 8.35724431818182  C 1.20557598039216 8.2014678030303  1.17647058823529 8.01420454545455  1.17647058823529 7.79545454545455  C 1.17647058823529 7.63636363636364  1.19791666666667 7.47395833333333  1.24080882352941 7.30823863636364  C 0.885416666666667 7.29498106060606  0.589767156862745 7.26017992424242  0.353860294117647 7.20383522727273  C 0.117953431372549 7.14749053030303  0 7.07954545454545  0 7  C 0 6.92045454545454  0.117953431372549 6.85250946969697  0.353860294117647 6.79616477272727  C 0.589767156862745 6.73982007575757  0.885416666666667 6.70501893939394  1.24080882352941 6.69176136363636  C 1.19791666666667 6.52604166666667  1.17647058823529 6.36363636363636  1.17647058823529 6.20454545454546  C 1.17647058823529 5.98579545454546  1.20557598039216 5.7985321969697  1.26378676470588 5.64275568181818  C 1.32199754901961 5.48697916666667  1.39093137254902 5.40909090909091  1.47058823529412 5.40909090909091  L 2.05882352941176 5.40909090909091  L 2.05882352941176 4.77272727272727  L 3.23529411764706 4.77272727272727  C 4.20343137254902 4.77272727272727  5.02450980392157 4.98484848484848  5.69852941176471 5.40909090909091  L 15.9283088235294 5.40909090909091  C 16.1856617647059 5.45549242424242  16.5119485294118 5.51515151515151  16.9071691176471 5.58806818181818  C 17.3023897058824 5.66098484848485  17.5490196078431 5.70738636363636  17.6470588235294 5.72727272727273  C 18.1924019607843 5.82670454545454  18.6519607843137 5.9609375  19.0257352941176 6.12997159090909  C 19.3995098039216 6.29900568181818  19.6553308823529 6.45643939393939  19.7931985294118 6.60227272727273  C 19.9310661764706 6.74810606060606  20 6.88068181818182  20 7  C 20 7.11931818181818  19.9310661764706 7.25189393939394  19.7931985294118 7.39772727272727  C 19.6553308823529 7.54356060606061  19.3995098039216 7.70099431818182  19.0257352941176 7.87002840909091  C 18.6519607843137 8.0390625  18.1924019607843 8.17329545454545  17.6470588235294 8.27272727272727  C 17.5490196078431 8.29261363636364  17.3023897058824 8.33901515151515  16.9071691176471 8.41193181818182  C 16.5119485294118 8.48484848484848  16.1856617647059 8.54450757575758  15.9283088235294 8.59090909090909  Z M 16.7279411764706 5.78693181818182  L 15.9834558823529 6.08522727272727  C 16.3082107843137 6.32386363636364  16.4705882352941 6.62878787878788  16.4705882352941 7  C 16.4705882352941 7.37121212121212  16.3082107843137 7.67613636363636  15.9834558823529 7.91477272727273  L 16.7279411764706 8.21306818181818  C 17.1446078431373 7.89488636363636  17.3529411764706 7.4905303030303  17.3529411764706 7  C 17.3529411764706 6.5094696969697  17.1446078431373 6.10511363636364  16.7279411764706 5.78693181818182  Z M 3.23529411764706 9.38636363636364  C 4.19730392156863 9.38636363636364  5.03370098039216 9.17424242424242  5.74448529411765 8.75  L 15.0735294117647 8.75  C 13.7438725490196 9.00189393939394  12.3468137254902 9.26704545454545  10.8823529411765 9.54545454545455  C 10.5330882352941 9.54545454545455  10.186887254902 9.625  9.84375 9.78409090909091  C 9.50061274509804 9.94318181818182  9.24632352941176 10.1022727272727  9.08088235294118 10.2613636363636  L 8.82352941176471 10.5  L 6.17647058823529 13.3636363636364  C 6.0171568627451 13.5359848484848  5.80116421568628 13.6851325757576  5.52849264705882 13.8110795454545  C 5.25582107843137 13.9370265151515  4.98161764705882 14  4.70588235294118 14  L 3.82352941176471 14  L 2.96875 9.38636363636364  L 3.23529411764706 9.38636363636364  Z M 5.74448529411765 5.25  C 5.03370098039216 4.82575757575757  4.19730392156863 4.61363636363636  3.23529411764706 4.61363636363636  L 2.96875 4.61363636363636  L 3.82352941176471 0  L 4.70588235294118 0  C 4.98774509803922 0  5.26348039215686 0.0629734848484835  5.53308823529412 0.188920454545455  C 5.80269607843137 0.314867424242422  6.0171568627451 0.464015151515151  6.17647058823529 0.636363636363636  L 8.82352941176471 3.5  C 8.84803921568628 3.52651515151515  8.88174019607843 3.56131628787879  8.92463235294118 3.60440340909091  C 8.96752450980392 3.64749053030303  9.0609681372549 3.72372159090909  9.20496323529412 3.83309659090909  C 9.34895833333333 3.94247159090909  9.49754901960785 4.03858901515151  9.65073529411765 4.12144886363636  C 9.80392156862745 4.20430871212121  9.99234068627451 4.28053977272727  10.2159926470588 4.35014204545454  C 10.4396446078431 4.41974431818182  10.6617647058824 4.45454545454546  10.8823529411765 4.45454545454546  L 15.0735294117647 5.25  L 5.74448529411765 5.25  Z " fill-rule="nonzero" fill="#333333" stroke="none" transform="matrix(1 0 0 1 432 1169 )" />
  </g>
</svg>