<?xml version="1.0" encoding="utf-8"?>
<svg version="1.1" xmlns:xlink="http://www.w3.org/1999/xlink" width="6px" height="4px" xmlns="http://www.w3.org/2000/svg">
  <g transform="matrix(1 0 0 1 -1606 -2187 )">
    <path d="M 5.93987975951904 0.412371134020618  C 5.97995991983968 0.458190148911797  6 0.510882016036655  6 0.570446735395189  C 6 0.630011454753722  5.97995991983968 0.682703321878579  5.93987975951904 0.72852233676976  L 3.13827655310621 3.93127147766323  C 3.09819639278557 3.97709049255441  3.05210420841683 4  3 4  C 2.94789579158317 4  2.90180360721443 3.97709049255441  2.86172344689379 3.93127147766323  L 0.0601202404809619 0.72852233676976  C 0.0200400801603207 0.682703321878579  0 0.630011454753722  0 0.570446735395189  C 0 0.510882016036655  0.0200400801603207 0.458190148911797  0.0601202404809619 0.412371134020618  L 0.360721442885772 0.06872852233677  C 0.400801603206413 0.0229095074455894  0.44689378757515 0  0.498997995991984 0  C 0.551102204408818 0  0.597194388777555 0.0229095074455894  0.637274549098196 0.06872852233677  L 3 2.76975945017182  L 5.3627254509018 0.06872852233677  C 5.40280561122244 0.0229095074455894  5.44889779559118 0  5.50100200400802 0  C 5.55310621242485 0  5.59919839679359 0.0229095074455894  5.63927855711423 0.06872852233677  L 5.93987975951904 0.412371134020618  Z " fill-rule="nonzero" fill="#333333" stroke="none" transform="matrix(1 0 0 1 1606 2187 )" />
  </g>
</svg>