<?xml version="1.0" encoding="utf-8"?>
<svg version="1.1" xmlns:xlink="http://www.w3.org/1999/xlink" width="45px" height="14px" xmlns="http://www.w3.org/2000/svg">
  <g transform="matrix(1 0 0 1 -1833 -2347 )">
    <path d="M 1834 2354  A 6 6 0 0 1 1840 2348 L 1871 2348  A 6 6 0 0 1 1877 2354 A 6 6 0 0 1 1871 2360 L 1840 2360  A 6 6 0 0 1 1834 2354 Z " fill-rule="nonzero" fill="#ffffff" stroke="none" fill-opacity="0" />
    <path d="M 1833.5 2354  A 6.5 6.5 0 0 1 1840 2347.5 L 1871 2347.5  A 6.5 6.5 0 0 1 1877.5 2354 A 6.5 6.5 0 0 1 1871 2360.5 L 1840 2360.5  A 6.5 6.5 0 0 1 1833.5 2354 Z " stroke-width="1" stroke="#000000" fill="none" stroke-opacity="0.67843137254902" />
  </g>
</svg>