<?xml version="1.0" encoding="utf-8"?>
<svg version="1.1" xmlns:xlink="http://www.w3.org/1999/xlink" width="45px" height="13px" xmlns="http://www.w3.org/2000/svg">
  <g transform="matrix(1 0 0 1 -2445 -2355 )">
    <path d="M 2446 2361.5  A 5.5 5.5 0 0 1 2451.5 2356 L 2483.5 2356  A 5.5 5.5 0 0 1 2489 2361.5 A 5.5 5.5 0 0 1 2483.5 2367 L 2451.5 2367  A 5.5 5.5 0 0 1 2446 2361.5 Z " fill-rule="nonzero" fill="#ffffff" stroke="none" fill-opacity="0" />
    <path d="M 2445.5 2361.5  A 6 6 0 0 1 2451.5 2355.5 L 2483.5 2355.5  A 6 6 0 0 1 2489.5 2361.5 A 6 6 0 0 1 2483.5 2367.5 L 2451.5 2367.5  A 6 6 0 0 1 2445.5 2361.5 Z " stroke-width="1" stroke="#ffffff" fill="none" stroke-opacity="0.67843137254902" />
  </g>
</svg>