<?xml version="1.0" encoding="utf-8"?>
<svg version="1.1" xmlns:xlink="http://www.w3.org/1999/xlink" width="20px" height="19px" xmlns="http://www.w3.org/2000/svg">
  <g transform="matrix(1 0 0 1 -2222 -2492 )">
    <path d="M 19.5725014442519 15.421721548238  C 19.8575004814173 15.7071057192374  20 16.0400539187368  20 16.420566146736  C 20 16.8083959175814  19.8575004814173 17.1376853456576  19.5725014442519 17.4084344309648  L 18.3362218370884 18.5938763720393  C 18.0358174465627 18.8646254573464  17.685345657616 19  17.2848064702484 19  C 16.8765646062007 19  16.5299441555941 18.8646254573464  16.2449451184287 18.5938763720393  L 12.050837666089 14.5984979780474  C 11.7581359522434 14.3350664355864  11.6117850953206 14.0057770075101  11.6117850953206 13.6106296938186  C 11.6117850953206 13.2227999229732  11.7773926439438 12.8715578663586  12.1086077411901 12.5569035239746  L 9.15077989601387 9.74696707105719  L 7.6949740034662 11.1299826689775  C 7.58713652994416 11.2324282688234  7.45619102638167 11.2836510687464  7.30213749277874 11.2836510687464  C 7.14808395917581 11.2836510687464  7.01713845561333 11.2324282688234  6.90930098209128 11.1299826689775  C 6.92470633545157 11.1446177546697  6.97284806470248 11.1885230117466  7.05372616984402 11.261698440208  C 7.13460427498556 11.3348738686694  7.18274600423647 11.3824378971693  7.19815135759676 11.4043905257077  C 7.21355671095706 11.4263431542461  7.25207009435779 11.4684190256114  7.31369150779896 11.5306181398036  C 7.37531292124013 11.5928172539958  7.41382630464086 11.6422106682072  7.42923165800116 11.6787983824379  C 7.44463701136145 11.7153860966686  7.46774504140189 11.76477951088  7.49855574812247 11.8269786250722  C 7.52936645484306 11.8891777392644  7.55054881571346 11.949547467745  7.56210283073368 12.0080878105142  C 7.5736568457539 12.0666281532833  7.57943385326401 12.1324860388985  7.57943385326401 12.2056614673599  C 7.57943385326401 12.4837280955132  7.47159637974196 12.7325245522819  7.25592143269786 12.9520508376661  C 7.23281340265742 12.9740034662045  7.16926632004622 13.0398613518198  7.06528018486424 13.1496244945118  C 6.96129404968227 13.2593876372039  6.88811862122088 13.3343924513769  6.84575389948007 13.3746389370306  C 6.80338917773927 13.4148854226844  6.73213941844791 13.475255151165  6.63200462160601 13.5557481224726  C 6.53186982476411 13.6362410937801  6.4471403812825 13.6929520508377  6.37781629116118 13.7258809936453  C 6.30849220103986 13.7588099364529  6.22376275755825 13.7917388792605  6.12362796071635 13.8246678220682  C 6.02349316387445 13.8575967648758  5.92335836703255 13.8740612362796  5.82322357019064 13.8740612362796  C 5.51511650298479 13.8740612362796  5.25322549585981 13.7716156364337  5.03755054881571 13.5667244367418  L 0.323512420566147 9.08838821490468  C 0.107837473522049 8.88349701521279  0 8.63470055844406  0 8.3419988445985  C 0 8.24687078759869  0.0173310225303293 8.15174273059888  0.0519930675909879 8.05661467359908  C 0.0866551126516464 7.96148661659927  0.121317157712305 7.88099364529174  0.155979202772964 7.81513575967649  C 0.190641247833622 7.74927787406124  0.250336992104756 7.66878490275371  0.335066435586366 7.5736568457539  C 0.419795879067976 7.47852878875409  0.483342961679184 7.4108415174273  0.525707683419988 7.37059503177354  C 0.568072405160793 7.33034854611978  0.647024841132293 7.26083188908146  0.762564991334489 7.16204506065858  C 0.878105141536684 7.0632582322357  0.947429231658001 7.00288850375506  0.97053726169844 6.98093587521664  C 1.20161756210283 6.77604467552474  1.46350856922781 6.6735990756788  1.75621028307337 6.6735990756788  C 1.83323704987483 6.6735990756788  1.90256113999615 6.6790872328134  1.96418255343732 6.69006354708261  C 2.02580396687849 6.70103986135182  2.0893510494897 6.7211631041787  2.15482380127094 6.75043327556326  C 2.22029655305219 6.77970344694781  2.27228962064317 6.80165607548623  2.31080300404391 6.81629116117851  C 2.34931638744464 6.83092624687079  2.40130945503563 6.86751396110148  2.46678220681687 6.9260543038706  C 2.53225495859811 6.98459464663971  2.57654534950895 7.0211823608704  2.59965337954939 7.03581744656268  C 2.62276140958983 7.05045253225496  2.67282880801078 7.09618717504333  2.74985557481225 7.17302137492779  C 2.82688234161371 7.24985557481225  2.87309840169459 7.29559021760061  2.88850375505488 7.31022530329289  C 2.78066628153283 7.20777970344695  2.72674754477181 7.08338147506258  2.72674754477181 6.9370306181398  C 2.72674754477181 6.79067976121702  2.78066628153283 6.66628153283266  2.88850375505488 6.56383593298671  L 6.90930098209128 2.74407856730214  C 7.01713845561333 2.64163296745619  7.14808395917581 2.59041016753322  7.30213749277874 2.59041016753322  C 7.45619102638167 2.59041016753322  7.58713652994416 2.64163296745619  7.6949740034662 2.74407856730214  C 7.67956865010591 2.72944348160986  7.631426920855 2.68553822453302  7.55054881571346 2.61236279607164  C 7.46967071057192 2.53918736761024  7.42152898132101 2.49162333911034  7.40612362796072 2.46967071057192  C 7.39071827460042 2.44771808203351  7.35220489119969 2.4056422106682  7.29058347775852 2.34344309647603  C 7.22896206431735 2.28124398228384  7.19044868091662 2.2318505680724  7.17504332755633 2.19526285384171  C 7.15963797419603 2.15867513961101  7.13652994415559 2.10928172539957  7.10571923743501 2.04708261120739  C 7.07490853071442 1.98488349701521  7.05372616984402 1.92451376853457  7.0421721548238 1.86597342576545  C 7.03061813980358 1.80743308299634  7.02484113229347 1.74157519738109  7.02484113229347 1.6683997689197  C 7.02484113229347 1.39033314076641  7.13267860581552 1.14153668399769  7.34835355285962 0.922010398613519  C 7.37146158290006 0.900057770075101  7.43500866551127 0.83419988445985  7.53899480069324 0.724436741767765  C 7.64298093587522 0.614673599075679  7.71615636433661 0.539668784902751  7.75852108607741 0.49942229924899  C 7.80088580781822 0.459175813595224  7.87213556710957 0.398806085114576  7.97227036395147 0.318313113807048  C 8.07240516079338 0.237820142499516  8.15713460427499 0.181109185441942  8.2264586943963 0.148180242634316  C 8.29578278451762 0.115251299826689  8.38051222799923 0.0823223570190634  8.48064702484113 0.0493934142114381  C 8.58078182168304 0.0164644714038127  8.68091661852494 0  8.78105141536684 0  C 9.08915848257269 0  9.35104948969767 0.102445599845945  9.56672443674177 0.30733679953784  L 14.2807625649913 4.78567302137493  C 14.4964375120354 4.99056422106682  14.6042749855575 5.23936067783555  14.6042749855575 5.53206239168111  C 14.6042749855575 5.62719044868092  14.5869439630272 5.72231850568072  14.5522819179665 5.81744656268053  C 14.5176198729058 5.91257461968034  14.4829578278452 5.99306759098787  14.4482957827845 6.05892547660312  C 14.4136337377239 6.12478336221837  14.3539379934527 6.2052763335259  14.2692085499711 6.30040439052571  C 14.1844791064895 6.39553244752551  14.1209320238783 6.4632197188523  14.0785673021375 6.50346620450607  C 14.0362025803967 6.54371269015983  13.9572501444252 6.61322934719815  13.841709994223 6.71201617562103  C 13.7261698440208 6.81080300404391  13.6568457538995 6.87117273252455  13.633737723859 6.89312536106297  C 13.4026574234547 7.09801656075486  13.1407664163297 7.20046216060081  12.8480647024841 7.20046216060081  C 12.7710379356827 7.20046216060081  12.7017138455613 7.19497400346621  12.6400924321202 7.183997689197  C 12.578471018679 7.17302137492779  12.5149239360678 7.1528981321009  12.4494511842865 7.12362796071635  C 12.3839784325053 7.09435778933179  12.3319853649143 7.07240516079338  12.2934719815136 7.0577700751011  C 12.2549585981128 7.04313498940882  12.2029655305219 7.00654727517812  12.1374927787406 6.94800693240901  C 12.0720200269594 6.8894665896399  12.0277296360485 6.8528788754092  12.0046216060081 6.83824378971693  C 11.9815135759676 6.82360870402465  11.9314461775467 6.77787406123628  11.8544194107452 6.70103986135182  C 11.7773926439438 6.62420566146736  11.7311765838629 6.57847101867899  11.7157712305026 6.56383593298671  C 11.8236087040247 6.66628153283266  11.8775274407857 6.79067976121702  11.8775274407857 6.9370306181398  C 11.8775274407857 7.08338147506258  11.8236087040247 7.20777970344695  11.7157712305026 7.31022530329289  L 10.2599653379549 8.69324090121317  L 13.2177931831311 11.5031773541306  C 13.5490082803774 11.1885230117466  13.9187367610245 11.0311958405546  14.3269786250722 11.0311958405546  C 14.7275178124398 11.0311958405546  15.0779896013865 11.1665703832082  15.3783939919122 11.4373194685153  L 19.5725014442519 15.421721548238  Z " fill-rule="nonzero" fill="#555555" stroke="none" transform="matrix(1 0 0 1 2222 2492 )" />
  </g>
</svg>