<?xml version="1.0" encoding="utf-8"?>
<svg version="1.1" xmlns:xlink="http://www.w3.org/1999/xlink" width="20px" height="10px" xmlns="http://www.w3.org/2000/svg">
  <g transform="matrix(1 0 0 1 -2292 -2286 )">
    <path d="M 19.7995991983968 8.1786941580756  C 19.9331997327989 8.29324169530355  20 8.42497136311569  20 8.57388316151203  C 20 8.72279495990836  19.9331997327989 8.8545246277205  19.7995991983968 8.96907216494845  L 18.7975951903808 9.82817869415807  C 18.6639946559786 9.94272623138602  18.5103540414162 10  18.3366733466934 10  C 18.1629926519706 10  18.0093520374081 9.94272623138602  17.875751503006 9.82817869415807  L 10 3.07560137457045  L 2.12424849699399 9.82817869415807  C 1.99064796259185 9.94272623138602  1.83700734802939 10  1.66332665330661 10  C 1.48964595858383 10  1.33600534402138 9.94272623138602  1.20240480961924 9.82817869415807  L 0.200400801603206 8.96907216494845  C 0.066800267201069 8.8545246277205  0 8.72279495990836  0 8.57388316151203  C 0 8.42497136311569  0.066800267201069 8.29324169530355  0.200400801603206 8.1786941580756  L 9.53907815631263 0.171821305841925  C 9.67267869071476 0.0572737686139735  9.82631930527722 0  10 0  C 10.1736806947228 0  10.3273213092852 0.0572737686139735  10.4609218436874 0.171821305841925  L 19.7995991983968 8.1786941580756  Z " fill-rule="nonzero" fill="#555555" stroke="none" transform="matrix(1 0 0 1 2292 2286 )" />
  </g>
</svg>