<?xml version="1.0" encoding="utf-8"?>
<svg version="1.1" xmlns:xlink="http://www.w3.org/1999/xlink" width="20px" height="18px" xmlns="http://www.w3.org/2000/svg">
  <g transform="matrix(1 0 0 1 -7899 -6241 )">
    <path d="M 16.4184859990508 9.19642857142861  C 17.8126483151401 7.79761904761904  18.5097294731846 6.47321428571428  18.5097294731846 5.22321428571428  C 18.5097294731846 4.62053571428572  18.4300100854296 4.08854166666669  18.2705713099193 3.62723214285714  C 18.1111325344091 3.16592261904762  17.9071992168961 2.79947916666666  17.6587713573801 2.52790178571428  C 17.4103434978643 2.2563244047619  17.108151400095 2.03497023809524  16.7521950640722 1.86383928571428  C 16.3962387280494 1.69270833333334  16.047698149027 1.57738095238096  15.7065733270052 1.51785714285714  C 15.3654485049834 1.45833333333334  15.0020764119602 1.42857142857144  14.6164570479355 1.42857142857144  C 14.2308376839108 1.42857142857144  13.8155552918842 1.5234375  13.3706098718557 1.71316964285714  C 12.9256644518272 1.90290178571428  12.515943877551 2.14099702380952  12.141448149027 2.42745535714286  C 11.7669524205031 2.7139136904762  11.4462209302326 2.98177083333334  11.1792536782156 3.23102678571428  C 10.9122864261984 3.48028273809524  10.6898137161842 3.70907738095238  10.5118355481728 3.91741071428572  C 10.3783519221642 4.0811011904762  10.1966658756526 4.16294642857144  9.96677740863788 4.16294642857144  C 9.73688894162314 4.16294642857144  9.55520289511156 4.0811011904762  9.42171926910299 3.91741071428572  C 9.24374110109159 3.70907738095238  9.0212683910774 3.48028273809524  8.75430113906026 3.23102678571428  C 8.48733388704318 2.98177083333334  8.1666023967727 2.7139136904762  7.79210666824872 2.42745535714286  C 7.41761093972474 2.14099702380952  7.00789036544853 1.90290178571428  6.56294494542004 1.71316964285714  C 6.11799952539155 1.5234375  5.70271713336496 1.42857142857144  5.31709776934031 1.42857142857144  C 4.9314784053156 1.42857142857144  4.56810631229234 1.45833333333334  4.22698149027053 1.51785714285714  C 3.88585666824872 1.57738095238096  3.53731608922641 1.69270833333334  3.18135975320359 1.86383928571428  C 2.82540341718078 2.03497023809524  2.52321131941147 2.2563244047619  2.27478345989562 2.52790178571428  C 2.0263556003797 2.79947916666666  1.82242228286663 3.16592261904762  1.66298350735644 3.62723214285714  C 1.5035447318462 4.08854166666669  1.42382534409114 4.62053571428572  1.42382534409114 5.22321428571428  C 1.42382534409114 6.47321428571428  2.11719862363549 7.7938988095238  3.50394518272424 9.18526785714289  L 9.96677740863788 15.4352678571429  L 16.4184859990508 9.19642857142861  Z M 18.5208531086853 1.38392857142858  C 19.4626542477456 2.30654761904762  19.9335548172758 3.58630952380952  19.9335548172758 5.22321428571428  C 19.9335548172758 6.86755952380952  19.0844506407215 8.54166666666669  17.3862422876127 10.2455357142857  L 10.4562173706692 16.9419642857143  C 10.3227337446606 17.0758928571429  10.1595870906502 17.1428571428572  9.96677740863788 17.1428571428572  C 9.77396772662553 17.1428571428572  9.61082107261512 17.0758928571429  9.47733744660655 16.9419642857143  L 2.53618889416231 10.2232142857143  C 2.46203132415752 10.1636904761905  2.36006466540107 10.0669642857143  2.23028891789272 9.93303571428572  C 2.10051317038449 9.79910714285717  1.89472591362124 9.55543154761904  1.61292714760322 9.20200892857144  C 1.33112838158524 8.8485863095238  1.07899264356905 8.48586309523813  0.856519933554807 8.11383928571428  C 0.634047223540563 7.74181547619048  0.435675723777877 7.29166666666669  0.261405434266749 6.76339285714289  C 0.0871351447556208 6.23511904761904  0 5.7217261904762  0 5.22321428571428  C 0 3.58630952380952  0.470900569530158 2.30654761904762  1.41270170859048 1.38392857142858  C 2.35450284765068 0.461309523809518  3.65596820123397 0  5.31709776934031 0  C 5.77687470336974 0  6.24592133364973 0.0799851190476204  6.72423766018039 0.239955357142861  C 7.202553986711 0.399925595238102  7.64749940673948 0.615699404761898  8.0590739202658 0.887276785714278  C 8.47064843379206 1.15885416666666  8.82475083056477 1.41369047619048  9.12138111058374 1.65178571428572  C 9.41801139060271 1.88988095238096  9.6998101566208 2.14285714285714  9.96677740863788 2.41071428571428  C 10.233744660655 2.14285714285714  10.515543426673 1.88988095238096  10.812173706692 1.65178571428572  C 11.108803986711 1.41369047619048  11.4629063834837 1.15885416666666  11.87448089701 0.887276785714278  C 12.2860554105363 0.615699404761898  12.7310008305648 0.399925595238102  13.2093171570954 0.239955357142861  C 13.687633483626 0.0799851190476204  14.156680113906 0  14.6164570479355 0  C 16.2775866160418 0  17.5790519696251 0.461309523809518  18.5208531086853 1.38392857142858  Z " fill-rule="nonzero" fill="#e4e4e4" stroke="none" transform="matrix(1 0 0 1 7899 6241 )" />
  </g>
</svg>