<?xml version="1.0" encoding="utf-8"?>
<svg version="1.1" xmlns:xlink="http://www.w3.org/1999/xlink" width="10px" height="10px" xmlns="http://www.w3.org/2000/svg">
  <defs>
    <mask fill="white" id="clip63">
      <path d="M 2.39860280019102 7.54876849738814  C 2.66356613115867 7.80872096322293  2.79604779664247 8.12437752887948  2.79604779664243 8.49573819435781  C 2.79604779664245 8.86709885983612  2.66356613115865 9.18275542549271  2.3986028001911 9.44270789132748  C 2.13363946922346 9.70266035716233  1.81189828161995 9.83263659007976  1.43337923738055 9.83263659007974  C 1.0548601931411 9.83263659007976  0.733119005537615 9.70266035716235  0.468155674570061 9.4427078913275  C 0.203192343602447 9.18275542549267  0.0707106781186706 8.86709885983614  0.0707106781186506 8.49573819435783  C 0.0707106781186906 8.1243775288795  0.203192343602488 7.80872096322291  0.468155674570021 7.54876849738812  C 0.733119005537655 7.28881603155327  1.05486019314114 7.15883979863591  1.43337923738059 7.15883979863588  C 1.81189828161997 7.15883979863588  2.13363946922346 7.28881603155329  2.39860280019102 7.54876849738814  Z M 5.85850343894195 7.22150691093536  C 6.17787888251891 7.89924012543329  6.36832127665189 8.60946739816057  6.42983062134082 9.35218872911715  C 6.43929359744679 9.4821649620346  6.39907594899631 9.59357316167809  6.30917767598948 9.68641332804767  C 6.22401089103563 9.78389550273567  6.1128209217903 9.83263659007976  5.97560776825351 9.83263659007976  L 5.01748143752247 9.83263659007978  C 4.89919423619766 9.83263659007978  4.79746724305835 9.79434002145228  4.71230045810444 9.71774688419741  C 4.6271336731506 9.64115374694247  4.57981879262068 9.54483207433403  4.57035581651467 9.42878186637209  C 4.46626307934887 8.36576196144043  4.02978330646028 7.45708883309818  3.26091649784897 6.70276248134533  C 2.49204968923768 5.9484361295925  1.56586090286435 5.52021086221282  0.48235013872903 5.41808667920627  C 0.364062937404182 5.40880266256936  0.265884560304624 5.36238257938457  0.187815007430235 5.27882642965196  C 0.109745454555845 5.19527027991933  0.0707106781186906 5.09546710107201  0.0707106781186709 4.97941689311003  L 0.0707106781186709 4.03941020861806  C 0.0707106781186709 3.90479196738219  0.120391302675102 3.79570477189791  0.219752551787925 3.71214862216533  C 0.300187848688822 3.63323448075117  0.401914841828153 3.59377741004408  0.524933531205957 3.5937774100441  L 0.560419691603419 3.59377741004408  C 1.31745778008225 3.6541235181843  2.04137545219009 3.84096435300311  2.73217270792707 4.15429991450042  C 3.42296996366397 4.46763547599774  4.0356976665265 4.88889773089972  4.57035581651467 5.41808667920629  C 5.10974545455583 5.94263361919445  5.53912799536497 6.54377369643741  5.85850343894195 7.22150691093536  Z M 9.21194559650051 5.87416399649685  C 9.7182148181707 6.98592498877254  10.0021041013503 8.14990857463114  10.0636134460392 9.3661147540726  C 10.0730764221452 9.49144897867155  10.0304930296682 9.60053617415579  9.93586326860837 9.69337634052538  C 9.85069648365447 9.78621650689499  9.74187225843568 9.83263659007974  9.60939059295188 9.83263659007976  L 8.59448640558494 9.83263659007976  C 8.47146771620716 9.83263659007976  8.36619210702807 9.79201901729304  8.27865957804769 9.71078387171968  C 8.19112704906729 9.6295487261463  8.14499504055063 9.53090604937862  8.14026355249766 9.41485584141666  C 8.08348569586172 8.41682405294369  7.84454554918559 7.46869385389435  7.42344311246926 6.5704652442687  C 7.00234067575289 5.67223663464302  6.45467093361902 4.89237923713857  5.78043388606756 4.23089305175533  C 5.10619683851609 3.56940686637209  4.31130684561329 3.03209440350819  3.39576390735928 2.61895566316351  C 2.48022096910522 2.20581692281887  1.51381453428145 1.96907449857648  0.496544602887979 1.90872839043629  C 0.378257401563171 1.90408638211777  0.277713280437085 1.85882680101263  0.194912239509739 1.77294964712074  C 0.112111198582354 1.68707249322888  0.0707106781186707 1.58610881230198  0.0707106781186508 1.47005860434001  L 0.0707106781186708 0.474347820026252  C 0.0707106781186909 0.344371587108846  0.118025558648594 0.237605395783824  0.21265531970842 0.154049246051225  C 0.297822104662314 0.0704930963185655  0.401914841828153 0.028715021452276  0.524933531205957 0.0287150214522961  L 0.54622522744443 0.0287150214522961  C 1.78587509732852 0.0890611295925121  2.97229572661641 0.367581628701229  4.10548711530814 0.864276518778488  C 5.23867850399991 1.36097140885571  6.2453025872741 2.04334663167213  7.12535936513074 2.9114021872277  C 8.01014763104036 3.77481573446477  8.70567637483027 4.76240300422118  9.21194559650051 5.87416399649685  Z " fill-rule="evenodd" />
    </mask>
  </defs>
  <g transform="matrix(1 0 0 1 -2149 -2972 )">
    <path d="M 2.39860280019102 7.54876849738814  C 2.66356613115867 7.80872096322293  2.79604779664247 8.12437752887948  2.79604779664243 8.49573819435781  C 2.79604779664245 8.86709885983612  2.66356613115865 9.18275542549271  2.3986028001911 9.44270789132748  C 2.13363946922346 9.70266035716233  1.81189828161995 9.83263659007976  1.43337923738055 9.83263659007974  C 1.0548601931411 9.83263659007976  0.733119005537615 9.70266035716235  0.468155674570061 9.4427078913275  C 0.203192343602447 9.18275542549267  0.0707106781186706 8.86709885983614  0.0707106781186506 8.49573819435783  C 0.0707106781186906 8.1243775288795  0.203192343602488 7.80872096322291  0.468155674570021 7.54876849738812  C 0.733119005537655 7.28881603155327  1.05486019314114 7.15883979863591  1.43337923738059 7.15883979863588  C 1.81189828161997 7.15883979863588  2.13363946922346 7.28881603155329  2.39860280019102 7.54876849738814  Z M 5.85850343894195 7.22150691093536  C 6.17787888251891 7.89924012543329  6.36832127665189 8.60946739816057  6.42983062134082 9.35218872911715  C 6.43929359744679 9.4821649620346  6.39907594899631 9.59357316167809  6.30917767598948 9.68641332804767  C 6.22401089103563 9.78389550273567  6.1128209217903 9.83263659007976  5.97560776825351 9.83263659007976  L 5.01748143752247 9.83263659007978  C 4.89919423619766 9.83263659007978  4.79746724305835 9.79434002145228  4.71230045810444 9.71774688419741  C 4.6271336731506 9.64115374694247  4.57981879262068 9.54483207433403  4.57035581651467 9.42878186637209  C 4.46626307934887 8.36576196144043  4.02978330646028 7.45708883309818  3.26091649784897 6.70276248134533  C 2.49204968923768 5.9484361295925  1.56586090286435 5.52021086221282  0.48235013872903 5.41808667920627  C 0.364062937404182 5.40880266256936  0.265884560304624 5.36238257938457  0.187815007430235 5.27882642965196  C 0.109745454555845 5.19527027991933  0.0707106781186906 5.09546710107201  0.0707106781186709 4.97941689311003  L 0.0707106781186709 4.03941020861806  C 0.0707106781186709 3.90479196738219  0.120391302675102 3.79570477189791  0.219752551787925 3.71214862216533  C 0.300187848688822 3.63323448075117  0.401914841828153 3.59377741004408  0.524933531205957 3.5937774100441  L 0.560419691603419 3.59377741004408  C 1.31745778008225 3.6541235181843  2.04137545219009 3.84096435300311  2.73217270792707 4.15429991450042  C 3.42296996366397 4.46763547599774  4.0356976665265 4.88889773089972  4.57035581651467 5.41808667920629  C 5.10974545455583 5.94263361919445  5.53912799536497 6.54377369643741  5.85850343894195 7.22150691093536  Z M 9.21194559650051 5.87416399649685  C 9.7182148181707 6.98592498877254  10.0021041013503 8.14990857463114  10.0636134460392 9.3661147540726  C 10.0730764221452 9.49144897867155  10.0304930296682 9.60053617415579  9.93586326860837 9.69337634052538  C 9.85069648365447 9.78621650689499  9.74187225843568 9.83263659007974  9.60939059295188 9.83263659007976  L 8.59448640558494 9.83263659007976  C 8.47146771620716 9.83263659007976  8.36619210702807 9.79201901729304  8.27865957804769 9.71078387171968  C 8.19112704906729 9.6295487261463  8.14499504055063 9.53090604937862  8.14026355249766 9.41485584141666  C 8.08348569586172 8.41682405294369  7.84454554918559 7.46869385389435  7.42344311246926 6.5704652442687  C 7.00234067575289 5.67223663464302  6.45467093361902 4.89237923713857  5.78043388606756 4.23089305175533  C 5.10619683851609 3.56940686637209  4.31130684561329 3.03209440350819  3.39576390735928 2.61895566316351  C 2.48022096910522 2.20581692281887  1.51381453428145 1.96907449857648  0.496544602887979 1.90872839043629  C 0.378257401563171 1.90408638211777  0.277713280437085 1.85882680101263  0.194912239509739 1.77294964712074  C 0.112111198582354 1.68707249322888  0.0707106781186707 1.58610881230198  0.0707106781186508 1.47005860434001  L 0.0707106781186708 0.474347820026252  C 0.0707106781186909 0.344371587108846  0.118025558648594 0.237605395783824  0.21265531970842 0.154049246051225  C 0.297822104662314 0.0704930963185655  0.401914841828153 0.028715021452276  0.524933531205957 0.0287150214522961  L 0.54622522744443 0.0287150214522961  C 1.78587509732852 0.0890611295925121  2.97229572661641 0.367581628701229  4.10548711530814 0.864276518778488  C 5.23867850399991 1.36097140885571  6.2453025872741 2.04334663167213  7.12535936513074 2.9114021872277  C 8.01014763104036 3.77481573446477  8.70567637483027 4.76240300422118  9.21194559650051 5.87416399649685  Z " fill-rule="nonzero" fill="#ffffff" stroke="none" transform="matrix(1 0 0 1 2149 2972 )" />
    <path d="M 2.39860280019102 7.54876849738814  C 2.66356613115867 7.80872096322293  2.79604779664247 8.12437752887948  2.79604779664243 8.49573819435781  C 2.79604779664245 8.86709885983612  2.66356613115865 9.18275542549271  2.3986028001911 9.44270789132748  C 2.13363946922346 9.70266035716233  1.81189828161995 9.83263659007976  1.43337923738055 9.83263659007974  C 1.0548601931411 9.83263659007976  0.733119005537615 9.70266035716235  0.468155674570061 9.4427078913275  C 0.203192343602447 9.18275542549267  0.0707106781186706 8.86709885983614  0.0707106781186506 8.49573819435783  C 0.0707106781186906 8.1243775288795  0.203192343602488 7.80872096322291  0.468155674570021 7.54876849738812  C 0.733119005537655 7.28881603155327  1.05486019314114 7.15883979863591  1.43337923738059 7.15883979863588  C 1.81189828161997 7.15883979863588  2.13363946922346 7.28881603155329  2.39860280019102 7.54876849738814  Z " stroke-width="4" stroke="#aaaaaa" fill="none" transform="matrix(1 0 0 1 2149 2972 )" mask="url(#clip63)" />
    <path d="M 5.85850343894195 7.22150691093536  C 6.17787888251891 7.89924012543329  6.36832127665189 8.60946739816057  6.42983062134082 9.35218872911715  C 6.43929359744679 9.4821649620346  6.39907594899631 9.59357316167809  6.30917767598948 9.68641332804767  C 6.22401089103563 9.78389550273567  6.1128209217903 9.83263659007976  5.97560776825351 9.83263659007976  L 5.01748143752247 9.83263659007978  C 4.89919423619766 9.83263659007978  4.79746724305835 9.79434002145228  4.71230045810444 9.71774688419741  C 4.6271336731506 9.64115374694247  4.57981879262068 9.54483207433403  4.57035581651467 9.42878186637209  C 4.46626307934887 8.36576196144043  4.02978330646028 7.45708883309818  3.26091649784897 6.70276248134533  C 2.49204968923768 5.9484361295925  1.56586090286435 5.52021086221282  0.48235013872903 5.41808667920627  C 0.364062937404182 5.40880266256936  0.265884560304624 5.36238257938457  0.187815007430235 5.27882642965196  C 0.109745454555845 5.19527027991933  0.0707106781186906 5.09546710107201  0.0707106781186709 4.97941689311003  L 0.0707106781186709 4.03941020861806  C 0.0707106781186709 3.90479196738219  0.120391302675102 3.79570477189791  0.219752551787925 3.71214862216533  C 0.300187848688822 3.63323448075117  0.401914841828153 3.59377741004408  0.524933531205957 3.5937774100441  L 0.560419691603419 3.59377741004408  C 1.31745778008225 3.6541235181843  2.04137545219009 3.84096435300311  2.73217270792707 4.15429991450042  C 3.42296996366397 4.46763547599774  4.0356976665265 4.88889773089972  4.57035581651467 5.41808667920629  C 5.10974545455583 5.94263361919445  5.53912799536497 6.54377369643741  5.85850343894195 7.22150691093536  Z " stroke-width="4" stroke="#aaaaaa" fill="none" transform="matrix(1 0 0 1 2149 2972 )" mask="url(#clip63)" />
    <path d="M 9.21194559650051 5.87416399649685  C 9.7182148181707 6.98592498877254  10.0021041013503 8.14990857463114  10.0636134460392 9.3661147540726  C 10.0730764221452 9.49144897867155  10.0304930296682 9.60053617415579  9.93586326860837 9.69337634052538  C 9.85069648365447 9.78621650689499  9.74187225843568 9.83263659007974  9.60939059295188 9.83263659007976  L 8.59448640558494 9.83263659007976  C 8.47146771620716 9.83263659007976  8.36619210702807 9.79201901729304  8.27865957804769 9.71078387171968  C 8.19112704906729 9.6295487261463  8.14499504055063 9.53090604937862  8.14026355249766 9.41485584141666  C 8.08348569586172 8.41682405294369  7.84454554918559 7.46869385389435  7.42344311246926 6.5704652442687  C 7.00234067575289 5.67223663464302  6.45467093361902 4.89237923713857  5.78043388606756 4.23089305175533  C 5.10619683851609 3.56940686637209  4.31130684561329 3.03209440350819  3.39576390735928 2.61895566316351  C 2.48022096910522 2.20581692281887  1.51381453428145 1.96907449857648  0.496544602887979 1.90872839043629  C 0.378257401563171 1.90408638211777  0.277713280437085 1.85882680101263  0.194912239509739 1.77294964712074  C 0.112111198582354 1.68707249322888  0.0707106781186707 1.58610881230198  0.0707106781186508 1.47005860434001  L 0.0707106781186708 0.474347820026252  C 0.0707106781186909 0.344371587108846  0.118025558648594 0.237605395783824  0.21265531970842 0.154049246051225  C 0.297822104662314 0.0704930963185655  0.401914841828153 0.028715021452276  0.524933531205957 0.0287150214522961  L 0.54622522744443 0.0287150214522961  C 1.78587509732852 0.0890611295925121  2.97229572661641 0.367581628701229  4.10548711530814 0.864276518778488  C 5.23867850399991 1.36097140885571  6.2453025872741 2.04334663167213  7.12535936513074 2.9114021872277  C 8.01014763104036 3.77481573446477  8.70567637483027 4.76240300422118  9.21194559650051 5.87416399649685  Z " stroke-width="4" stroke="#aaaaaa" fill="none" transform="matrix(1 0 0 1 2149 2972 )" mask="url(#clip63)" />
  </g>
</svg>