<?xml version="1.0" encoding="utf-8"?>
<svg version="1.1" xmlns:xlink="http://www.w3.org/1999/xlink" width="17px" height="20px" xmlns="http://www.w3.org/2000/svg">
  <g transform="matrix(1 0 0 1 -2247 -3399 )">
    <path d="M 13.9557130991932 10.218253968254  C 15.140751067869 8.66402116402115  15.7332700522069 7.19246031746031  15.7332700522069 5.80357142857142  C 15.7332700522069 5.13392857142858  15.6655085726151 4.54282407407409  15.5299856134314 4.03025793650793  C 15.3944626542478 3.5176917989418  15.2211193343617 3.1105324074074  15.0099556537731 2.80877976190475  C 14.7987919731846 2.50702711640211  14.5419286900807 2.26107804232805  14.2393658044613 2.07093253968253  C 13.936802918842 1.88078703703705  13.640543426673 1.75264550264551  13.3505873279544 1.68650793650793  C 13.0606312292359 1.62037037037038  12.7517649501661 1.58730158730161  12.4239884907451 1.58730158730161  C 12.0962120313242 1.58730158730161  11.7432219981016 1.69270833333333  11.3650183910774 1.90352182539682  C 10.9868147840531 2.11433531746031  10.6385522959184 2.37888558201058  10.320230926673 2.69717261904762  C 10.0019095574276 3.01545965608467  9.7292877906977 3.31307870370371  9.50236562648323 3.59002976190475  C 9.27544346226861 3.86698082010582  9.08634165875655 4.12119708994709  8.93506021594686 4.35267857142858  C 8.82159913383957 4.53455687830689  8.66716599430473 4.62549603174605  8.4717607973422 4.62549603174605  C 8.27635560037966 4.62549603174605  8.12192246084483 4.53455687830689  8.00846137873754 4.35267857142858  C 7.85717993592785 4.12119708994709  7.66807813241579 3.86698082010582  7.44115596820122 3.59002976190475  C 7.2142338039867 3.31307870370371  6.9416120372568 3.01545965608467  6.62329066801141 2.69717261904762  C 6.30496929876603 2.37888558201058  5.95670681063125 2.11433531746031  5.57850320360704 1.90352182539682  C 5.20029959658282 1.69270833333333  4.84730956336021 1.58730158730161  4.51953310393926 1.58730158730161  C 4.19175664451826 1.58730158730161  3.88289036544849 1.62037037037038  3.59293426672995 1.68650793650793  C 3.30297816801141 1.75264550264551  3.00671867584245 1.88078703703705  2.70415579022306 2.07093253968253  C 2.40159290460366 2.26107804232805  2.14472962149975 2.50702711640211  1.93356594091127 2.80877976190475  C 1.72240226032275 3.1105324074074  1.54905894043663 3.5176917989418  1.41353598125298 4.03025793650793  C 1.27801302206927 4.54282407407409  1.21025154247747 5.13392857142858  1.21025154247747 5.80357142857142  C 1.21025154247747 7.19246031746031  1.79961883009017 8.65988756613755  2.9783534053156 10.2058531746032  L 8.4717607973422 17.1502976190477  L 13.9557130991932 10.218253968254  Z M 15.7427251423825 1.53769841269843  C 16.5432561105838 2.56283068783069  16.9435215946844 3.98478835978835  16.9435215946844 5.80357142857142  C 16.9435215946844 7.63062169312169  16.2217830446132 9.49074074074076  14.7783059444708 11.3839285714286  L 8.88778476506883 18.8244047619048  C 8.77432368296154 18.9732142857143  8.6356490270527 19.0476190476191  8.4717607973422 19.0476190476191  C 8.3078725676317 19.0476190476191  8.16919791172286 18.9732142857143  8.05573682961557 18.8244047619048  L 2.15576056003796 11.359126984127  C 2.09272662553389 11.2929894179894  2.00605496559091 11.1855158730159  1.89574558020881 11.0367063492064  C 1.78543619482681 10.8878968253969  1.61051702657806 10.6171461640212  1.37098807546273 10.2244543650794  C 1.13145912434746 9.83176256613755  0.917143747033694 9.42873677248681  0.728041943521586 9.01537698412698  C 0.538940140009478 8.6020171957672  0.370324365211195 8.10185185185187  0.222194619126736 7.51488095238099  C 0.0740648730422777 6.92791005291004  0 6.35747354497356  0 5.80357142857142  C 0 3.98478835978835  0.400265484100635 2.56283068783069  1.2007964523019 1.53769841269843  C 2.00132742050308 0.512566137566132  3.10757297104888 0  4.51953310393926 0  C 4.91034349786428 0  5.30903313360227 0.088872354497356  5.71560201115333 0.266617063492068  C 6.12217088870435 0.44436177248678  6.50037449572856 0.684110449735442  6.85021283222593 0.985863095238086  C 7.20005116872325 1.28761574074073  7.50103820598005 1.5707671957672  7.75317394399618 1.83531746031747  C 8.00530968201231 2.09986772486774  8.24483863312768 2.38095238095238  8.4717607973422 2.67857142857142  C 8.69868296155672 2.38095238095238  8.93821191267209 2.09986772486774  9.19034765068822 1.83531746031747  C 9.44248338870435 1.5707671957672  9.74347042596114 1.28761574074073  10.0933087624585 0.985863095238086  C 10.4431470989558 0.684110449735442  10.8213507059801 0.44436177248678  11.2279195835311 0.266617063492068  C 11.6344884610821 0.088872354497356  12.0331780968201 0  12.4239884907451 0  C 13.8359486236355 0  14.9421941741813 0.512566137566132  15.7427251423825 1.53769841269843  Z " fill-rule="nonzero" fill="#ffffff" stroke="none" transform="matrix(1 0 0 1 2247 3399 )" />
  </g>
</svg>