<?xml version="1.0" encoding="utf-8"?>
<svg version="1.1" xmlns:xlink="http://www.w3.org/1999/xlink" width="12px" height="10px" xmlns="http://www.w3.org/2000/svg">
  <g transform="matrix(1 0 0 1 -7842 -4556 )">
    <path d="M 0.741106719367622 4.28571428571428  L 11.1166007905138 4.28571428571428  C 11.3211771245059 4.28571428571428  11.4958389945652 4.35546875  11.6405864006917 4.49497767857142  C 11.7853338068182 4.63448660714286  11.8577075098814 4.80282738095238  11.8577075098814 5  C 11.8577075098814 5.19717261904762  11.7853338068182 5.36551339285714  11.6405864006917 5.50502232142858  C 11.4958389945652 5.64453125  11.3211771245059 5.71428571428572  11.1166007905138 5.71428571428572  L 11.0297523468379 5.71428571428572  L 10.3639142786562 9.40848214285714  C 10.3330348320158 9.57961309523807  10.2481163537549 9.72098214285714  10.1091588438735 9.83258928571428  C 9.97020133399209 9.94419642857142  9.81194416996047 10  9.63438735177866 10  L 2.22332015810275 10  C 2.04576333992094 10  1.88750617588931 9.94419642857142  1.74854866600788 9.83258928571428  C 1.60959115612647 9.72098214285714  1.5246726778656 9.57961309523807  1.49379323122531 9.40848214285714  L 0.82795516304347 5.71428571428572  L 0.741106719367622 5.71428571428572  C 0.536530385375471 5.71428571428572  0.361868515316189 5.64453125  0.217121109189719 5.50502232142858  C 0.0723737030632492 5.36551339285714  0 5.19717261904762  0 5  C 0 4.80282738095238  0.0723737030632492 4.63448660714286  0.217121109189719 4.49497767857142  C 0.361868515316189 4.35546875  0.536530385375471 4.28571428571428  0.741106719367622 4.28571428571428  Z M 2.77915019762844 8.75  L 2.80809967885372 8.75  C 2.90845788043478 8.74255952380952  2.9924113759881 8.70070684523807  3.05996016551384 8.62444196428572  C 3.12750895503953 8.54817708333334  3.15742341897237 8.46168154761904  3.14970355731225 8.36495535714286  L 2.96442687747037 6.04352678571428  C 2.95670701581025 5.9468005952381  2.91328279397231 5.86588541666666  2.83415421195653 5.80078125  C 2.75502562994069 5.73567708333334  2.66528223814231 5.70684523809524  2.56492403656128 5.71428571428572  C 2.46456583498028 5.7217261904762  2.38061233942688 5.76357886904762  2.31306354990119 5.83984375  C 2.24551476037553 5.91610863095238  2.21560029644269 6.00260416666666  2.22332015810275 6.09933035714286  L 2.40859683794463 8.42075892857142  C 2.41631669960475 8.51376488095238  2.45588099061266 8.59188988095238  2.52728971096838 8.65513392857142  C 2.59869843132412 8.71837797619048  2.6826519268775 8.75  2.77915019762844 8.75  Z M 5.07773900691697 8.64397321428572  C 5.15107769268772 8.5732886904762  5.1877470355731 8.48958333333334  5.1877470355731 8.39285714285714  L 5.1877470355731 6.07142857142858  C 5.1877470355731 5.97470238095238  5.15107769268772 5.89099702380952  5.07773900691697 5.8203125  C 5.00440032114622 5.74962797619048  4.9175518774704 5.71428571428572  4.81719367588931 5.71428571428572  C 4.71683547430831 5.71428571428572  4.62998703063241 5.74962797619048  4.55664834486166 5.8203125  C 4.48330965909091 5.89099702380952  4.44664031620553 5.97470238095238  4.44664031620553 6.07142857142858  L 4.44664031620553 8.39285714285714  C 4.44664031620553 8.48958333333334  4.48330965909091 8.5732886904762  4.55664834486166 8.64397321428572  C 4.62998703063241 8.71465773809524  4.71683547430831 8.75  4.81719367588931 8.75  C 4.9175518774704 8.75  5.00440032114622 8.71465773809524  5.07773900691697 8.64397321428572  Z M 7.30105916501978 8.64397321428572  C 7.37439785079053 8.5732886904762  7.4110671936759 8.48958333333334  7.4110671936759 8.39285714285714  L 7.4110671936759 6.07142857142858  C 7.4110671936759 5.97470238095238  7.37439785079053 5.89099702380952  7.30105916501978 5.8203125  C 7.22772047924903 5.74962797619048  7.14087203557315 5.71428571428572  7.04051383399209 5.71428571428572  C 6.94015563241106 5.71428571428572  6.85330718873519 5.74962797619048  6.77996850296444 5.8203125  C 6.70662981719369 5.89099702380952  6.66996047430831 5.97470238095238  6.66996047430831 6.07142857142858  L 6.66996047430831 8.39285714285714  C 6.66996047430831 8.48958333333334  6.70662981719369 8.5732886904762  6.77996850296444 8.64397321428572  C 6.85330718873519 8.71465773809524  6.94015563241106 8.75  7.04051383399209 8.75  C 7.14087203557315 8.75  7.22772047924903 8.71465773809524  7.30105916501978 8.64397321428572  Z M 9.33041779891306 8.65513392857142  C 9.40182651926875 8.59188988095238  9.44139081027669 8.51376488095238  9.44911067193675 8.42075892857142  L 9.63438735177866 6.09933035714286  C 9.64210721343875 6.00260416666666  9.61219274950594 5.91610863095238  9.54464395998022 5.83984375  C 9.47709517045456 5.76357886904762  9.39314167490119 5.7217261904762  9.29278347332016 5.71428571428572  C 9.19242527173915 5.70684523809524  9.10268187994069 5.73567708333334  9.02355329792491 5.80078125  C 8.94442471590909 5.86588541666666  8.90100049407116 5.9468005952381  8.89328063241109 6.04352678571428  L 8.70800395256916 8.36495535714286  C 8.70028409090909 8.46168154761904  8.73019855484191 8.54817708333334  8.79774734436759 8.62444196428572  C 8.86529613389328 8.70070684523807  8.94924962944665 8.74255952380952  9.04960783102766 8.75  L 9.07855731225297 8.75  C 9.17505558300394 8.75  9.25900907855734 8.71837797619048  9.33041779891306 8.65513392857142  Z M 3.01943089179844 1.22767857142858  C 2.88626327816206 1.33184523809524  2.79844985177866 1.4657738095238  2.75599061264825 1.62946428571428  L 2.21753026185769 3.92857142857142  L 1.45326395750985 3.92857142857142  L 2.03804347826085 1.46763392857142  C 2.1113821640316 1.14025297619048  2.2831490859684 0.873325892857139  2.5533442440711 0.666852678571416  C 2.82353940217391 0.460379464285722  3.13233386857706 0.357142857142861  3.47972764328063 0.357142857142861  L 4.44664031620553 0.357142857142861  C 4.44664031620553 0.260416666666657  4.48330965909091 0.176711309523796  4.55664834486166 0.106026785714278  C 4.62998703063241 0.0353422619047592  4.71683547430831 0  4.81719367588931 0  L 7.04051383399209 0  C 7.14087203557315 0  7.22772047924903 0.0353422619047592  7.30105916501978 0.106026785714278  C 7.37439785079053 0.176711309523796  7.4110671936759 0.260416666666657  7.4110671936759 0.357142857142861  L 8.37797986660081 0.357142857142861  C 8.72537364130434 0.357142857142861  9.03416810770747 0.460379464285722  9.30436326581028 0.666852678571416  C 9.57455842391306 0.873325892857139  9.74632534584981 1.14025297619048  9.81966403162056 1.46763392857142  L 10.4044435523715 3.92857142857142  L 9.64017724802369 3.92857142857142  L 9.10171689723319 1.62946428571428  C 9.05925765810278 1.4657738095238  8.97144423171935 1.33184523809524  8.83827661808303 1.22767857142858  C 8.7051090044466 1.1235119047619  8.55167675395256 1.07142857142858  8.37797986660081 1.07142857142858  L 7.4110671936759 1.07142857142858  C 7.4110671936759 1.16815476190476  7.37439785079053 1.25186011904762  7.30105916501978 1.32254464285714  C 7.22772047924903 1.39322916666666  7.14087203557315 1.42857142857142  7.04051383399209 1.42857142857142  L 4.81719367588931 1.42857142857142  C 4.71683547430831 1.42857142857142  4.62998703063241 1.39322916666666  4.55664834486166 1.32254464285714  C 4.48330965909091 1.25186011904762  4.44664031620553 1.16815476190476  4.44664031620553 1.07142857142858  L 3.47972764328063 1.07142857142858  C 3.3060307559289 1.07142857142858  3.15259850543478 1.1235119047619  3.01943089179844 1.22767857142858  Z " fill-rule="nonzero" fill="#ffffff" stroke="none" transform="matrix(1 0 0 1 7842 4556 )" />
  </g>
</svg>