<?xml version="1.0" encoding="utf-8"?>
<svg version="1.1" xmlns:xlink="http://www.w3.org/1999/xlink" width="12px" height="18px" xmlns="http://www.w3.org/2000/svg">
  <g transform="matrix(1 0 0 1 -1903 -1942 )">
    <path d="M 11.7938144329897 8.58517034068136  C 11.9312714776632 8.70541082164329  12 8.8436873747495  12 9  C 12 9.1563126252505  11.9312714776632 9.29458917835671  11.7938144329897 9.41482965931864  L 2.18556701030928 17.8196392785571  C 2.04810996563574 17.939879759519  1.89003436426117 18  1.71134020618557 18  C 1.53264604810997 18  1.3745704467354 17.939879759519  1.23711340206186 17.8196392785571  L 0.206185567010309 16.9178356713427  C 0.0687285223367698 16.7975951903808  0 16.6593186372745  0 16.503006012024  C 0 16.3466933867735  0.0687285223367698 16.2084168336673  0.206185567010309 16.0881763527054  L 8.30927835051546 9  L 0.206185567010309 1.91182364729459  C 0.0687285223367698 1.79158316633266  0 1.65330661322645  0 1.49699398797595  C 0 1.34068136272545  0.0687285223367698 1.20240480961924  0.206185567010309 1.08216432865731  L 1.23711340206186 0.180360721442886  C 1.3745704467354 0.0601202404809613  1.53264604810997 0  1.71134020618557 0  C 1.89003436426117 0  2.04810996563574 0.0601202404809613  2.18556701030928 0.180360721442886  L 11.7938144329897 8.58517034068136  Z " fill-rule="nonzero" fill="#555555" stroke="none" transform="matrix(1 0 0 1 1903 1942 )" />
  </g>
</svg>