<?xml version="1.0" encoding="utf-8"?>
<svg version="1.1" xmlns:xlink="http://www.w3.org/1999/xlink" width="37px" height="50px" xmlns="http://www.w3.org/2000/svg">
  <g transform="matrix(1 0 0 1 -3549 -2108 )">
    <path d="M 20.4012604166667 48.8957115009747  C 19.4825234375 50.2382066276803  17.5173802083333 50.2381091617934  16.5987395833333 48.8957115009747  C 2.598671875 28.3655945419103  0 26.2585769980507  0 18.7134502923977  C 0 8.37826510721247  8.28270052083333 0  18.5 0  C 28.7172994791667 0  37 8.37826510721247  37 18.7134502923977  C 37 26.2585769980507  34.401328125 28.3655945419103  20.4012604166667 48.8957115009747  Z M 10.7916666666667 18.7134502923977  C 10.7916666666667 23.0197855750487  14.2427838541667 26.5107212475634  18.5 26.5107212475634  C 22.7572161458333 26.5107212475634  26.2083333333333 23.0197855750487  26.2083333333333 18.7134502923977  C 26.2083333333333 14.4071150097466  22.7572161458333 10.916179337232  18.5 10.916179337232  C 14.2427838541667 10.916179337232  10.7916666666667 14.4071150097466  10.7916666666667 18.7134502923977  Z " fill-rule="nonzero" fill="#000000" stroke="none" transform="matrix(1 0 0 1 3549 2108 )" />
  </g>
</svg>