<?xml version="1.0" encoding="utf-8"?>
<svg version="1.1" xmlns:xlink="http://www.w3.org/1999/xlink" width="48px" height="13px" xmlns="http://www.w3.org/2000/svg">
  <g transform="matrix(1 0 0 1 -4003 -2101 )">
    <path d="M 4004 2107.5  A 5.5 5.5 0 0 1 4009.5 2102 L 4044.5 2102  A 5.5 5.5 0 0 1 4050 2107.5 A 5.5 5.5 0 0 1 4044.5 2113 L 4009.5 2113  A 5.5 5.5 0 0 1 4004 2107.5 Z " fill-rule="nonzero" fill="#ffffff" stroke="none" fill-opacity="0" />
    <path d="M 4003.5 2107.5  A 6 6 0 0 1 4009.5 2101.5 L 4044.5 2101.5  A 6 6 0 0 1 4050.5 2107.5 A 6 6 0 0 1 4044.5 2113.5 L 4009.5 2113.5  A 6 6 0 0 1 4003.5 2107.5 Z " stroke-width="1" stroke="#ffffff" fill="none" stroke-opacity="0.67843137254902" />
  </g>
</svg>