<?xml version="1.0" encoding="utf-8"?>
<svg version="1.1" xmlns:xlink="http://www.w3.org/1999/xlink" width="21px" height="18px" xmlns="http://www.w3.org/2000/svg">
  <g transform="matrix(1 0 0 1 -4027 -2153 )">
    <path d="M 17.2394102990033 9.19642857142861  C 18.7032807308971 7.79761904761904  19.4352159468439 6.47321428571428  19.4352159468439 5.22321428571428  C 19.4352159468439 4.62053571428572  19.351510589701 4.08854166666669  19.1840998754153 3.62723214285714  C 19.0166891611296 3.16592261904762  18.8025591777409 2.79947916666666  18.5417099252492 2.52790178571428  C 18.2808606727575 2.2563244047619  17.9635589700997 2.03497023809524  17.5898048172758 1.86383928571428  C 17.2160506644518 1.69270833333334  16.8500830564784 1.57738095238096  16.4919019933555 1.51785714285714  C 16.1337209302326 1.45833333333334  15.7521802325582 1.42857142857144  15.3472799003322 1.42857142857144  C 14.9423795681063 1.42857142857144  14.5063330564784 1.5234375  14.0391403654485 1.71316964285714  C 13.5719476744186 1.90290178571428  13.1417410714286 2.14099702380952  12.7485205564784 2.42745535714286  C 12.3553000415282 2.7139136904762  12.0185319767442 2.98177083333334  11.7382163621263 3.23102678571428  C 11.4579007475083 3.48028273809524  11.2243044019934 3.70907738095238  11.0374273255814 3.91741071428572  C 10.8972695182724 4.0811011904762  10.7064991694353 4.16294642857144  10.4651162790698 4.16294642857144  C 10.2237333887043 4.16294642857144  10.0329630398671 4.0811011904762  9.89280523255814 3.91741071428572  C 9.70592815614617 3.70907738095238  9.47233181063127 3.48028273809524  9.19201619601327 3.23102678571428  C 8.91170058139534 2.98177083333334  8.57493251661134 2.7139136904762  8.18171200166116 2.42745535714286  C 7.78849148671098 2.14099702380952  7.35828488372096 1.90290178571428  6.89109219269104 1.71316964285714  C 6.42389950166113 1.5234375  5.9878529900332 1.42857142857144  5.58295265780732 1.42857142857144  C 5.17805232558138 1.42857142857144  4.79651162790696 1.45833333333334  4.43833056478406 1.51785714285714  C 4.08014950166116 1.57738095238096  3.71418189368773 1.69270833333334  3.34042774086377 1.86383928571428  C 2.96667358803982 2.03497023809524  2.64937188538205 2.2563244047619  2.3885226328904 2.52790178571428  C 2.12767338039869 2.79947916666666  1.91354339700996 3.16592261904762  1.74613268272427 3.62723214285714  C 1.57872196843851 4.08854166666669  1.4950166112957 4.62053571428572  1.4950166112957 5.22321428571428  C 1.4950166112957 6.47321428571428  2.22305855481726 7.7938988095238  3.67914244186045 9.18526785714289  L 10.4651162790698 15.4352678571429  L 17.2394102990033 9.19642857142861  Z M 19.4468957641196 1.38392857142858  C 20.4357869601329 2.30654761904762  20.9302325581396 3.58630952380952  20.9302325581396 5.22321428571428  C 20.9302325581396 6.86755952380952  20.0386731727575 8.54166666666669  18.2555544019934 10.2455357142857  L 10.9790282392027 16.9419642857143  C 10.8388704318937 17.0758928571429  10.6675664451827 17.1428571428572  10.4651162790698 17.1428571428572  C 10.2626661129568 17.1428571428572  10.0913621262459 17.0758928571429  9.95120431893688 16.9419642857143  L 2.66299833887042 10.2232142857143  C 2.5851328903654 10.1636904761905  2.47806789867112 10.0669642857143  2.34180336378736 9.93303571428572  C 2.20553882890371 9.79910714285717  1.98946220930231 9.55543154761904  1.69357350498338 9.20200892857144  C 1.39768480066451 8.8485863095238  1.1329422757475 8.48586309523813  0.899345930232548 8.11383928571428  C 0.665749584717591 7.74181547619048  0.45745950996677 7.29166666666669  0.274475705980086 6.76339285714289  C 0.0914919019934018 6.23511904761904  0 5.7217261904762  0 5.22321428571428  C 0 3.58630952380952  0.494445598006666 2.30654761904762  1.48333679402 1.38392857142858  C 2.47222799003321 0.461309523809518  3.83876661129567 0  5.58295265780732 0  C 6.06571843853823 0  6.55821740033222 0.0799851190476204  7.06044954318941 0.239955357142861  C 7.56268168604655 0.399925595238102  8.02987437707646 0.615699404761898  8.46202761627909 0.887276785714278  C 8.89418085548167 1.15885416666666  9.26598837209301 1.41369047619048  9.57745016611293 1.65178571428572  C 9.88891196013285 1.88988095238096  10.1848006644518 2.14285714285714  10.4651162790698 2.41071428571428  C 10.7454318936877 2.14285714285714  11.0413205980067 1.88988095238096  11.3527823920266 1.65178571428572  C 11.6642441860465 1.41369047619048  12.0360517026579 1.15885416666666  12.4682049418605 0.887276785714278  C 12.9003581810631 0.615699404761898  13.367550872093 0.399925595238102  13.8697830149501 0.239955357142861  C 14.3720151578073 0.0799851190476204  14.8645141196013 0  15.3472799003322 0  C 17.0914659468439 0  18.4580045681063 0.461309523809518  19.4468957641196 1.38392857142858  Z " fill-rule="nonzero" fill="#e4e4e4" stroke="none" transform="matrix(1 0 0 1 4027 2153 )" />
  </g>
</svg>