<?xml version="1.0" encoding="utf-8"?>
<svg version="1.1" xmlns:xlink="http://www.w3.org/1999/xlink" width="10px" height="10px" xmlns="http://www.w3.org/2000/svg">
  <g transform="matrix(1 0 0 1 -4441 -2057 )">
    <path d="M 5 0  C 7.76122983870968 0  10 2.23957661290323  10 5  C 10 7.76203629032258  7.76122983870968 10  5 10  C 2.23877016129032 10  0 7.76203629032258  0 5  C 0 2.23957661290323  2.23877016129032 0  5 0  Z M 7.48358870967742 3.70967741935484  C 7.48358870967742 2.54028225806452  6.27058467741936 1.65322580645161  5.13417338709677 1.65322580645161  C 4.0354435483871 1.65322580645161  3.33467741935484 2.1160685483871  2.78439516129032 2.93866935483871  C 2.71310483870968 3.04524193548387  2.73695564516129 3.18897177419355  2.83913306451613 3.26645161290323  L 3.53870967741935 3.79689516129032  C 3.64364919354839 3.87647177419355  3.79316532258064 3.85754032258065  3.87469758064516 3.75411290322581  C 4.23485887096774 3.29729838709677  4.48181451612903 3.03239919354839  5.03 3.03239919354839  C 5.441875 3.03239919354839  5.95133064516129 3.29747983870968  5.95133064516129 3.696875  C 5.95133064516129 3.99881048387097  5.70207661290322 4.15387096774194  5.29540322580645 4.381875  C 4.82112903225806 4.64774193548387  4.19354838709677 4.97864919354839  4.19354838709677 5.80645161290323  L 4.19354838709677 5.88709677419355  C 4.19354838709677 6.02070564516129  4.301875 6.12903225806452  4.43548387096774 6.12903225806452  L 5.56451612903226 6.12903225806452  C 5.698125 6.12903225806452  5.80645161290323 6.02070564516129  5.80645161290323 5.88709677419355  L 5.80645161290323 5.86022177419355  C 5.80645161290323 5.28639112903226  7.48358870967742 5.2625  7.48358870967742 3.70967741935484  Z M 5.92741935483871 7.58064516129032  C 5.92741935483871 7.06925403225806  5.51139112903226 6.65322580645161  5 6.65322580645161  C 4.48860887096774 6.65322580645161  4.07258064516129 7.06925403225806  4.07258064516129 7.58064516129032  C 4.07258064516129 8.09201612903226  4.48860887096774 8.50806451612903  5 8.50806451612903  C 5.51139112903226 8.50806451612903  5.92741935483871 8.09201612903226  5.92741935483871 7.58064516129032  Z " fill-rule="nonzero" fill="#ffffff" stroke="none" transform="matrix(1 0 0 1 4441 2057 )" />
  </g>
</svg>