<?xml version="1.0" encoding="utf-8"?>
<svg version="1.1" xmlns:xlink="http://www.w3.org/1999/xlink" width="46px" height="13px" xmlns="http://www.w3.org/2000/svg">
  <g transform="matrix(1 0 0 1 -4373 -1991 )">
    <path d="M 4374 1997.5  A 5.5 5.5 0 0 1 4379.5 1992 L 4412.5 1992  A 5.5 5.5 0 0 1 4418 1997.5 A 5.5 5.5 0 0 1 4412.5 2003 L 4379.5 2003  A 5.5 5.5 0 0 1 4374 1997.5 Z " fill-rule="nonzero" fill="#ffffff" stroke="none" fill-opacity="0" />
    <path d="M 4373.5 1997.5  A 6 6 0 0 1 4379.5 1991.5 L 4412.5 1991.5  A 6 6 0 0 1 4418.5 1997.5 A 6 6 0 0 1 4412.5 2003.5 L 4379.5 2003.5  A 6 6 0 0 1 4373.5 1997.5 Z " stroke-width="1" stroke="#000000" fill="none" stroke-opacity="0.67843137254902" />
  </g>
</svg>