<?xml version="1.0" encoding="utf-8"?>
<svg version="1.1" xmlns:xlink="http://www.w3.org/1999/xlink" width="6px" height="9px" xmlns="http://www.w3.org/2000/svg">
  <g transform="matrix(1 0 0 1 -4551 -2160 )">
    <path d="M 5.888671875 5.43963068181818  C 5.962890625 5.52059659090909  6 5.61647727272727  6 5.72727272727273  C 6 5.83806818181818  5.962890625 5.93394886363636  5.888671875 6.01491477272727  L 3.263671875 8.87855113636364  C 3.189453125 8.95951704545455  3.1015625 9  3 9  C 2.8984375 9  2.810546875 8.95951704545455  2.736328125 8.87855113636364  L 0.111328125 6.01491477272727  C 0.037109375 5.93394886363636  0 5.83806818181818  0 5.72727272727273  C 0 5.61647727272727  0.037109375 5.52059659090909  0.111328125 5.43963068181818  C 0.185546875 5.35866477272727  0.2734375 5.31818181818182  0.375 5.31818181818182  L 5.625 5.31818181818182  C 5.7265625 5.31818181818182  5.814453125 5.35866477272727  5.888671875 5.43963068181818  Z M 5.888671875 2.98508522727273  C 5.962890625 3.06605113636364  6 3.16193181818182  6 3.27272727272727  C 6 3.38352272727273  5.962890625 3.47940340909091  5.888671875 3.56036931818182  C 5.814453125 3.64133522727273  5.7265625 3.68181818181818  5.625 3.68181818181818  L 0.375 3.68181818181818  C 0.2734375 3.68181818181818  0.185546875 3.64133522727273  0.111328125 3.56036931818182  C 0.037109375 3.47940340909091  0 3.38352272727273  0 3.27272727272727  C 0 3.16193181818182  0.037109375 3.06605113636364  0.111328125 2.98508522727273  L 2.736328125 0.121448863636364  C 2.810546875 0.0404829545454537  2.8984375 0  3 0  C 3.1015625 0  3.189453125 0.0404829545454537  3.263671875 0.121448863636364  L 5.888671875 2.98508522727273  Z " fill-rule="nonzero" fill="#7f7f7f" stroke="none" transform="matrix(1 0 0 1 4551 2160 )" />
  </g>
</svg>