<?xml version="1.0" encoding="utf-8"?>
<svg version="1.1" xmlns:xlink="http://www.w3.org/1999/xlink" width="22px" height="24px" xmlns="http://www.w3.org/2000/svg">
  <g transform="matrix(1 0 0 1 -9062 -5123 )">
    <path d="M 11 22.5191326530612  C 11.1410256410256 22.5191326530612  11.2115384615385 22.4489795918367  11.2115384615385 22.3086734693877  C 11.2115384615385 22.1683673469388  11.1410256410256 22.0982142857143  11 22.0982142857143  C 10.479967948718 22.0982142857143  10.0326522435898 21.9118702168367  9.65805288461539 21.5391820790816  C 9.28345352564105 21.1664939413265  9.09615384615384 20.7214604591837  9.09615384615384 20.204081632653  C 9.09615384615384 20.0637755102041  9.02564102564105 19.9936224489796  8.88461538461539 19.9936224489796  C 8.74358974358975 19.9936224489796  8.67307692307693 20.0637755102041  8.67307692307693 20.204081632653  C 8.67307692307693 20.8442283163265  8.90004006410257 21.3901068239796  9.35396634615384 21.8417171556122  C 9.80789262820514 22.2933274872449  10.3565705128205 22.5191326530612  11 22.5191326530612  Z M 20.796875 17.3628826530612  C 21.1582532051282 17.766262755102  21.5592948717949 18.1521045918367  22 18.5204081632653  C 22 18.9764030612245  21.832532051282 19.3710140306122  21.4975961538462 19.7042410714286  C 21.1626602564102 20.0374681122449  20.7660256410256 20.204081632653  20.3076923076923 20.204081632653  L 14.3846153846154 20.204081632653  C 14.3846153846154 21.1336096938776  14.0540865384615 21.9272161989796  13.3930288461538 22.5849011479592  C 12.7319711538462 23.2425860969388  11.9342948717949 23.5714285714286  11 23.5714285714286  C 10.0657051282051 23.5714285714286  9.26802884615384 23.2425860969388  8.60697115384616 22.5849011479592  C 7.94591346153845 21.9272161989796  7.61538461538461 21.1336096938776  7.61538461538461 20.204081632653  L 1.69230769230771 20.204081632653  C 1.23397435897436 20.204081632653  0.837339743589752 20.0374681122449  0.50240384615384 19.7042410714286  C 0.167467948717956 19.3710140306122  0 18.9764030612245  0 18.5204081632653  C 0.440705128205138 18.1521045918367  0.841746794871796 17.766262755102  1.203125 17.3628826530612  C 1.5645032051282 16.9595025510204  1.93910256410257 16.435546875  2.32692307692307 15.791015625  C 2.71474358974359 15.146484375  3.04306891025641 14.4515306122449  3.31189903846155 13.7061543367347  C 3.58072916666666 12.9607780612245  3.80108173076923 12.0575573979592  3.97295673076923 10.9964923469388  C 4.14483173076923 9.93542729591834  4.23076923076923 8.79544005102039  4.23076923076923 7.57653061224488  C 4.23076923076923 6.24362244897958  4.74639423076923 5.00498246173467  5.77764423076923 3.86061065051021  C 6.80889423076923 2.71623883928571  8.16185897435898 2.0212850765306  9.83653846153845 1.77574936224489  C 9.76602564102564 1.60913584183672  9.73076923076923 1.43813775510203  9.73076923076923 1.26275510204081  C 9.73076923076923 0.911989795918359  9.85416666666666 0.613839285714292  10.1009615384615 0.368303571428569  C 10.3477564102564 0.122767857142861  10.6474358974359 0  11 0  C 11.3525641025641 0  11.6522435897436 0.122767857142861  11.8990384615385 0.368303571428569  C 12.1458333333333 0.613839285714292  12.2692307692308 0.911989795918359  12.2692307692308 1.26275510204081  C 12.2692307692308 1.43813775510203  12.2339743589744 1.60913584183672  12.1634615384615 1.77574936224489  C 13.8381410256411 2.0212850765306  15.1911057692308 2.71623883928571  16.2223557692308 3.86061065051021  C 17.2536057692308 5.00498246173467  17.7692307692308 6.24362244897958  17.7692307692308 7.57653061224488  C 17.7692307692308 8.79544005102039  17.8551682692308 9.93542729591834  18.0270432692308 10.9964923469388  C 18.1989182692308 12.0575573979592  18.4192708333333 12.9607780612245  18.6881009615385 13.7061543367347  C 18.9569310897436 14.4515306122449  19.2852564102564 15.146484375  19.6730769230769 15.791015625  C 20.0608974358974 16.435546875  20.4354967948718 16.9595025510204  20.796875 17.3628826530612  Z " fill-rule="nonzero" fill="#ffffff" stroke="none" transform="matrix(1 0 0 1 9062 5123 )" />
  </g>
</svg>