<?xml version="1.0" encoding="utf-8"?>
<svg version="1.1" xmlns:xlink="http://www.w3.org/1999/xlink" width="30px" height="22px" xmlns="http://www.w3.org/2000/svg">
  <g transform="matrix(1 0 0 1 -9152 -5124 )">
    <path d="M 19.6649774774775 12.875  C 19.7682057057057 12.75  19.8198198198198 12.625  19.8198198198198 12.5  C 19.8198198198198 12.3541666666667  19.7733671171171 12.234375  19.6804617117117 12.140625  C 19.5875563063063 12.046875  19.4688438438438 12  19.3243243243243 12  L 15.8558558558559 12  L 15.8558558558559 6.5  C 15.8558558558559 6.36458333333334  15.8068224474474 6.24739583333334  15.7087556306306 6.1484375  C 15.6106888138138 6.04947916666666  15.4945570570571 6  15.3603603603604 6  L 12.3873873873874 6  C 12.2531906906907 6  12.1370589339339 6.04947916666666  12.0389921171171 6.1484375  C 11.9409253003003 6.24739583333334  11.8918918918919 6.36458333333334  11.8918918918919 6.5  L 11.8918918918919 12  L 8.42342342342343 12  C 8.28922672672672 12  8.17309496996998 12.0494791666667  8.07502815315314 12.1484375  C 7.97696133633633 12.2473958333333  7.92792792792793 12.3645833333333  7.92792792792793 12.5  C 7.92792792792793 12.6458333333333  7.97438063063063 12.765625  8.06728603603605 12.859375  L 13.5177364864865 18.359375  C 13.6106418918919 18.453125  13.7293543543544 18.5  13.8738738738739 18.5  C 14.0183933933934 18.5  14.1371058558559 18.453125  14.2300112612613 18.359375  L 19.6649774774775 12.875  Z M 28.4367961711712 12.2734375  C 29.2987518768769 13.3619791666667  29.7297297297297 14.6041666666667  29.7297297297297 16  C 29.7297297297297 17.65625  29.1490709459459 19.0703125  27.9877533783784 20.2421875  C 26.8264358108108 21.4140625  25.4251126126126 22  23.7837837837838 22  L 6.93693693693695 22  C 5.02721471471472 22  3.39362800300302 21.3151041666667  2.03617680180182 19.9453125  C 0.678725600600615 18.5755208333333  0 16.9270833333333  0 15  C 0 13.6458333333333  0.361298798798799 12.3958333333333  1.0838963963964 11.25  C 1.806493993994 10.1041666666667  2.77683933933935 9.24479166666666  3.99493243243242 8.671875  C 3.97428678678679 8.359375  3.96396396396398 8.13541666666666  3.96396396396398 8  C 3.96396396396398 5.79166666666666  4.73817567567568 3.90625  6.28659909909911 2.34375  C 7.83502252252253 0.78125  9.70345345345345 0  11.8918918918919 0  C 13.5022522522522 0  14.9758352102102 0.453125  16.3126407657658 1.359375  C 17.6494463213213 2.265625  18.6223723723724 3.46875  19.2314189189189 4.96875  C 19.9643393393393 4.32291666666666  20.8211336336336 4  21.8018018018018 4  C 22.8960210210211 4  23.8302364864865 4.390625  24.6044481981982 5.171875  C 25.3786599099099 5.953125  25.7657657657658 6.89583333333334  25.7657657657658 8  C 25.7657657657658 8.79166666666666  25.5541478978979 9.51041666666666  25.1309121621622 10.15625  C 26.4728791291291 10.4791666666667  27.5748404654655 11.1848958333333  28.4367961711712 12.2734375  Z " fill-rule="nonzero" fill="#ffffff" stroke="none" transform="matrix(1 0 0 1 9152 5124 )" />
  </g>
</svg>