<?xml version="1.0" encoding="utf-8"?>
<svg version="1.1" xmlns:xlink="http://www.w3.org/1999/xlink" width="29px" height="22px" xmlns="http://www.w3.org/2000/svg">
  <g transform="matrix(1 0 0 1 -9247 -5124 )">
    <path d="M 5.45372596153845 15.4140625  C 5.84721268315019 15.0234375  6.04395604395603 14.5520833333333  6.04395604395603 14  C 6.04395604395603 13.4479166666667  5.84721268315019 12.9765625  5.45372596153845 12.5859375  C 5.06023923992672 12.1953125  4.58543192918194 12  4.029304029304 12  C 3.47317612942612 12  2.99836881868134 12.1953125  2.60488209706961 12.5859375  C 2.21139537545787 12.9765625  2.01465201465203 13.4479166666667  2.01465201465203 14  C 2.01465201465203 14.5520833333333  2.21139537545787 15.0234375  2.60488209706961 15.4140625  C 2.99836881868134 15.8046875  3.47317612942612 16  4.029304029304 16  C 4.58543192918194 16  5.06023923992672 15.8046875  5.45372596153845 15.4140625  Z M 8.4757039835165 8.4140625  C 8.86919070512818 8.0234375  9.06593406593407 7.55208333333334  9.06593406593407 7  C 9.06593406593407 6.44791666666666  8.86919070512818 5.9765625  8.4757039835165 5.5859375  C 8.08221726190476 5.1953125  7.60740995115992 5  7.05128205128204 5  C 6.49515415140417 5  6.02034684065933 5.1953125  5.62686011904759 5.5859375  C 5.23337339743591 5.9765625  5.03663003663002 6.44791666666666  5.03663003663002 7  C 5.03663003663002 7.55208333333334  5.23337339743591 8.0234375  5.62686011904759 8.4140625  C 6.02034684065933 8.8046875  6.49515415140417 9  7.05128205128204 9  C 7.60740995115992 9  8.08221726190476 8.8046875  8.4757039835165 8.4140625  Z M 16.9356684981685 15.9375  C 16.7048229548229 15.34375  16.3270757020757 14.8697916666667  15.8024267399267 14.515625  L 17.3921130952381 8.546875  C 17.4550709706959 8.27604166666666  17.4157222985348 8.0234375  17.2740670787546 7.7890625  C 17.1324118589744 7.5546875  16.930422008547 7.40104166666666  16.6680975274725 7.328125  C 16.4057730463981 7.25520833333334  16.1539415445665 7.2890625  15.912603021978 7.4296875  C 15.6712644993895 7.5703125  15.5138698107448 7.77604166666666  15.4404189560439 8.046875  L 13.8507326007326 14.015625  C 13.2211538461538 14.0677083333333  12.6597794566545 14.2942708333333  12.1666094322344 14.6953125  C 11.6734394078144 15.0963541666667  11.3429105616606 15.609375  11.1750228937729 16.234375  C 10.9651633089133 17.0364583333333  11.0700931013431 17.796875  11.4898122710622 18.515625  C 11.9095314407814 19.234375  12.5233707264957 19.6979166666667  13.3313301282051 19.90625  C 14.1392895299145 20.1145833333333  14.905277014652 20.0104166666667  15.6292925824176 19.59375  C 16.3533081501831 19.1770833333333  16.8202457264957 18.5677083333333  17.0301053113553 17.765625  C 17.1979929792429 17.140625  17.166514041514 16.53125  16.9356684981685 15.9375  Z M 25.6002461080586 15.4140625  C 25.9937328296703 15.0234375  26.1904761904761 14.5520833333333  26.1904761904761 14  C 26.1904761904761 13.4479166666667  25.9937328296703 12.9765625  25.6002461080586 12.5859375  C 25.2067593864468 12.1953125  24.7319520757021 12  24.1758241758242 12  C 23.6196962759462 12  23.1448889652015 12.1953125  22.7514022435897 12.5859375  C 22.357915521978 12.9765625  22.1611721611721 13.4479166666667  22.1611721611721 14  C 22.1611721611721 14.5520833333333  22.357915521978 15.0234375  22.7514022435897 15.4140625  C 23.1448889652015 15.8046875  23.6196962759462 16  24.1758241758242 16  C 24.7319520757021 16  25.2067593864468 15.8046875  25.6002461080586 15.4140625  Z M 15.5269860347985 5.4140625  C 15.9204727564102 5.0234375  16.1172161172161 4.55208333333334  16.1172161172161 4  C 16.1172161172161 3.44791666666666  15.9204727564102 2.9765625  15.5269860347985 2.5859375  C 15.1334993131868 2.1953125  14.658692002442 2  14.1025641025641 2  C 13.5464362026862 2  13.0716288919414 2.1953125  12.6781421703296 2.5859375  C 12.284655448718 2.9765625  12.0879120879121 3.44791666666666  12.0879120879121 4  C 12.0879120879121 4.55208333333334  12.284655448718 5.0234375  12.6781421703296 5.4140625  C 13.0716288919414 5.8046875  13.5464362026862 6  14.1025641025641 6  C 14.658692002442 6  15.1334993131868 5.8046875  15.5269860347985 5.4140625  Z M 22.5782680860806 8.4140625  C 22.9717548076923 8.0234375  23.1684981684982 7.55208333333334  23.1684981684982 7  C 23.1684981684982 6.44791666666666  22.9717548076923 5.9765625  22.5782680860806 5.5859375  C 22.1847813644688 5.1953125  21.709974053724 5  21.1538461538461 5  C 20.5977182539683 5  20.1229109432234 5.1953125  19.7294242216117 5.5859375  C 19.3359375 5.9765625  19.1391941391941 6.44791666666666  19.1391941391941 7  C 19.1391941391941 7.55208333333334  19.3359375 8.0234375  19.7294242216117 8.4140625  C 20.1229109432234 8.8046875  20.5977182539683 9  21.1538461538461 9  C 21.709974053724 9  22.1847813644688 8.8046875  22.5782680860806 8.4140625  Z M 27.0876259157509 8.5625  C 27.8326274420024 10.2916666666667  28.2051282051282 12.1041666666667  28.2051282051282 14  C 28.2051282051282 16.71875  27.4653731684982 19.234375  25.9858630952381 21.546875  C 25.7864964896215 21.8489583333333  25.503186050061 22  25.1359317765567 22  L 3.06919642857144 22  C 2.70194215506717 22  2.41863171550671 21.8489583333333  2.2192651098901 21.546875  C 0.739755036630015 19.2447916666667  0 16.7291666666667  0 14  C 0 12.1041666666667  0.372500763125743 10.2916666666667  1.11750228937728 8.5625  C 1.86250381562883 6.83333333333334  2.86458333333331 5.34375  4.12374084249086 4.09375  C 5.38289835164835 2.84375  6.88339438339437 1.84895833333334  8.62522893772893 1.109375  C 10.3670634920635 0.369791666666657  12.1928418803419 0  14.1025641025641 0  C 16.0122863247863 0  17.8380647130647 0.369791666666657  19.5798992673992 1.109375  C 21.3217338217338 1.84895833333334  22.8222298534798 2.84375  24.0813873626373 4.09375  C 25.3405448717949 5.34375  26.3426243894993 6.83333333333334  27.0876259157509 8.5625  Z " fill-rule="nonzero" fill="#ffffff" stroke="none" transform="matrix(1 0 0 1 9247 5124 )" />
  </g>
</svg>