<?xml version="1.0" encoding="utf-8"?>
<svg version="1.1" xmlns:xlink="http://www.w3.org/1999/xlink" width="29px" height="22px" xmlns="http://www.w3.org/2000/svg">
  <g transform="matrix(1 0 0 1 -9341 -5124 )">
    <path d="M 26.6311813186813 8.453125  C 27.2292811355311 8.046875  27.7539300976801 7.59375  28 7.09375  L 28 19.5  C 28.2051282051282 20.1875  27.9585431929182 20.7760416666667  27.4653731684982 21.265625  C 26.9722031440781 21.7552083333333  26.3793498168498 22  25.6868131868131 22  L 2.51831501831504 22  C 1.82577838827837 22  1.23292506105008 21.7552083333333  0.739755036630015 21.265625  C 0.246585012210005 20.7760416666667  0 20.1875  0 19.5  L 0 7.09375  C 0.461691086691076 7.60416666666666  0.991586538461547 8.05729166666666  1.58968635531136 8.453125  C 5.38814484126982 11.015625  7.99565018315019 12.8125  9.41220238095235 13.84375  C 10.0103021978022 14.28125  10.49560248779 14.6223958333333  10.8681032509157 14.8671875  C 11.2406040140415 15.1119791666667  11.7363972832723 15.3619791666667  12.3554830586081 15.6171875  C 12.9745688339438 15.8723958333333  13.5516826923077 16  14.0868246336996 16  L 14.1025641025641 16  L 14.1183035714286 16  C 14.6534455128205 16  15.2305593711844 15.8723958333333  15.8496451465201 15.6171875  C 16.4687309218559 15.3619791666667  16.9645241910867 15.1119791666667  17.3370249542124 14.8671875  C 17.7095257173382 14.6223958333333  18.194826007326 14.28125  18.7929258241758 13.84375  C 20.5767322954823 12.5625  23.1894841269841 10.765625  26.6311813186813 8.453125  Z M 27.4575034340659 0.734375  C 27.9559199481074 1.22395833333334  28.2051282051282 1.8125  28.2051282051282 2.5  C 28.2051282051282 3.32291666666666  27.9480502136752 4.109375  27.4338942307692 4.859375  C 26.9197382478632 5.609375  26.2796665140415 6.25  25.513679029304 6.78125  C 21.5683188339438 9.5  19.1129616910867 11.1927083333333  18.1476076007326 11.859375  C 18.0426778083028 11.9322916666667  17.8197019993895 12.0911458333333  17.4786801739926 12.3359375  C 17.1376583485958 12.5807291666667  16.8543479090354 12.7786458333333  16.6287488553114 12.9296875  C 16.4031498015873 13.0807291666667  16.1303323412698 13.25  15.8102964743589 13.4375  C 15.4902606074481 13.625  15.1885874542124 13.765625  14.905277014652 13.859375  C 14.6219665750916 13.953125  14.3596420940171 14  14.1183035714286 14  L 14.1025641025641 14  L 14.0868246336996 14  C 13.8454861111111 14  13.5831616300366 13.953125  13.2998511904761 13.859375  C 13.0165407509157 13.765625  12.7148675976801 13.625  12.3948317307692 13.4375  C 12.0747958638584 13.25  11.8019784035409 13.0807291666667  11.5763793498168 12.9296875  C 11.3507802960928 12.7786458333333  11.0674698565323 12.5807291666667  10.7264480311355 12.3359375  C 10.3854262057387 12.0911458333333  10.1624503968254 11.9322916666667  10.0575206043956 11.859375  C 9.10265949328448 11.1927083333333  7.72807921245419 10.2421875  5.93377976190476 9.0078125  C 4.13948031135533 7.7734375  3.06394993894992 7.03125  2.70718864468864 6.78125  C 2.0566239316239 6.34375  1.44278464590963 5.7421875  0.86567078754581 4.9765625  C 0.288556929181937 4.2109375  0 3.5  0 2.84375  C 0 2.03125  0.217729319291834 1.35416666666666  0.653187957875446 0.8125  C 1.08864659645911 0.270833333333343  1.71035561660563 0  2.51831501831504 0  L 25.6868131868131 0  C 26.3688568376068 0  26.9590869200244 0.244791666666657  27.4575034340659 0.734375  Z " fill-rule="nonzero" fill="#ffffff" stroke="none" transform="matrix(1 0 0 1 9341 5124 )" />
  </g>
</svg>