<?xml version="1.0" encoding="utf-8"?>
<svg version="1.1" xmlns:xlink="http://www.w3.org/1999/xlink" width="28px" height="30px" xmlns="http://www.w3.org/2000/svg">
  <g transform="matrix(1 0 0 1 -9603 -4771 )">
    <path d="M 13.6354166666667 28.1489158163265  C 13.8102297008547 28.1489158163265  13.8976362179487 28.0612244897959  13.8976362179487 27.8858418367347  C 13.8976362179487 27.7104591836734  13.8102297008547 27.6227678571429  13.6354166666667 27.6227678571429  C 12.9907936030983 27.6227678571429  12.4363085102831 27.3898377710459  11.9719613882211 26.923977598852  C 11.5076142661592 26.4581174266581  11.2754407051282 25.9018255739796  11.2754407051282 25.2551020408163  C 11.2754407051282 25.0797193877551  11.1880341880342 24.9920280612245  11.0132211538461 24.9920280612245  C 10.8384081196581 24.9920280612245  10.7510016025641 25.0797193877551  10.7510016025641 25.2551020408163  C 10.7510016025641 26.0552853954081  11.0323413294605 26.7376335299745  11.5950207832532 27.3021464445153  C 12.157700237046 27.8666593590561  12.8378321981838 28.1489158163265  13.6354166666667 28.1489158163265  Z M 25.7794596354167 21.7036033163265  C 26.2274180355235 22.2078284438775  26.7245426014957 22.6901307397959  27.2708333333333 23.1505102040816  C 27.2708333333333 23.7205038265306  27.0632428552351 24.2137675382653  26.6480618990385 24.6303013392857  C 26.2328809428419 25.0468351403061  25.741219284188 25.2551020408163  25.1730769230769 25.2551020408163  L 17.8309294871795 25.2551020408163  C 17.8309294871795 26.4170121173469  17.4212114383013 27.4090202487245  16.6017753405449 28.2311264349489  C 15.7823392427885 29.0532326211734  14.7935530181624 29.4642857142857  13.6354166666667 29.4642857142857  C 12.477280315171 29.4642857142857  11.4884940905449 29.0532326211734  10.6690579927885 28.2311264349489  C 9.84962189503204 27.4090202487245  9.43990384615384 26.4170121173469  9.43990384615384 25.2551020408163  L 2.09775641025641 25.2551020408163  C 1.52961404914529 25.2551020408163  1.03795239049145 25.0468351403061  0.622771434294862 24.6303013392857  C 0.207590478098268 24.2137675382653  0 23.7205038265306  0 23.1505102040816  C 0.546290731837644 22.6901307397959  1.04341529780984 22.2078284438775  1.49137369791669 21.7036033163265  C 1.9393320980235 21.1993781887755  2.40367922008548 20.54443359375  2.88441506410251 19.73876953125  C 3.36515090811969 18.93310546875  3.77213750333868 18.0644132653061  4.10537484975964 17.1326929209184  C 4.43861219618057 16.2009725765306  4.71175756209934 15.0719467474489  4.92481094751602 13.7456154336735  C 5.13786433293271 12.4192841198979  5.24439102564102 10.9943000637755  5.24439102564102 9.47066326530609  C 5.24439102564102 7.80452806122446  5.88355118189102 6.25622807716834  7.16187149439102 4.82576331313777  C 8.44019180689102 3.39529854910714  10.1173043536325 2.52660634566325  12.1932091346154 2.21968670280614  C 12.1058026175214 2.0114198022959  12.0620993589744 1.79767219387753  12.0620993589744 1.57844387755102  C 12.0620993589744 1.13998724489792  12.2150607638889 0.767299107142861  12.520983573718 0.460379464285722  C 12.826906383547 0.153459821428584  13.1983840811966 0  13.6354166666667 0  C 14.0724492521368 0  14.4439269497863 0.153459821428584  14.7498497596154 0.460379464285722  C 15.0557725694445 0.767299107142861  15.208733974359 1.13998724489792  15.208733974359 1.57844387755102  C 15.208733974359 1.79767219387753  15.165030715812 2.0114198022959  15.077624198718 2.21968670280614  C 17.1535289797009 2.52660634566325  18.8306415264423 3.39529854910714  20.1089618389423 4.82576331313777  C 21.3872821514423 6.25622807716834  22.0264423076923 7.80452806122446  22.0264423076923 9.47066326530609  C 22.0264423076923 10.9943000637755  22.1329690004006 12.4192841198979  22.3460223858173 13.7456154336735  C 22.559075771234 15.0719467474489  22.8322211371528 16.2009725765306  23.1654584835737 17.1326929209184  C 23.4986958299947 18.0644132653061  23.9056824252137 18.93310546875  24.3864182692308 19.73876953125  C 24.8671541132478 20.54443359375  25.3315012353098 21.1993781887755  25.7794596354167 21.7036033163265  Z " fill-rule="nonzero" fill="#33cccc" stroke="none" transform="matrix(1 0 0 1 9603 4771 )" />
  </g>
</svg>