<?xml version="1.0" encoding="utf-8"?>
<svg version="1.1" xmlns:xlink="http://www.w3.org/1999/xlink" width="36px" height="26px" xmlns="http://www.w3.org/2000/svg">
  <g transform="matrix(1 0 0 1 -9688 -4773 )">
    <path d="M 23.5456493078444 15.2159090909091  C 23.6692485168095 15.0681818181818  23.731048121292 14.9204545454546  23.731048121292 14.7727272727273  C 23.731048121292 14.6003787878788  23.6754284772577 14.4588068181818  23.5641891891892 14.3480113636363  C 23.4529499011206 14.2372159090909  23.3108108108108 14.1818181818182  23.1377719182597 14.1818181818182  L 18.9848384970336 14.1818181818182  L 18.9848384970336 7.68181818181819  C 18.9848384970336 7.52178030303031  18.9261288727752 7.3832859848485  18.8087096242584 7.26633522727275  C 18.6912903757416 7.14938446969694  18.5522412656559 7.09090909090909  18.3915622940013 7.09090909090909  L 14.8319050758075 7.09090909090909  C 14.6712261041529 7.09090909090909  14.5321769940672 7.14938446969694  14.4147577455504 7.26633522727275  C 14.2973384970336 7.3832859848485  14.2386288727752 7.52178030303031  14.2386288727752 7.68181818181819  L 14.2386288727752 14.1818181818182  L 10.0856954515491 14.1818181818182  C 9.92501647989451 14.1818181818182  9.78596736980884 14.2402935606061  9.66854812129199 14.3572443181818  C 9.55112887277519 14.4741950757576  9.4924192485168 14.6126893939394  9.4924192485168 14.7727272727273  C 9.4924192485168 14.9450757575757  9.54803889255106 15.0866477272727  9.65927818061962 15.1974431818182  L 16.185316413975 21.6974431818182  C 16.2965557020435 21.8082386363637  16.4386947923533 21.8636363636363  16.6117336849044 21.8636363636363  C 16.7847725774555 21.8636363636363  16.9269116677653 21.8082386363637  17.0381509558339 21.6974431818182  L 23.5456493078444 15.2159090909091  Z M 34.0484920896506 14.5049715909091  C 35.0805454845089 15.7914299242424  35.596572181938 17.2594696969697  35.596572181938 18.9090909090909  C 35.596572181938 20.8664772727273  34.9013266315095 22.5376420454546  33.5108355306526 23.9225852272727  C 32.1203444297957 25.3075284090909  30.4424851680949 26  28.4772577455504 26  L 8.30586684245219 26  C 6.01928147659856 26  4.06332399472646 25.1905776515151  2.43799439683588 23.5717329545454  C 0.81266479894532 21.9528882575758  0 20.0047348484849  0 17.7272727272727  C 0 16.1268939393939  0.432597231377741 14.6496212121212  1.29779169413314 13.2954545454546  C 2.16298615688862 11.9412878787879  3.3248187211602 10.9256628787879  4.78328938694793 10.2485795454546  C 4.7585695451549 9.87926136363635  4.74620962425843 9.61458333333334  4.74620962425843 9.45454545454544  C 4.74620962425843 6.84469696969694  5.67320369149638 4.61647727272725  7.5271918259723 2.76988636363637  C 9.38117996044826 0.923295454545439  11.6183256427159 0  14.2386288727752 0  C 16.1667765326302 0  17.9311552406065 0.535511363636374  19.531764996704 1.60653409090909  C 21.1323747528016 2.67755681818181  22.2972972972973 4.09943181818181  23.0265326301911 5.87215909090909  C 23.9040870138431 5.1089015151515  24.9299604482531 4.72727272727275  26.1041529334212 4.72727272727275  C 27.4143045484509 4.72727272727275  28.5328773895847 5.18892045454544  29.4598714568227 6.11221590909091  C 30.3868655240606 7.03551136363635  30.8503625576796 8.14962121212122  30.8503625576796 9.45454545454544  C 30.8503625576796 10.3901515151515  30.5969841793012 11.2395833333333  30.0902274225445 12.0028409090909  C 31.6970171390903 12.3844696969697  33.0164386947924 13.2185132575757  34.0484920896506 14.5049715909091  Z " fill-rule="nonzero" fill="#ff9999" stroke="none" transform="matrix(1 0 0 1 9688 4773 )" />
  </g>
</svg>