<?xml version="1.0" encoding="utf-8"?>
<svg version="1.1" xmlns:xlink="http://www.w3.org/1999/xlink" width="34px" height="26px" xmlns="http://www.w3.org/2000/svg">
  <g transform="matrix(1 0 0 1 -9779 -4773 )">
    <path d="M 6.52136535866293 18.2166193181818  C 6.99188233980749 17.7549715909091  7.22714083037971 17.1979166666667  7.22714083037971 16.5454545454546  C 7.22714083037971 15.8929924242424  6.99188233980749 15.3359375  6.52136535866293 14.8742897727273  C 6.05084837751838 14.4126420454546  5.48309122027069 14.1818181818182  4.81809388691983 14.1818181818182  C 4.15309655356884 14.1818181818182  3.58533939632122 14.4126420454546  3.11482241517666 14.8742897727273  C 2.64430543403211 15.3359375  2.40904694345994 15.8929924242424  2.40904694345994 16.5454545454546  C 2.40904694345994 17.1979166666667  2.64430543403211 17.7549715909091  3.11482241517666 18.2166193181818  C 3.58533939632122 18.6782670454546  4.15309655356884 18.9090909090909  4.81809388691983 18.9090909090909  C 5.48309122027069 18.9090909090909  6.05084837751838 18.6782670454546  6.52136535866293 18.2166193181818  Z M 10.1349357738528 9.94389204545456  C 10.6054527549973 9.48224431818181  10.8407112455696 8.92518939393938  10.8407112455696 8.27272727272725  C 10.8407112455696 7.62026515151516  10.6054527549973 7.06321022727275  10.1349357738528 6.6015625  C 9.66441879270826 6.13991477272725  9.09666163546052 5.90909090909091  8.43166430210965 5.90909090909091  C 7.76666696875873 5.90909090909091  7.19890981151104 6.13991477272725  6.72839283036654 6.6015625  C 6.25787584922205 7.06321022727275  6.02261735864971 7.62026515151516  6.02261735864971 8.27272727272725  C 6.02261735864971 8.92518939393938  6.25787584922205 9.48224431818181  6.72839283036654 9.94389204545456  C 7.19890981151104 10.4055397727273  7.76666696875873 10.6363636363637  8.43166430210965 10.6363636363637  C 9.09666163546052 10.6363636363637  9.66441879270826 10.4055397727273  10.1349357738528 9.94389204545456  Z M 20.2510508684598 18.8352272727273  C 19.9750142395217 18.1335227272727  19.5233179376229 17.5733901515151  18.8959619627635 17.1548295454546  L 20.7968505665874 10.1008522727273  C 20.8721332835705 9.78077651515153  20.8250815854561 9.48224431818181  20.6556954722441 9.20525568181819  C 20.486309359032 8.92826704545456  20.2447773087112 8.74668560606062  19.9310993212815 8.66051136363635  C 19.6174213338518 8.57433712121215  19.3162904659193 8.61434659090909  19.027706717484 8.78053977272725  C 18.7391229690488 8.94673295454544  18.5509161765909 9.18986742424244  18.4630863401106 9.50994318181819  L 16.5621977362869 16.5639204545454  C 15.8093705664556 16.6254734848485  15.1380996733561 16.8932291666667  14.5483850569883 17.3671875  C 13.9586704406204 17.8411458333333  13.5634361764591 18.4474431818182  13.3626822645042 19.1860795454546  C 13.1117398745604 20.1339962121212  13.2372110695322 21.0326704545454  13.7390958494197 21.8821022727273  C 14.2409806293072 22.7315340909091  14.9749871198927 23.2793560606061  15.941115321176 23.5255681818182  C 16.9072435224594 23.7717803030303  17.8231832457541 23.6486742424242  18.68893449106 23.15625  C 19.5546857363659 22.6638257575758  20.1130325539908 21.9436553030303  20.3639749439344 20.9957386363637  C 20.5647288558894 20.2571022727273  20.5270874973979 19.5369318181818  20.2510508684598 18.8352272727273  Z M 30.6118347932619 18.2166193181818  C 31.0823517744064 17.7549715909091  31.3176102649787 17.1979166666667  31.3176102649787 16.5454545454546  C 31.3176102649787 15.8929924242424  31.0823517744064 15.3359375  30.6118347932619 14.8742897727273  C 30.1413178121173 14.4126420454546  29.5735606548697 14.1818181818182  28.9085633215188 14.1818181818182  C 28.2435659881679 14.1818181818182  27.6758088309202 14.4126420454546  27.2052918497757 14.8742897727273  C 26.7347748686311 15.3359375  26.4995163780588 15.8929924242424  26.4995163780588 16.5454545454546  C 26.4995163780588 17.1979166666667  26.7347748686311 17.7549715909091  27.2052918497757 18.2166193181818  C 27.6758088309202 18.6782670454546  28.2435659881679 18.9090909090909  28.9085633215188 18.9090909090909  C 29.5735606548697 18.9090909090909  30.1413178121173 18.6782670454546  30.6118347932619 18.2166193181818  Z M 18.5666000759624 6.3984375  C 19.0371170571069 5.93678977272725  19.2723755476792 5.37973484848484  19.2723755476792 4.72727272727275  C 19.2723755476792 4.07481060606059  19.0371170571069 3.51775568181819  18.5666000759624 3.05610795454544  C 18.0960830948179 2.59446022727272  17.5283259375702 2.36363636363637  16.8633286042193 2.36363636363637  C 16.1983312708684 2.36363636363637  15.6305741136206 2.59446022727272  15.1600571324761 3.05610795454544  C 14.6895401513317 3.51775568181819  14.4542816607594 4.07481060606059  14.4542816607594 4.72727272727275  C 14.4542816607594 5.37973484848484  14.6895401513317 5.93678977272725  15.1600571324761 6.3984375  C 15.6305741136206 6.86008522727275  16.1983312708684 7.09090909090909  16.8633286042193 7.09090909090909  C 17.5283259375702 7.09090909090909  18.0960830948179 6.86008522727275  18.5666000759624 6.3984375  Z M 26.9982643780721 9.94389204545456  C 27.4687813592166 9.48224431818181  27.7040398497888 8.92518939393938  27.7040398497888 8.27272727272725  C 27.7040398497888 7.62026515151516  27.4687813592166 7.06321022727275  26.9982643780721 6.6015625  C 26.5277473969276 6.13991477272725  25.9599902396798 5.90909090909091  25.294992906329 5.90909090909091  C 24.629995572978 5.90909090909091  24.0622384157303 6.13991477272725  23.5917214345858 6.6015625  C 23.1212044534413 7.06321022727275  22.885945962869 7.62026515151516  22.885945962869 8.27272727272725  C 22.885945962869 8.92518939393938  23.1212044534413 9.48224431818181  23.5917214345858 9.94389204545456  C 24.0622384157303 10.4055397727273  24.629995572978 10.6363636363637  25.294992906329 10.6363636363637  C 25.9599902396798 10.6363636363637  26.5277473969276 10.4055397727273  26.9982643780721 9.94389204545456  Z M 32.3903889819882 10.1193181818182  C 33.2812344662884 12.1628787878788  33.7266572084386 14.3049242424243  33.7266572084386 16.5454545454546  C 33.7266572084386 19.7585227272727  32.8420852838869 22.7315340909091  31.0729414347835 25.4644886363637  C 30.834546164337 25.8214962121212  30.4957739379129 26  30.0566247555113 26  L 3.67003245292722 26  C 3.23088327052568 26  2.89211104410157 25.8214962121212  2.65371577365505 25.4644886363637  C 0.884571924551665 22.7438446969697  0 19.7708333333333  0 16.5454545454546  C 0 14.3049242424243  0.445422742150072 12.1628787878788  1.33626822645044 10.1193181818182  C 2.22711371075076 8.07575757575759  3.42536362273205 6.31534090909091  4.93101796239449 4.83806818181819  C 6.43667230205693 3.36079545454544  8.23091039015458 2.18513257575759  10.3137322266876 1.31107954545456  C 12.3965540632207 0.437026515151501  14.5797528557313 0  16.8633286042193 0  C 19.1469043527073 0  21.3301031452178 0.437026515151501  23.4129249817509 1.31107954545456  C 25.4957468182839 2.18513257575759  27.2899849063816 3.36079545454544  28.7956392460441 4.83806818181819  C 30.3012935857066 6.31534090909091  31.4995434976879 8.07575757575759  32.3903889819882 10.1193181818182  Z " fill-rule="nonzero" fill="#ffcc00" stroke="none" transform="matrix(1 0 0 1 9779 4773 )" />
  </g>
</svg>