<?xml version="1.0" encoding="utf-8"?>
<svg version="1.1" xmlns:xlink="http://www.w3.org/1999/xlink" width="33px" height="25px" xmlns="http://www.w3.org/2000/svg">
  <g transform="matrix(1 0 0 1 -9869 -4774 )">
    <path d="M 30.406773169931 9.60582386363635  C 31.0896676028254 9.14417613636365  31.6886978071188 8.62926136363635  32 8.06107954545456  L 32 22.1590909090909  C 32.2038637828111 22.9403409090909  31.9223195867933 23.6091382575758  31.3592311947575 24.1654829545455  C 30.7961428027217 24.7218276515152  30.1192386718702 25  29.328518802203 25  L 2.87534498060819 25  C 2.08462511094086 25  1.40772098008944 24.7218276515152  0.844632588053628 24.1654829545455  C 0.281544196017876 23.6091382575758  0 22.9403409090909  0 22.1590909090909  L 0 8.06107954545456  C 0.527146579778162 8.6410984848485  1.13216708611446 9.15601325757575  1.81506151900891 9.60582386363635  C 6.15204019809283 12.5177556818182  9.12922031343084 14.5596590909091  10.7466018650229 15.7315340909091  C 11.4294962979173 16.2286931818182  11.9835992368887 16.6163589015152  12.408910681937 16.89453125  C 12.8342221269853 17.1727035984848  13.4003056700425 17.4567945075758  14.1071613111087 17.7468039772727  C 14.8140169521748 18.0368134469697  15.4729501768975 18.1818181818182  16.0839609852768 18.1818181818182  L 16.1019318914056 18.1818181818182  L 16.1199027975344 18.1818181818182  C 16.7309136059136 18.1818181818182  17.3898468306363 18.0368134469697  18.0967024717024 17.7468039772727  C 18.8035581127687 17.4567945075758  19.3696416558259 17.1727035984848  19.7949531008742 16.89453125  C 20.2202645459224 16.6163589015152  20.7743674848938 16.2286931818182  21.4572619177883 15.7315340909091  C 23.4939646123856 14.2755681818182  26.4771350297665 12.2336647727273  30.406773169931 9.60582386363635  Z M 31.3502457416931 0.834517045454561  C 31.9193244357718 1.39086174242425  32.2038637828111 2.05965909090909  32.2038637828111 2.84090909090909  C 32.2038637828111 3.77604166666666  31.9103389827073 4.66974431818184  31.3232893824999 5.52201704545456  C 30.7362397822924 6.37428977272725  30.0054229330545 7.10227272727275  29.1308388347862 7.70596590909091  C 24.6261316985001 10.7954545454546  21.8226703424072 12.7189867424242  20.7204547665074 13.4765625  C 20.6006487256487 13.5594223484848  20.3460608888241 13.7399384469697  19.9566912560334 14.0181107954545  C 19.5673216232427 14.2962831439394  19.2438453129242 14.5211884469697  18.9862623250781 14.6928267045455  C 18.7286793372319 14.8644649621212  18.4171836309994 15.0568181818182  18.0517752063805 15.2698863636363  C 17.6863667817615 15.4829545454545  17.3419244142928 15.6427556818182  17.0184481039744 15.7492897727273  C 16.694971793656 15.8558238636363  16.3954566915093 15.9090909090909  16.1199027975344 15.9090909090909  L 16.1019318914056 15.9090909090909  L 16.0839609852768 15.9090909090909  C 15.8084070913018 15.9090909090909  15.5088919891551 15.8558238636363  15.1854156788367 15.7492897727273  C 14.8619393685183 15.6427556818182  14.5174970010496 15.4829545454545  14.1520885764307 15.2698863636363  C 13.7866801518118 15.0568181818182  13.4751844455792 14.8644649621212  13.217601457733 14.6928267045455  C 12.9600184698869 14.5211884469697  12.6365421595684 14.2962831439394  12.2471725267778 14.0181107954545  C 11.8578028939871 13.7399384469697  11.6032150571623 13.5594223484848  11.4834090163038 13.4765625  C 10.3931740444898 12.7189867424242  8.82371490924118 11.6388494318182  6.77503161055796 10.2361505681818  C 4.72634831187463 8.83345170454544  3.49833639307326 7.99005681818181  3.09099585415379 7.70596590909091  C 2.34819840082997 7.20880681818181  1.64733306180671 6.52521306818181  0.988399837084103 5.65518465909091  C 0.329466612361387 4.78515625  0 3.97727272727272  0 3.23153409090909  C 0 2.30823863636365  0.248597534781709 1.53882575757575  0.74579260434524 0.923295454545439  C 1.24298767390877 0.307765151515184  1.95283846599642 0  2.87534498060819 0  L 29.328518802203 0  C 30.1072580677844 0  30.7811670476144 0.278172348484816  31.3502457416931 0.834517045454561  Z " fill-rule="nonzero" fill="#99cc33" stroke="none" transform="matrix(1 0 0 1 9869 4774 )" />
  </g>
</svg>