<?xml version="1.0" encoding="utf-8"?>
<svg version="1.1" xmlns:xlink="http://www.w3.org/1999/xlink" width="33px" height="25px" xmlns="http://www.w3.org/2000/svg">
  <g transform="matrix(1 0 0 1 -9601 -4846 )">
    <path d="M 15.6842550265641 18.0582682291666  C 16.0762289785958 17.5971137152777  16.2722159546116 17.0193142361111  16.2722159546116 16.3248697916666  C 16.2722159546116 15.6304253472222  16.2245434469321 14.9929470486111  16.129198431573 14.4124348958334  C 16.033853416214 13.8319227430555  15.8775935299311 13.2731119791666  15.6604187727243 12.7360026041666  C 15.4432440155176 12.1988932291667  15.1227788250052 11.7757161458333  14.6990232011872 11.4664713541667  C 14.2752675773692 11.1572265625  13.7614638834899 11.0026041666666  13.1576121195492 11.0026041666666  C 13.0940487759765 11.0460069444444  12.9351404170447 11.1436631944444  12.680887042754 11.2955729166667  C 12.4266336684631 11.4474826388889  12.2279982197985 11.5641276041667  12.0849806967599 11.6455078125  C 11.9419631737213 11.7268880208333  11.7539216156521 11.8218315972222  11.5208560225522 11.9303385416667  C 11.2877904294523 12.0388454861111  11.0600217816501 12.1175130208333  10.8375500791456 12.1663411458333  C 10.6150783766412 12.2151692708333  10.3926066741367 12.2395833333333  10.1701349716323 12.2395833333333  C 9.94766326912779 12.2395833333333  9.72519156662332 12.2151692708333  9.50271986411889 12.1663411458333  C 9.28024816161442 12.1175130208333  9.05247951381224 12.0388454861111  8.81941392071235 11.9303385416667  C 8.58634832761243 11.8218315972222  8.39830676954318 11.7268880208333  8.25528924650465 11.6455078125  C 8.11227172346602 11.5641276041667  7.91363627480135 11.4474826388889  7.65938290051054 11.2955729166667  C 7.40512952621972 11.1436631944444  7.24622116728801 11.0460069444444  7.18265782371529 11.0026041666666  C 6.57880605977459 11.0026041666666  6.06500236589528 11.1572265625  5.64124674207727 11.4664713541667  C 5.21749111825923 11.7757161458333  4.89702592774688 12.1988932291667  4.67985117054016 12.7360026041666  C 4.46267641333344 13.2731119791666  4.30641652705054 13.8319227430555  4.21107151169147 14.4124348958334  C 4.1157264963324 14.9929470486111  4.06805398865291 15.6304253472222  4.06805398865291 16.3248697916666  C 4.06805398865291 17.0193142361111  4.26404096466874 17.5971137152777  4.6560149167004 18.0582682291666  C 5.04798886873203 18.5194227430556  5.53001089082505 18.75  6.10208098297932 18.75  L 14.2381889602852 18.75  C 14.8102590524395 18.75  15.2922810745325 18.5194227430556  15.6842550265641 18.0582682291666  Z M 12.7206141324869 10.4736328125  C 13.4251078570843 9.75206163194443  13.7773547193831 8.8812934027778  13.7773547193831 7.861328125  C 13.7773547193831 6.8413628472222  13.4251078570843 5.97059461805554  12.7206141324869 5.2490234375  C 12.0161204078894 4.52745225694446  11.1659606876046 4.16666666666663  10.1701349716323 4.16666666666663  C 9.17430925565992 4.16666666666663  8.32414953537506 4.52745225694446  7.6196558107776 5.2490234375  C 6.91516208618015 5.97059461805554  6.56291522388145 6.8413628472222  6.56291522388145 7.861328125  C 6.56291522388145 8.8812934027778  6.91516208618015 9.75206163194443  7.6196558107776 10.4736328125  C 8.32414953537506 11.1952039930556  9.17430925565992 11.5559895833333  10.1701349716323 11.5559895833333  C 11.1659606876046 11.5559895833333  12.0161204078894 11.1952039930556  12.7206141324869 10.4736328125  Z M 28.3333603975317 16.5201822916666  C 28.4287054128908 16.4225260416666  28.4763779205703 16.2977430555556  28.4763779205703 16.1458333333334  L 28.4763779205703 15.1041666666666  C 28.4763779205703 14.9522569444444  28.4287054128908 14.8274739583334  28.3333603975317 14.7298177083334  C 28.2380153821726 14.6321614583334  28.116185640325 14.5833333333334  27.9678711719887 14.5833333333334  L 18.8147496975196 14.5833333333334  C 18.6664352291834 14.5833333333334  18.5446054873357 14.6321614583334  18.4492604719766 14.7298177083334  C 18.3539154566176 14.8274739583334  18.306242948938 14.9522569444444  18.306242948938 15.1041666666666  L 18.306242948938 16.1458333333334  C 18.306242948938 16.2977430555556  18.3539154566176 16.4225260416666  18.4492604719766 16.5201822916666  C 18.5446054873357 16.6178385416666  18.6664352291834 16.6666666666666  18.8147496975196 16.6666666666666  L 27.9678711719887 16.6666666666666  C 28.116185640325 16.6666666666666  28.2380153821726 16.6178385416666  28.3333603975317 16.5201822916666  Z M 28.309524143692 12.3291015625  C 28.4207599949442 12.2151692708333  28.4763779205703 12.0768229166667  28.4763779205703 11.9140625  L 28.4763779205703 11.0026041666666  C 28.4763779205703 10.83984375  28.4207599949442 10.7014973958334  28.309524143692 10.5875651041666  C 28.1982882924397 10.4736328125  28.0632161873477 10.4166666666666  27.904307828416 10.4166666666666  L 18.8783130410924 10.4166666666666  C 18.7194046821606 10.4166666666666  18.5843325770686 10.4736328125  18.4730967258164 10.5875651041666  C 18.3618608745641 10.7014973958334  18.306242948938 10.83984375  18.306242948938 11.0026041666666  L 18.306242948938 11.9140625  C 18.306242948938 12.0768229166667  18.3618608745641 12.2151692708333  18.4730967258164 12.3291015625  C 18.5843325770686 12.4430338541667  18.7194046821606 12.5  18.8783130410924 12.5  L 27.904307828416 12.5  C 28.0632161873477 12.5  28.1982882924397 12.4430338541667  28.309524143692 12.3291015625  Z M 28.3333603975317 8.18684895833337  C 28.4287054128908 8.08919270833337  28.4763779205703 7.9644097222222  28.4763779205703 7.8125  L 28.4763779205703 6.77083333333337  C 28.4763779205703 6.61892361111111  28.4287054128908 6.494140625  28.3333603975317 6.396484375  C 28.2380153821726 6.298828125  28.116185640325 6.25  27.9678711719887 6.25  L 18.8147496975196 6.25  C 18.6664352291834 6.25  18.5446054873357 6.298828125  18.4492604719766 6.396484375  C 18.3539154566176 6.494140625  18.306242948938 6.61892361111111  18.306242948938 6.77083333333337  L 18.306242948938 7.8125  C 18.306242948938 7.9644097222222  18.3539154566176 8.08919270833337  18.4492604719766 8.18684895833337  C 18.5446054873357 8.28450520833337  18.6664352291834 8.33333333333337  18.8147496975196 8.33333333333337  L 27.9678711719887 8.33333333333337  C 28.116185640325 8.33333333333337  28.2380153821726 8.28450520833337  28.3333603975317 8.18684895833337  Z M 31.797562622244 0.764973958333371  C 32.2954754802301 1.2749565972222  32.5444319092232 1.88802083333337  32 2.60416666666663  L 32 22.3958333333333  C 32.5444319092232 23.1119791666667  32.2954754802301 23.7250434027778  31.797562622244 24.2350260416667  C 31.2996497642578 24.7450086805556  30.7010949456148 25  30.0018981663151 25  L 24.4083239319174 25  L 24.4083239319174 23.4375  C 24.4083239319174 23.2855902777778  24.3606514242379 23.1608072916667  24.2653064088788 23.0631510416667  C 24.1699613935198 22.9654947916667  24.0481316516721 22.9166666666667  23.8998171833358 22.9166666666667  L 22.8828036861726 22.9166666666667  C 22.7344892178363 22.9166666666667  22.6126594759886 22.9654947916667  22.5173144606295 23.0631510416667  C 22.4219694452705 23.1608072916667  22.3742969375909 23.2855902777778  22.3742969375909 23.4375  L 22.3742969375909 25  L 10.1701349716323 25  L 10.1701349716323 23.4375  C 10.1701349716323 23.2855902777778  10.1224624639527 23.1608072916667  10.0271174485937 23.0631510416667  C 9.93177243323461 22.9654947916667  9.80994269138696 22.9166666666667  9.66162822305063 22.9166666666667  L 8.64461472588741 22.9166666666667  C 8.49630025755113 22.9166666666667  8.37447051570342 22.9654947916667  8.27912550034441 23.0631510416667  C 8.18378048498531 23.1608072916667  8.13610797730578 23.2855902777778  8.13610797730578 23.4375  L 8.13610797730578 25  L 2.54253374290806 25  C 1.84333696360835 25  1.2447821449654 24.7450086805556  0.746869286979233 24.2350260416667  C 0.248956428993097 23.7250434027778  0 23.1119791666667  0 22.3958333333333  L 0 2.60416666666663  C 0 1.88802083333337  0.248956428993097 1.2749565972222  0.746869286979233 0.764973958333371  C 1.2447821449654 0.254991319444457  1.84333696360835 0  2.54253374290806 0  L 30.0018981663151 0  C 30.7010949456148 0  31.2996497642578 0.254991319444457  31.797562622244 0.764973958333371  Z " fill-rule="nonzero" fill="#cccc99" stroke="none" transform="matrix(1 0 0 1 9601 4846 )" />
  </g>
</svg>