<?xml version="1.0" encoding="utf-8"?>
<svg version="1.1" xmlns:xlink="http://www.w3.org/1999/xlink" width="34px" height="26px" xmlns="http://www.w3.org/2000/svg">
  <g transform="matrix(1 0 0 1 -9689 -4845 )">
    <path d="M 7.02132290237915 17.43625  C 7.52940939416021 16.9270833333333  7.78345264005077 16.315  7.78345264005077 15.6  C 7.78345264005077 14.885  7.52940939416021 14.2729166666667  7.02132290237915 13.76375  C 6.51323641059804 13.2545833333333  5.90245158537181 13  5.18896842670051 13  C 4.47548526802919 13  3.86470044280301 13.2545833333333  3.35661395102193 13.76375  C 2.84852745924081 14.2729166666667  2.59448421335026 14.885  2.59448421335026 15.6  C 2.59448421335026 16.315  2.84852745924081 16.9270833333333  3.35661395102193 17.43625  C 3.86470044280301 17.9454166666667  4.47548526802919 18.2  5.18896842670051 18.2  C 5.90245158537181 18.2  6.51323641059804 17.9454166666667  7.02132290237915 17.43625  Z M 9.81039343173066 4.59875000000002  L 8.36721158805457 10.4  L 24.8421863428287 10.4  L 23.3990044991526 4.59875000000002  C 23.3773837973747 4.51208333333335  23.301711341152 4.41729166666667  23.1719871304845 4.31437500000001  C 23.0422629198169 4.21145833333333  22.9287542354829 4.16  22.8314610774823 4.16  L 10.377936853401 4.16  C 10.2806436954004 4.16  10.1671350110663 4.21145833333333  10.0374108003988 4.31437500000001  C 9.9076865897313 4.41729166666667  9.83201413350855 4.51208333333335  9.81039343173066 4.59875000000002  Z M 29.8527839798614 17.43625  C 30.3608704716425 16.9270833333333  30.6149137175331 16.315  30.6149137175331 15.6  C 30.6149137175331 14.885  30.3608704716425 14.2729166666667  29.8527839798614 13.76375  C 29.3446974880803 13.2545833333333  28.7339126628541 13  28.0204295041828 13  C 27.3069463455115 13  26.6961615202853 13.2545833333333  26.1880750285042 13.76375  C 25.6799885367231 14.2729166666667  25.4259452908325 14.885  25.4259452908325 15.6  C 25.4259452908325 16.315  25.6799885367231 16.9270833333333  26.1880750285042 17.43625  C 26.6961615202853 17.9454166666667  27.3069463455115 18.2  28.0204295041828 18.2  C 28.7339126628541 18.2  29.3446974880803 17.9454166666667  29.8527839798614 17.43625  Z M 32.1472809560431 11.464375  C 32.8553589392698 12.1739583333333  33.2093979308833 13.0325  33.2093979308833 14.04  L 33.2093979308833 20.28  C 33.2093979308833 20.4316666666667  33.160751351883 20.55625  33.0634581938824 20.65375  C 32.9661650358817 20.75125  32.8418460006587 20.8  32.6905010882132 20.8  L 31.1338105602031 20.8  L 31.1338105602031 22.88  C 31.1338105602031 23.7466666666667  30.8311207353122 24.4833333333333  30.2257410855305 25.09  C 29.6203614357488 25.6966666666667  28.8852575752995 26  28.0204295041828 26  C 27.155601433066 26  26.4204975726168 25.6966666666667  25.815117922835 25.09  C 25.2097382730533 24.4833333333333  24.9070484481624 23.7466666666667  24.9070484481624 22.88  L 24.9070484481624 20.8  L 8.30234948272081 20.8  L 8.30234948272081 22.88  C 8.30234948272081 23.7466666666667  7.99965965782994 24.4833333333333  7.39428000804824 25.09  C 6.78890035826652 25.6966666666667  6.05379649781727 26  5.18896842670051 26  C 4.32414035558375 26  3.58903649513454 25.6966666666667  2.98365684535278 25.09  C 2.37827719557109 24.4833333333333  2.07558737068015 23.7466666666667  2.07558737068015 22.88  L 2.07558737068015 20.8  L 0.518896842670074 20.8  C 0.367551930224636 20.8  0.243232895001569 20.75125  0.145939737000958 20.65375  C 0.0486465790003194 20.55625  0 20.4316666666667  0 20.28  L 0 14.04  C 0 13.0325  0.354038991613407 12.1739583333333  1.06211697484025 11.464375  C 1.77019495806707 10.7547916666667  2.62691526601714 10.4  3.63227789869035 10.4  L 4.08631263602666 10.4  L 5.78894290103773 3.59125  C 6.03758097148383 2.57291666666669  6.59971921770972 1.71979166666668  7.47535763971541 1.03187499999999  C 8.3509960617211 0.343958333333347  9.31852246628301 0  10.377936853401 0  L 22.8314610774823 0  C 23.8908754646003 0  24.8584018691622 0.343958333333347  25.7340402911678 1.03187499999999  C 26.6096787131736 1.71979166666668  27.1718169593995 2.57291666666669  27.4204550298455 3.59125  L 29.1230852948567 10.4  L 29.5771200321929 10.4  C 30.5824826648662 10.4  31.4392029728162 10.7547916666667  32.1472809560431 11.464375  Z " fill-rule="nonzero" fill="#33ccff" stroke="none" transform="matrix(1 0 0 1 9689 4845 )" />
  </g>
</svg>