<?xml version="1.0" encoding="utf-8"?>
<svg version="1.1" xmlns:xlink="http://www.w3.org/1999/xlink" width="32px" height="26px" xmlns="http://www.w3.org/2000/svg">
  <g transform="matrix(1 0 0 1 -9781 -4845 )">
    <path d="M 22.7425609370054 9.10369318181816  C 22.9832229575028 8.86979166666669  23.1035539677515 8.59280303030306  23.1035539677515 8.27272727272728  C 23.1035539677515 7.9526515151515  22.9832229575028 7.67566287878787  22.7425609370054 7.44176136363637  C 22.501898916508 7.20785984848484  22.2169044185505 7.09090909090909  21.887577443133 7.09090909090909  L 19.455624393896 7.09090909090909  L 19.455624393896 4.72727272727272  C 19.455624393896 4.40719696969694  19.3352933836474 4.13020833333331  19.0946313631499 3.89630681818184  C 18.8539693426525 3.66240530303031  18.568974844695 3.54545454545456  18.2396478692775 3.54545454545456  C 17.9103208938599 3.54545454545456  17.6253263959025 3.66240530303031  17.3846643754051 3.89630681818184  C 17.1440023549077 4.13020833333331  17.023671344659 4.40719696969694  17.023671344659 4.72727272727272  L 17.023671344659 7.09090909090909  L 14.591718295422 7.09090909090909  C 14.2623913200045 7.09090909090909  13.977396822047 7.20785984848484  13.7367348015496 7.44176136363637  C 13.4960727810522 7.67566287878787  13.3757417708035 7.9526515151515  13.3757417708035 8.27272727272728  C 13.3757417708035 8.59280303030306  13.4960727810522 8.86979166666669  13.7367348015496 9.10369318181816  C 13.977396822047 9.33759469696969  14.2623913200045 9.45454545454544  14.591718295422 9.45454545454544  L 17.023671344659 9.45454545454544  L 17.023671344659 11.8181818181818  C 17.023671344659 12.1382575757576  17.1440023549077 12.4152462121212  17.3846643754051 12.6491477272727  C 17.6253263959025 12.8830492424242  17.9103208938599 13  18.2396478692775 13  C 18.568974844695 13  18.8539693426525 12.8830492424242  19.0946313631499 12.6491477272727  C 19.3352933836474 12.4152462121212  19.455624393896 12.1382575757576  19.455624393896 11.8181818181818  L 19.455624393896 9.45454545454544  L 21.887577443133 9.45454545454544  C 22.2169044185505 9.45454545454544  22.501898916508 9.33759469696969  22.7425609370054 9.10369318181816  Z M 11.4472790012913 21.9651988636364  C 11.9222698312204 22.4268465909091  12.159765246185 22.9839015151515  12.159765246185 23.6363636363636  C 12.159765246185 24.2888257575758  11.9222698312204 24.8458806818182  11.4472790012913 25.3075284090909  C 10.9722881713622 25.7691761363637  10.3991325699145 26  9.72781219694798 26  C 9.05649182398156 26  8.48333622253375 25.7691761363637  8.00834539260461 25.3075284090909  C 7.53335456267564 24.8458806818182  7.29585914771098 24.2888257575758  7.29585914771098 23.6363636363636  C 7.29585914771098 22.9839015151515  7.53335456267564 22.4268465909091  8.00834539260461 21.9651988636364  C 8.48333622253375 21.5035511363636  9.05649182398156 21.2727272727273  9.72781219694798 21.2727272727273  C 10.3991325699145 21.2727272727273  10.9722881713622 21.5035511363636  11.4472790012913 21.9651988636364  Z M 28.4709503459504 21.9651988636364  C 28.9459411758795 22.4268465909091  29.183436590844 22.9839015151515  29.183436590844 23.6363636363636  C 29.183436590844 24.2888257575758  28.9459411758795 24.8458806818182  28.4709503459504 25.3075284090909  C 27.9959595160212 25.7691761363637  27.4228039145735 26  26.751483541607 26  C 26.0801631686405 26  25.5070075671928 25.7691761363637  25.0320167372636 25.3075284090909  C 24.5570259073345 24.8458806818182  24.31953049237 24.2888257575758  24.31953049237 23.6363636363636  C 24.31953049237 22.9839015151515  24.5570259073345 22.4268465909091  25.0320167372636 21.9651988636364  C 25.5070075671928 21.5035511363636  26.0801631686405 21.2727272727273  26.751483541607 21.2727272727273  C 27.4228039145735 21.2727272727273  27.9959595160212 21.5035511363636  28.4709503459504 21.9651988636364  Z M 31.2543966093348 2.71448863636363  C 31.4950586298323 2.94839015151516  31.615389640081 3.22537878787875  31.615389640081 3.54545454545456  L 31.615389640081 13  C 31.615389640081 13.2954545454546  31.5140582630295 13.5570549242424  31.3113955089264 13.7848011363636  C 31.1087327548233 14.0125473484848  30.8490711011287 14.1448863636364  30.5324105478426 14.1818181818182  L 10.6967934900034 16.4346590909091  C 10.7094599121348 16.5208333333333  10.7379593619305 16.6531723484849  10.7822918393906 16.8316761363636  C 10.8266243168507 17.0101799242424  10.864623583245 17.1732954545454  10.8962896385735 17.3210227272727  C 10.9279556939022 17.46875  10.9437887215665 17.6041666666667  10.9437887215665 17.7272727272727  C 10.9437887215665 17.9242424242424  10.7917916559892 18.3181818181818  10.4877975248345 19  L 27.9674600662255 19  C 28.296787041643 18.9090909090909  28.5817815396005 19.0260416666667  28.8224435600979 19.2599431818182  C 29.0631055805953 19.4938446969697  29.183436590844 19.7708333333333  29.183436590844 20.0909090909091  C 29.183436590844 20.4109848484849  29.0631055805953 20.6879734848485  28.8224435600979 20.921875  C 28.5817815396005 21.1557765151515  28.296787041643 21.2727272727273  27.9674600662255 21  L 8.51183567232948 21  C 8.18250869691195 21.2727272727273  7.89751419895452 21.1557765151515  7.65685217845714 20.921875  C 7.4161901579597 20.6879734848485  7.29585914771098 20.4109848484849  7.29585914771098 20.0909090909091  C 7.29585914771098 19.9185606060606  7.36552446943392 19.6754261363636  7.50485511287985 19.3615056818182  C 7.64418575632567 19.0475852272727  7.83101548276449 18.6813446969697  8.06534429219613 18.2627840909091  C 8.29967310162783 17.8442234848485  8.42950392847513 17.6103219696969  8.45483677273802 17.5610795454546  L 5.09190169683995 2.36363636363637  L 1.2159765246185 2.36363636363637  C 0.886649549200968 2.36363636363637  0.60165505124354 2.24668560606059  0.360993030746158 2.01278409090909  C 0.120331010248719 1.77888257575756  0 1.50189393939397  0 1.18181818181816  C 0 0.861742424242436  0.120331010248719 0.584753787878753  0.360993030746158 0.35085227272728  C 0.60165505124354 0.116950757575751  0.886649549200968 0  1.2159765246185 0  L 6.07988262309249 0  C 6.2825453771955 0  6.46304189256864 0.0400094696969404  6.62137216921167 0.120028409090907  C 6.77970244585475 0.200047348484844  6.90636666716915 0.295454545454561  7.00136483315498 0.40625  C 7.09636299914081 0.517045454545439  7.17869474299516 0.667850378787875  7.2483600647181 0.85866477272728  C 7.31802538644098 1.04947916666669  7.36552446943392 1.21259469696969  7.39085731369676 1.34801136363637  C 7.4161901579597 1.48342803030306  7.45102281882117 1.66500946969694  7.49535529628128 1.89275568181816  C 7.53968777374126 2.12050189393941  7.56818722353705 2.27746212121212  7.58085364566847 2.36363636363637  L 30.3994131154625 2.36363636363637  C 30.72874009088 2.36363636363637  31.0137345888375 2.48058712121212  31.2543966093348 2.71448863636363  Z " fill-rule="nonzero" fill="#cc99cc" stroke="none" transform="matrix(1 0 0 1 9781 4845 )" />
  </g>
</svg>