<?xml version="1.0" encoding="utf-8"?>
<svg version="1.1" xmlns:xlink="http://www.w3.org/1999/xlink" width="35px" height="26px" xmlns="http://www.w3.org/2000/svg">
  <g transform="matrix(1 0 0 1 -9868 -4845 )">
    <path d="M 29.6376543040866 9.60227272727272  C 30.325759047465 8.91287878787875  30.6698114191543 8.07575757575756  30.6698114191543 7.09090909090909  C 30.6698114191543 6.10606060606059  30.325759047465 5.26893939393941  29.6376543040866 4.57954545454544  C 28.9495495607082 3.8901515151515  28.1139938008915 3.54545454545456  27.1309870246365 3.54545454545456  L 25.9513788931306 3.54545454545456  L 25.9513788931306 10.6363636363636  L 27.1309870246365 10.6363636363636  C 28.1139938008915 10.6363636363636  28.9495495607082 10.2916666666667  29.6376543040866 9.60227272727272  Z M 1.38235327910849 24.6150568181818  C 0.460784426369514 23.6917613636364  0 22.5776515151515  0 21  L 33.0290276821661 21  C 33.0290276821661 22.5776515151515  32.5682432557966 23.6917613636364  31.6466744030577 24.6150568181818  C 30.7251055503186 25.5383522727273  29.6130791346802 26  28.3105951561424 26  L 4.71843252602372 26  C 3.41594854748598 26  2.30392213184757 25.5383522727273  1.38235327910849 24.6150568181818  Z M 32.1351058950092 2.07741477272728  C 33.5174591741178 3.46235795454544  34.2086358136721 5.13352272727272  34.2086358136721 7.09090909090909  C 34.2086358136721 9.04829545454544  33.5174591741178 10.7194602272727  32.1351058950092 12.1044034090909  C 30.7527526159008 13.4893465909091  29.0847129924431 14.1818181818182  27.1309870246365 14.1818181818182  L 25.9513788931306 14.1818181818182  L 25.9513788931306 14.7727272727273  C 25.9513788931306 15.9053030303031  25.5458885979254 16.8778409090909  24.7349080075151 17.6903409090909  C 23.9239274171048 18.5028409090909  22.953208225553 18.9090909090909  21.8227504328598 19  L 8.84706098629459 19  C 7.71660319360132 18.9090909090909  6.74588400204959 18.5028409090909  5.9349034116392 17.6903409090909  C 5.12392282122892 16.8778409090909  4.71843252602372 15.9053030303031  5 14.7727272727273  L 5 1.18181818181816  C 4.71843252602372 0.861742424242436  4.83516458070403 0.584753787878753  5.06862869006454 0.35085227272728  C 5.30209279942517 0.116950757575751  5.57856345524687 0  5.89804065752963 0  L 27.1309870246365 0  C 29.0847129924431 0  30.7527526159008 0.692471590909093  32.1351058950092 2.07741477272728  Z " fill-rule="nonzero" fill="#99cccc" stroke="none" transform="matrix(1 0 0 1 9868 4845 )" />
  </g>
</svg>