<?xml version="1.0" encoding="utf-8"?>
<svg version="1.1" xmlns:xlink="http://www.w3.org/1999/xlink" width="17px" height="17px" xmlns="http://www.w3.org/2000/svg">
  <g transform="matrix(1 0 0 1 -1285 -1160 )">
    <path d="M 13.9557130991932 8.68551587301591  C 15.140751067869 7.36441798941798  15.7332700522069 6.11359126984126  15.7332700522069 4.93303571428571  C 15.7332700522069 4.36383928571429  15.6655085726151 3.86140046296298  15.5299856134314 3.42571924603174  C 15.3944626542478 2.99003802910053  15.2211193343617 2.64395254629629  15.0099556537731 2.38746279761904  C 14.7987919731846 2.13097304894179  14.5419286900807 1.92191633597884  14.2393658044613 1.76029265873015  C 13.936802918842 1.59866898148149  13.640543426673 1.48974867724869  13.3505873279544 1.43353174603174  C 13.0606312292359 1.37731481481482  12.7517649501661 1.34920634920636  12.4239884907451 1.34920634920636  C 12.0962120313242 1.34920634920636  11.7432219981016 1.43880208333333  11.3650183910774 1.6179935515873  C 10.9868147840531 1.79718501984126  10.6385522959184 2.02205274470899  10.320230926673 2.29259672619048  C 10.0019095574276 2.56314070767197  9.7292877906977 2.81611689814816  9.50236562648323 3.05152529761904  C 9.27544346226861 3.28693369708995  9.08634165875655 3.50301752645503  8.93506021594686 3.69977678571429  C 8.82159913383957 3.85437334656086  8.66716599430473 3.93167162698414  8.4717607973422 3.93167162698414  C 8.27635560037966 3.93167162698414  8.12192246084483 3.85437334656086  8.00846137873754 3.69977678571429  C 7.85717993592785 3.50301752645503  7.66807813241579 3.28693369708995  7.44115596820122 3.05152529761904  C 7.2142338039867 2.81611689814816  6.9416120372568 2.56314070767197  6.62329066801141 2.29259672619048  C 6.30496929876603 2.02205274470899  5.95670681063125 1.79718501984126  5.57850320360704 1.6179935515873  C 5.20029959658282 1.43880208333333  4.84730956336021 1.34920634920636  4.51953310393926 1.34920634920636  C 4.19175664451826 1.34920634920636  3.88289036544849 1.37731481481482  3.59293426672995 1.43353174603174  C 3.30297816801141 1.48974867724869  3.00671867584245 1.59866898148149  2.70415579022306 1.76029265873015  C 2.40159290460366 1.92191633597884  2.14472962149975 2.13097304894179  1.93356594091127 2.38746279761904  C 1.72240226032275 2.64395254629629  1.54905894043663 2.99003802910053  1.41353598125298 3.42571924603174  C 1.27801302206927 3.86140046296298  1.21025154247747 4.36383928571429  1.21025154247747 4.93303571428571  C 1.21025154247747 6.11359126984126  1.79961883009017 7.36090443121692  2.9783534053156 8.67497519841273  L 8.4717607973422 14.5777529761905  L 13.9557130991932 8.68551587301591  Z M 15.7427251423825 1.30704365079366  C 16.5432561105838 2.17840608465609  16.9435215946844 3.3870701058201  16.9435215946844 4.93303571428571  C 16.9435215946844 6.48602843915343  16.2217830446132 8.06712962962965  14.7783059444708 9.67633928571429  L 8.88778476506883 16.0007440476191  C 8.77432368296154 16.1272321428572  8.6356490270527 16.1904761904762  8.4717607973422 16.1904761904762  C 8.3078725676317 16.1904761904762  8.16919791172286 16.1272321428572  8.05573682961557 16.0007440476191  L 2.15576056003796 9.65525793650793  C 2.09272662553389 9.59904100529101  2.00605496559091 9.50768849206348  1.89574558020881 9.3812003968254  C 1.78543619482681 9.25471230158732  1.61051702657806 9.02457423941798  1.37098807546273 8.69078621031747  C 1.13145912434746 8.35699818121692  0.917143747033694 8.01442625661379  0.728041943521586 7.66307043650793  C 0.538940140009478 7.31171461640212  0.370324365211195 6.88657407407409  0.222194619126736 6.38764880952384  C 0.0740648730422777 5.88872354497354  0 5.40385251322753  0 4.93303571428571  C 0 3.3870701058201  0.400265484100635 2.17840608465609  1.2007964523019 1.30704365079366  C 2.00132742050308 0.435681216931212  3.10757297104888 0  4.51953310393926 0  C 4.91034349786428 0  5.30903313360227 0.0755415013227526  5.71560201115333 0.226624503968258  C 6.12217088870435 0.377707506613763  6.50037449572856 0.581493882275126  6.85021283222593 0.837983630952373  C 7.20005116872325 1.09447337962962  7.50103820598005 1.33515211640212  7.75317394399618 1.56001984126985  C 8.00530968201231 1.78488756613758  8.24483863312768 2.02380952380952  8.4717607973422 2.27678571428571  C 8.69868296155672 2.02380952380952  8.93821191267209 1.78488756613758  9.19034765068822 1.56001984126985  C 9.44248338870435 1.33515211640212  9.74347042596114 1.09447337962962  10.0933087624585 0.837983630952373  C 10.4431470989558 0.581493882275126  10.8213507059801 0.377707506613763  11.2279195835311 0.226624503968258  C 11.6344884610821 0.0755415013227526  12.0331780968201 0  12.4239884907451 0  C 13.8359486236355 0  14.9421941741813 0.435681216931212  15.7427251423825 1.30704365079366  Z " fill-rule="nonzero" fill="#ffffff" stroke="none" transform="matrix(1 0 0 1 1285 1160 )" />
  </g>
</svg>