<?xml version="1.0" encoding="utf-8"?>
<svg version="1.1" xmlns:xlink="http://www.w3.org/1999/xlink" width="20px" height="19px" xmlns="http://www.w3.org/2000/svg">
  <g transform="matrix(1 0 0 1 -1797 -1161 )">
    <path d="M 6.72433035714286 9.22225913621262  C 7.00334821428571 8.90664451827242  7.14285714285714 8.52580287929125  7.14285714285714 8.0797342192691  C 7.14285714285714 7.63366555924695  7.00334821428571 7.25282392026578  6.72433035714286 6.93720930232558  C 6.4453125 6.62159468438538  6.10863095238095 6.46378737541528  5.71428571428571 6.46378737541528  C 5.31994047619048 6.46378737541528  4.98325892857143 6.62159468438538  4.70424107142857 6.93720930232558  C 4.42522321428571 7.25282392026578  4.28571428571429 7.63366555924695  4.28571428571429 8.0797342192691  C 4.28571428571429 8.52580287929125  4.42522321428571 8.90664451827242  4.70424107142857 9.22225913621262  C 4.98325892857143 9.53787375415282  5.31994047619048 9.69568106312292  5.71428571428571 9.69568106312292  C 6.10863095238095 9.69568106312292  6.4453125 9.53787375415282  6.72433035714286 9.22225913621262  Z M 11.0100446428571 9.22225913621262  C 11.2890625 8.90664451827242  11.4285714285714 8.52580287929125  11.4285714285714 8.0797342192691  C 11.4285714285714 7.63366555924695  11.2890625 7.25282392026578  11.0100446428571 6.93720930232558  C 10.7310267857143 6.62159468438538  10.3943452380952 6.46378737541528  10 6.46378737541528  C 9.60565476190476 6.46378737541528  9.26897321428572 6.62159468438538  8.98995535714286 6.93720930232558  C 8.7109375 7.25282392026578  8.57142857142857 7.63366555924695  8.57142857142857 8.0797342192691  C 8.57142857142857 8.52580287929125  8.7109375 8.90664451827242  8.98995535714286 9.22225913621262  C 9.26897321428572 9.53787375415282  9.60565476190476 9.69568106312292  10 9.69568106312292  C 10.3943452380952 9.69568106312292  10.7310267857143 9.53787375415282  11.0100446428571 9.22225913621262  Z M 15.2957589285714 9.22225913621262  C 15.5747767857143 8.90664451827242  15.7142857142857 8.52580287929125  15.7142857142857 8.0797342192691  C 15.7142857142857 7.63366555924695  15.5747767857143 7.25282392026578  15.2957589285714 6.93720930232558  C 15.0167410714286 6.62159468438538  14.6800595238095 6.46378737541528  14.2857142857143 6.46378737541528  C 13.891369047619 6.46378737541528  13.5546875 6.62159468438538  13.2756696428571 6.93720930232558  C 12.9966517857143 7.25282392026578  12.8571428571429 7.63366555924695  12.8571428571429 8.0797342192691  C 12.8571428571429 8.52580287929125  12.9966517857143 8.90664451827242  13.2756696428571 9.22225913621262  C 13.5546875 9.53787375415282  13.891369047619 9.69568106312292  14.2857142857143 9.69568106312292  C 14.6800595238095 9.69568106312292  15.0167410714286 9.53787375415282  15.2957589285714 9.22225913621262  Z M 18.6607142857143 4.02093023255814  C 19.5535714285714 5.26234772978959  20 6.61528239202658  20 8.0797342192691  C 20 9.54418604651163  19.5535714285714 10.8971207087486  18.6607142857143 12.1385382059801  C 17.7678571428571 13.3799557032115  16.5550595238095 14.3604651162791  15.0223214285714 15.0800664451827  C 13.4895833333333 15.7996677740864  11.8154761904762 16.1594684385382  10 16.1594684385382  C 9.18154761904762 16.1594684385382  8.39657738095238 16.0837209302326  7.64508928571429 15.9322259136213  C 6.35788690476191 17.388261351052  4.73958333333333 18.3519379844961  2.79017857142857 18.8232558139535  C 2.40327380952381 18.9074197120709  2.08333333333333 18.9621262458472  1.83035714285714 18.9873754152824  C 1.74107142857143 18.9957918050941  1.65922619047619 18.9705426356589  1.58482142857143 18.9116279069767  C 1.51041666666667 18.8527131782946  1.46205357142857 18.7769656699889  1.43973214285714 18.6843853820598  C 1.40997023809524 18.5581395348837  1.484375 18.4024363233666  1.66294642857143 18.2172757475083  C 1.70014880952381 18.1751937984496  1.7875744047619 18.0847176079734  1.92522321428571 17.9458471760797  C 2.06287202380952 17.806976744186  2.1577380952381 17.7080841638981  2.20982142857143 17.6491694352159  C 2.26190476190476 17.5902547065338  2.34933035714286 17.4829457364341  2.47209821428571 17.3272425249169  C 2.59486607142857 17.1715393133998  2.68415178571429 17.0389811738649  2.73995535714286 16.9295681063123  C 2.79575892857143 16.8201550387597  2.87202380952381 16.6644518272425  2.96875 16.4624584717608  C 3.06547619047619 16.2604651162791  3.13988095238095 16.0584717607973  3.19196428571429 15.8564784053156  C 3.24404761904762 15.6544850498339  3.29799107142857 15.4125138427464  3.35379464285714 15.1305647840532  C 3.40959821428571 14.8486157253599  3.45610119047619 14.5435215946844  3.49330357142857 14.2152823920266  C 2.40699404761905 13.4578073089701  1.5531994047619 12.5467331118494  0.931919642857143 11.4820598006645  C 0.310639880952381 10.4173864894795  0 9.28327796234773  0 8.0797342192691  C 0 6.61528239202658  0.446428571428571 5.26234772978959  1.33928571428571 4.02093023255814  C 2.23214285714286 2.77951273532669  3.44494047619048 1.79900332225914  4.97767857142857 1.07940199335548  C 6.51041666666667 0.359800664451828  8.18452380952381 0  10 0  C 11.8154761904762 0  13.4895833333333 0.359800664451828  15.0223214285714 1.07940199335548  C 16.5550595238095 1.79900332225914  17.7678571428571 2.77951273532669  18.6607142857143 4.02093023255814  Z " fill-rule="nonzero" fill="#aaaaaa" stroke="none" transform="matrix(1 0 0 1 1797 1161 )" />
  </g>
</svg>