<?xml version="1.0" encoding="utf-8"?>
<svg version="1.1" xmlns:xlink="http://www.w3.org/1999/xlink" width="20px" height="19px" xmlns="http://www.w3.org/2000/svg">
  <g transform="matrix(1 0 0 1 -1722 -1161 )">
    <path d="M 7.14285714285714 1.58333333333333  L 7.14285714285714 3.16666666666667  L 12.8571428571429 3.16666666666667  L 12.8571428571429 1.58333333333333  L 7.14285714285714 1.58333333333333  Z M 2.5 3.16666666666667  L 3.21428571428571 3.16666666666667  L 3.21428571428571 19  L 2.5 19  C 1.81547619047619 19  1.22767857142857 18.7278645833333  0.736607142857143 18.18359375  C 0.245535714285714 17.6393229166667  0 16.9878472222222  0 16.2291666666667  L 0 5.9375  C 0 5.17881944444444  0.245535714285714 4.52734375  0.736607142857143 3.98307291666667  C 1.22767857142857 3.43880208333333  1.81547619047619 3.16666666666667  2.5 3.16666666666667  Z M 14.2857142857143 3.16666666666667  L 15.7142857142857 3.16666666666667  L 15.7142857142857 19  L 4.28571428571429 19  L 4.28571428571429 3.16666666666667  L 5.71428571428571 3.16666666666667  L 5.71428571428571 1.1875  C 5.71428571428571 0.857638888888888  5.81845238095238 0.577256944444442  6.02678571428571 0.346354166666666  C 6.23511904761905 0.115451388888888  6.48809523809524 0  6.78571428571429 0  L 13.2142857142857 0  C 13.5119047619048 0  13.764880952381 0.115451388888888  13.9732142857143 0.346354166666666  C 14.1815476190476 0.577256944444442  14.2857142857143 0.857638888888888  14.2857142857143 1.1875  L 14.2857142857143 3.16666666666667  Z M 19.2633928571429 3.98307291666667  C 19.7544642857143 4.52734375  20 5.17881944444444  20 5.9375  L 20 16.2291666666667  C 20 16.9878472222222  19.7544642857143 17.6393229166667  19.2633928571429 18.18359375  C 18.7723214285714 18.7278645833333  18.1845238095238 19  17.5 19  L 16.7857142857143 19  L 16.7857142857143 3.16666666666667  L 17.5 3.16666666666667  C 18.1845238095238 3.16666666666667  18.7723214285714 3.43880208333333  19.2633928571429 3.98307291666667  Z " fill-rule="nonzero" fill="#aaaaaa" stroke="none" transform="matrix(1 0 0 1 1722 1161 )" />
  </g>
</svg>