<?xml version="1.0" encoding="utf-8"?>
<svg version="1.1" xmlns:xlink="http://www.w3.org/1999/xlink" width="19px" height="21px" xmlns="http://www.w3.org/2000/svg">
  <g transform="matrix(1 0 0 1 -2475 -619 )">
    <path d="M 6.78764204545454 7.998046875  C 6.86860795454546 8.080078125  6.90909090909091 8.18489583333333  6.90909090909091 8.3125  L 6.90909090909091 16.1875  C 6.90909090909091 16.3151041666667  6.86860795454546 16.419921875  6.78764204545454 16.501953125  C 6.70667613636364 16.583984375  6.6032196969697 16.625  6.47727272727273 16.625  L 5.61363636363636 16.625  C 5.48768939393939 16.625  5.38423295454546 16.583984375  5.30326704545454 16.501953125  C 5.22230113636364 16.419921875  5.18181818181818 16.3151041666667  5.18181818181818 16.1875  L 5.18181818181818 8.3125  C 5.18181818181818 8.18489583333333  5.22230113636364 8.080078125  5.30326704545454 7.998046875  C 5.38423295454546 7.916015625  5.48768939393939 7.875  5.61363636363636 7.875  L 6.47727272727273 7.875  C 6.6032196969697 7.875  6.70667613636364 7.916015625  6.78764204545454 7.998046875  Z M 10.2421875 7.998046875  C 10.3231534090909 8.080078125  10.3636363636364 8.18489583333333  10.3636363636364 8.3125  L 10.3636363636364 16.1875  C 10.3636363636364 16.3151041666667  10.3231534090909 16.419921875  10.2421875 16.501953125  C 10.1612215909091 16.583984375  10.0577651515152 16.625  9.93181818181818 16.625  L 9.06818181818182 16.625  C 8.94223484848485 16.625  8.83877840909091 16.583984375  8.7578125 16.501953125  C 8.67684659090909 16.419921875  8.63636363636364 16.3151041666667  8.63636363636364 16.1875  L 8.63636363636364 8.3125  C 8.63636363636364 8.18489583333333  8.67684659090909 8.080078125  8.7578125 7.998046875  C 8.83877840909091 7.916015625  8.94223484848485 7.875  9.06818181818182 7.875  L 9.93181818181818 7.875  C 10.0577651515152 7.875  10.1612215909091 7.916015625  10.2421875 7.998046875  Z M 13.6967329545455 7.998046875  C 13.7776988636364 8.080078125  13.8181818181818 8.18489583333333  13.8181818181818 8.3125  L 13.8181818181818 16.1875  C 13.8181818181818 16.3151041666667  13.7776988636364 16.419921875  13.6967329545455 16.501953125  C 13.6157670454545 16.583984375  13.5123106060606 16.625  13.3863636363636 16.625  L 12.5227272727273 16.625  C 12.3967803030303 16.625  12.2933238636364 16.583984375  12.2123579545455 16.501953125  C 12.1313920454545 16.419921875  12.0909090909091 16.3151041666667  12.0909090909091 16.1875  L 12.0909090909091 8.3125  C 12.0909090909091 8.18489583333333  12.1313920454545 8.080078125  12.2123579545455 7.998046875  C 12.2933238636364 7.916015625  12.3967803030303 7.875  12.5227272727273 7.875  L 13.3863636363636 7.875  C 13.5123106060606 7.875  13.6157670454545 7.916015625  13.6967329545455 7.998046875  Z M 15.4509943181818 18.7646484375  C 15.5139678030303 18.5960286458333  15.5454545454545 18.4114583333333  15.5454545454545 18.2109375  L 15.5454545454545 5.25  L 3.45454545454545 5.25  L 3.45454545454545 18.2109375  C 3.45454545454545 18.4114583333333  3.4860321969697 18.5960286458333  3.54900568181818 18.7646484375  C 3.61197916666667 18.9332682291667  3.67720170454545 19.0563151041667  3.74467329545455 19.1337890625  C 3.81214488636364 19.2112630208333  3.859375 19.25  3.88636363636364 19  L 15.1136363636364 19  C 15.140625 19.25  15.1878551136364 19.2112630208333  15.2553267045455 19.1337890625  C 15.3227982954545 19.0563151041667  15.3880208333333 18.9332682291667  15.4509943181818 18.7646484375  Z M 7.13849431818182 1.900390625  L 6.47727272727273 3.5  L 12.5227272727273 3.5  L 11.875 1.900390625  C 11.8120265151515 1.818359375  11.7355587121212 1.76822916666667  11.6455965909091 1.75  L 7.36789772727273 1.75  C 7.27793560606061 1.76822916666667  7.2014678030303 1.818359375  7.13849431818182 1.900390625  Z M 18.8785511363636 3.623046875  C 18.9595170454545 3.705078125  19 3.80989583333333  19 3.9375  L 19 4.8125  C 19 4.94010416666667  18.9595170454545 5.044921875  18.8785511363636 5.126953125  C 18.7975852272727 5.208984375  18.6941287878788 5.25  18.5681818181818 5.25  L 17 5.25  L 17 18.2109375  C 17.2727272727273 18.9674479166667  17.0613162878788 19.6214192708333  16.6384943181818 20.1728515625  C 16.2156723484849 20.7242838541667  15.7073863636364 21  15.1136363636364 21  L 3.88636363636364 21  C 3.29261363636364 21  2.78432765151515 20.7333984375  2.36150568181818 20.2001953125  C 1.93868371212121 19.6669921875  1.72727272727273 19.0221354166667  2 18.265625  L 2 5.25  L 0.431818181818182 5.25  C 0.305871212121212 5.25  0.202414772727273 5.208984375  0.121448863636364 5.126953125  C 0.0404829545454545 5.044921875  0 4.94010416666667  0 4.8125  L 0 3.9375  C 0 3.80989583333333  0.0404829545454545 3.705078125  0.121448863636364 3.623046875  C 0.202414772727273 3.541015625  0.305871212121212 3.5  0.431818181818182 3.5  L 4.6015625 3.5  L 5.54616477272727 1.216796875  C 5.68110795454546 0.879557291666665  5.92400568181818 0.592447916666665  6.27485795454546 0.355468750000001  C 6.62571022727273 0.118489583333332  6.98106060606061 0  7.34090909090909 0  L 11.6590909090909 0  C 12.0189393939394 0  12.3742897727273 0.118489583333332  12.7251420454545 0.355468750000001  C 13.0759943181818 0.592447916666665  13.3188920454545 0.879557291666665  13.4538352272727 1.216796875  L 14.3984375 3.5  L 18.5681818181818 3.5  C 18.6941287878788 3.5  18.7975852272727 3.541015625  18.8785511363636 3.623046875  Z " fill-rule="nonzero" fill="#555555" stroke="none" transform="matrix(1 0 0 1 2475 619 )" />
  </g>
</svg>