<?xml version="1.0" encoding="utf-8"?>
<svg version="1.1" xmlns:xlink="http://www.w3.org/1999/xlink" width="13px" height="20px" xmlns="http://www.w3.org/2000/svg">
  <g transform="matrix(1 0 0 1 -3336 -570 )">
    <path d="M 11.8562905872396 19.4218687011719  C 11.6190375403646 19.6515505371094  11.3070095852865 19.7656145019531  10.9950253020833 19.7656145019531  C 10.6830410188802 19.7656145019531  10.3710130638021 19.6515505371094  10.1329738216146 19.4226666503906  L 1.19628185286459 10.8296935791016  C 0.720159696614587 10.3726817626953  0.720159696614587 9.63046799316405  1.19628185286459 9.17265822753905  L 10.1329738470052 0.578887255859371  C 10.6090960032552 0.121077490234399  11.3801684563802 0.121077490234399  11.8562906126302 0.578887255859371  C 12.3324127688802 1.03589907226564  12.3324127688802 1.77811284179685  11.8562906126302 2.23592260742188  L 3.78165009895835 10.0007559570312  L 11.8562905872396 17.7648333496094  C 12.3324127434896 18.2226431152343  12.3324127434896 18.9640589355469  11.8562905872396 19.4218687011719  Z " fill-rule="nonzero" fill="#cccccc" stroke="none" transform="matrix(1 0 0 1 3336 570 )" />
  </g>
</svg>