<?xml version="1.0" encoding="utf-8"?>
<svg version="1.1" xmlns:xlink="http://www.w3.org/1999/xlink" width="17px" height="18px" xmlns="http://www.w3.org/2000/svg">
  <g transform="matrix(1 0 0 1 -1841 -1126 )">
    <path d="M 13.9557130991932 9.19642857142861  C 15.140751067869 7.79761904761904  15.7332700522069 6.47321428571428  15.7332700522069 5.22321428571428  C 15.7332700522069 4.62053571428572  15.6655085726151 4.08854166666669  15.5299856134314 3.62723214285714  C 15.3944626542478 3.16592261904762  15.2211193343617 2.79947916666666  15.0099556537731 2.52790178571428  C 14.7987919731846 2.2563244047619  14.5419286900807 2.03497023809524  14.2393658044613 1.86383928571428  C 13.936802918842 1.69270833333334  13.640543426673 1.57738095238096  13.3505873279544 1.51785714285714  C 13.0606312292359 1.45833333333334  12.7517649501661 1.42857142857144  12.4239884907451 1.42857142857144  C 12.0962120313242 1.42857142857144  11.7432219981016 1.5234375  11.3650183910774 1.71316964285714  C 10.9868147840531 1.90290178571428  10.6385522959184 2.14099702380952  10.320230926673 2.42745535714286  C 10.0019095574276 2.7139136904762  9.7292877906977 2.98177083333334  9.50236562648323 3.23102678571428  C 9.27544346226861 3.48028273809524  9.08634165875655 3.70907738095238  8.93506021594686 3.91741071428572  C 8.82159913383957 4.0811011904762  8.66716599430473 4.16294642857144  8.4717607973422 4.16294642857144  C 8.27635560037966 4.16294642857144  8.12192246084483 4.0811011904762  8.00846137873754 3.91741071428572  C 7.85717993592785 3.70907738095238  7.66807813241579 3.48028273809524  7.44115596820122 3.23102678571428  C 7.2142338039867 2.98177083333334  6.9416120372568 2.7139136904762  6.62329066801141 2.42745535714286  C 6.30496929876603 2.14099702380952  5.95670681063125 1.90290178571428  5.57850320360704 1.71316964285714  C 5.20029959658282 1.5234375  4.84730956336021 1.42857142857144  4.51953310393926 1.42857142857144  C 4.19175664451826 1.42857142857144  3.88289036544849 1.45833333333334  3.59293426672995 1.51785714285714  C 3.30297816801141 1.57738095238096  3.00671867584245 1.69270833333334  2.70415579022306 1.86383928571428  C 2.40159290460366 2.03497023809524  2.14472962149975 2.2563244047619  1.93356594091127 2.52790178571428  C 1.72240226032275 2.79947916666666  1.54905894043663 3.16592261904762  1.41353598125298 3.62723214285714  C 1.27801302206927 4.08854166666669  1.21025154247747 4.62053571428572  1.21025154247747 5.22321428571428  C 1.21025154247747 6.47321428571428  1.79961883009017 7.7938988095238  2.9783534053156 9.18526785714289  L 8.4717607973422 15.4352678571429  L 13.9557130991932 9.19642857142861  Z M 15.7427251423825 1.38392857142858  C 16.5432561105838 2.30654761904762  16.9435215946844 3.58630952380952  16.9435215946844 5.22321428571428  C 16.9435215946844 6.86755952380952  16.2217830446132 8.54166666666669  14.7783059444708 10.2455357142857  L 8.88778476506883 16.9419642857143  C 8.77432368296154 17.0758928571429  8.6356490270527 17.1428571428572  8.4717607973422 17.1428571428572  C 8.3078725676317 17.1428571428572  8.16919791172286 17.0758928571429  8.05573682961557 16.9419642857143  L 2.15576056003796 10.2232142857143  C 2.09272662553389 10.1636904761905  2.00605496559091 10.0669642857143  1.89574558020881 9.93303571428572  C 1.78543619482681 9.79910714285717  1.61051702657806 9.55543154761904  1.37098807546273 9.20200892857144  C 1.13145912434746 8.8485863095238  0.917143747033694 8.48586309523813  0.728041943521586 8.11383928571428  C 0.538940140009478 7.74181547619048  0.370324365211195 7.29166666666669  0.222194619126736 6.76339285714289  C 0.0740648730422777 6.23511904761904  0 5.7217261904762  0 5.22321428571428  C 0 3.58630952380952  0.400265484100635 2.30654761904762  1.2007964523019 1.38392857142858  C 2.00132742050308 0.461309523809518  3.10757297104888 0  4.51953310393926 0  C 4.91034349786428 0  5.30903313360227 0.0799851190476204  5.71560201115333 0.239955357142861  C 6.12217088870435 0.399925595238102  6.50037449572856 0.615699404761898  6.85021283222593 0.887276785714278  C 7.20005116872325 1.15885416666666  7.50103820598005 1.41369047619048  7.75317394399618 1.65178571428572  C 8.00530968201231 1.88988095238096  8.24483863312768 2.14285714285714  8.4717607973422 2.41071428571428  C 8.69868296155672 2.14285714285714  8.93821191267209 1.88988095238096  9.19034765068822 1.65178571428572  C 9.44248338870435 1.41369047619048  9.74347042596114 1.15885416666666  10.0933087624585 0.887276785714278  C 10.4431470989558 0.615699404761898  10.8213507059801 0.399925595238102  11.2279195835311 0.239955357142861  C 11.6344884610821 0.0799851190476204  12.0331780968201 0  12.4239884907451 0  C 13.8359486236355 0  14.9421941741813 0.461309523809518  15.7427251423825 1.38392857142858  Z " fill-rule="nonzero" fill="#ffffff" stroke="none" transform="matrix(1 0 0 1 1841 1126 )" />
  </g>
</svg>