<?xml version="1.0" encoding="utf-8"?>
<svg version="1.1" xmlns:xlink="http://www.w3.org/1999/xlink" width="13px" height="13px" xmlns="http://www.w3.org/2000/svg">
  <g transform="matrix(1 0 0 1 -4174 -572 )">
    <path d="M 12.1149553571429 13  L 13 12.1004464285714  L 8.74017857142857 7.78258928571428  C 9.32053571428571 6.97299107142857  9.66584821428571 5.97767857142857  9.66584821428571 4.90401785714286  C 9.66584821428571 2.20245535714286  7.49821428571429 0.00290178571428555  4.834375 0.00290178571428555  C 2.16763392857143 0  0 2.19955357142857  0 4.90111607142857  C 0 7.60267857142857  2.16763392857143 9.80223214285714  4.83147321428571 9.80223214285714  C 5.98638392857143 9.80223214285714  7.04553571428572 9.39017857142857  7.87834821428571 8.70245535714286  L 12.1149553571429 13  Z M 8.54866071428571 4.90111607142857  C 8.54866071428571 6.97879464285714  6.88303571428571 8.67053571428572  4.83147321428571 8.67053571428572  C 2.7828125 8.67053571428572  1.11428571428571 6.97879464285714  1.11428571428571 4.90111607142857  C 1.11428571428571 2.8234375  2.7828125 1.13169642857143  4.83147321428571 1.13169642857143  C 6.88013392857143 1.13169642857143  8.54866071428571 2.8234375  8.54866071428571 4.90111607142857  Z " fill-rule="nonzero" fill="#000000" stroke="none" fill-opacity="0.67843137254902" transform="matrix(1 0 0 1 4174 572 )" />
  </g>
</svg>