<?xml version="1.0" encoding="utf-8"?>
<svg version="1.1" xmlns:xlink="http://www.w3.org/1999/xlink" width="45px" height="14px" xmlns="http://www.w3.org/2000/svg">
  <g transform="matrix(1 0 0 1 -4174 -711 )">
    <path d="M 4175 718  A 6 6 0 0 1 4181 712 L 4212 712  A 6 6 0 0 1 4218 718 A 6 6 0 0 1 4212 724 L 4181 724  A 6 6 0 0 1 4175 718 Z " fill-rule="nonzero" fill="#ffffff" stroke="none" fill-opacity="0" />
    <path d="M 4174.5 718  A 6.5 6.5 0 0 1 4181 711.5 L 4212 711.5  A 6.5 6.5 0 0 1 4218.5 718 A 6.5 6.5 0 0 1 4212 724.5 L 4181 724.5  A 6.5 6.5 0 0 1 4174.5 718 Z " stroke-width="1" stroke="#ffffff" fill="none" stroke-opacity="0.67843137254902" />
  </g>
</svg>