<?xml version="1.0" encoding="utf-8"?>
<svg version="1.1" xmlns:xlink="http://www.w3.org/1999/xlink" width="20px" height="20px" xmlns="http://www.w3.org/2000/svg">
  <g transform="matrix(1 0 0 1 -1578 -2492 )">
    <path d="M 12.0793269230769 9.44462719298246  C 12.2315705128205 9.28490497076023  12.3076923076923 9.09576023391812  12.3076923076923 8.87719298245614  C 12.3076923076923 8.65862573099417  12.2315705128205 8.46948099415206  12.0793269230769 8.30975877192983  C 11.9270833333333 8.1500365497076  11.7467948717949 8.07017543859651  11.5384615384615 8.07017543859651  L 8.46153846153848 8.07017543859651  C 8.25320512820514 8.07017543859651  8.07291666666669 8.1500365497076  7.92067307692307 8.30975877192983  C 7.76842948717947 8.46948099415206  7.69230769230768 8.65862573099417  7.69230769230768 8.87719298245614  C 7.69230769230768 9.09576023391812  7.76842948717947 9.28490497076023  7.92067307692307 9.44462719298246  C 8.07291666666669 9.60434941520469  8.25320512820514 9.68421052631578  8.46153846153848 9.68421052631578  L 11.5384615384615 9.68421052631578  C 11.7467948717949 9.68421052631578  11.9270833333333 9.60434941520469  12.0793269230769 9.44462719298246  Z M 19.0024038461538 5.88870614035087  C 19.1546474358974 6.0484283625731  19.2307692307692 6.23757309941521  19 6.45614035087719  L 19 18.5614035087719  C 19.2307692307692 18.7799707602339  19.1546474358974 18.969115497076  19.0024038461538 19.1288377192982  C 18.8501602564102 19.2885599415205  18.6698717948718 19.3684210526316  18.4615384615385 19  L 1.53846153846152 19  C 1.3301282051282 19.3684210526316  1.14983974358975 19.2885599415205  0.99759615384616 19.1288377192982  C 0.845352564102555 18.969115497076  0.769230769230759 18.7799707602339  1 18.5614035087719  L 1 6.45614035087719  C 0.769230769230759 6.23757309941521  0.845352564102555 6.0484283625731  0.99759615384616 5.88870614035087  C 1.14983974358975 5.72898391812864  1.3301282051282 5.64912280701755  1.53846153846152 6  L 18.4615384615385 6  C 18.6698717948718 5.64912280701755  18.8501602564102 5.72898391812864  19.0024038461538 5.88870614035087  Z M 19.7716346153846 0.239583333333317  C 19.9238782051282 0.399305555555549  20 0.588450292397654  20 0.807017543859633  L 20 4.03508771929823  C 20 4.2536549707602  19.9238782051282 4.44279970760231  19.7716346153846 4.60252192982454  C 19.6193910256411 4.76224415204677  19.4391025641026 4.84210526315792  19.2307692307692 5  L 0.769230769230759 5  C 0.560897435897445 4.84210526315792  0.380608974358964 4.76224415204677  0.228365384615401 4.60252192982454  C 0.0761217948717956 4.44279970760231  0 4.2536549707602  0 4.03508771929823  L 0 0.807017543859633  C 0 0.588450292397654  0.0761217948717956 0.399305555555549  0.228365384615401 0.239583333333317  C 0.380608974358964 0.0798611111110858  0.560897435897445 0  0.769230769230759 0  L 19.2307692307692 0  C 19.4391025641026 0  19.6193910256411 0.0798611111110858  19.7716346153846 0.239583333333317  Z " fill-rule="nonzero" fill="#aaaaaa" stroke="none" transform="matrix(1 0 0 1 1578 2492 )" />
  </g>
</svg>