<?xml version="1.0" encoding="utf-8"?>
<svg version="1.1" xmlns:xlink="http://www.w3.org/1999/xlink" width="18px" height="21px" xmlns="http://www.w3.org/2000/svg">
  <g transform="matrix(1 0 0 1 -1889 -2132 )">
    <path d="M 6.42857142857143 11.3203125  C 6.42857142857143 11.591015625  6.21160714285714 11.8125  5.94642857142857 11.8125  L 4.33928571428571 11.8125  C 4.07410714285714 11.8125  3.85714285714286 11.591015625  3.85714285714286 11.3203125  L 3.85714285714286 9.6796875  C 3.85714285714286 9.408984375  4.07410714285714 9.1875  4.33928571428571 9.1875  L 5.94642857142857 9.1875  C 6.21160714285714 9.1875  6.42857142857143 9.408984375  6.42857142857143 9.6796875  L 6.42857142857143 11.3203125  Z M 9.80357142857143 11.8125  C 10.06875 11.8125  10.2857142857143 11.591015625  10.2857142857143 11.3203125  L 10.2857142857143 9.6796875  C 10.2857142857143 9.408984375  10.06875 9.1875  9.80357142857143 9.1875  L 8.19642857142857 9.1875  C 7.93125 9.1875  7.71428571428571 9.408984375  7.71428571428571 9.6796875  L 7.71428571428571 11.3203125  C 7.71428571428571 11.591015625  7.93125 11.8125  8.19642857142857 11.8125  L 9.80357142857143 11.8125  Z M 13.6607142857143 11.8125  C 13.9258928571429 11.8125  14.1428571428571 11.591015625  14.1428571428571 11.3203125  L 14.1428571428571 9.6796875  C 14.1428571428571 9.408984375  13.9258928571429 9.1875  13.6607142857143 9.1875  L 12.0535714285714 9.1875  C 11.7883928571429 9.1875  11.5714285714286 9.408984375  11.5714285714286 9.6796875  L 11.5714285714286 11.3203125  C 11.5714285714286 11.591015625  11.7883928571429 11.8125  12.0535714285714 11.8125  L 13.6607142857143 11.8125  Z M 9.80357142857143 15.75  C 10.06875 15.75  10.2857142857143 15.528515625  10.2857142857143 15.2578125  L 10.2857142857143 13.6171875  C 10.2857142857143 13.346484375  10.06875 13.125  9.80357142857143 13.125  L 8.19642857142857 13.125  C 7.93125 13.125  7.71428571428571 13.346484375  7.71428571428571 13.6171875  L 7.71428571428571 15.2578125  C 7.71428571428571 15.528515625  7.93125 15.75  8.19642857142857 15.75  L 9.80357142857143 15.75  Z M 5.94642857142857 15.75  C 6.21160714285714 15.75  6.42857142857143 15.528515625  6.42857142857143 15.2578125  L 6.42857142857143 13.6171875  C 6.42857142857143 13.346484375  6.21160714285714 13.125  5.94642857142857 13.125  L 4.33928571428571 13.125  C 4.07410714285714 13.125  3.85714285714286 13.346484375  3.85714285714286 13.6171875  L 3.85714285714286 15.2578125  C 3.85714285714286 15.528515625  4.07410714285714 15.75  4.33928571428571 15.75  L 5.94642857142857 15.75  Z M 13.6607142857143 15.75  C 13.9258928571429 15.75  14.1428571428571 15.528515625  14.1428571428571 15.2578125  L 14.1428571428571 13.6171875  C 14.1428571428571 13.346484375  13.9258928571429 13.125  13.6607142857143 13.125  L 12.0535714285714 13.125  C 11.7883928571429 13.125  11.5714285714286 13.346484375  11.5714285714286 13.6171875  L 11.5714285714286 15.2578125  C 11.5714285714286 15.528515625  11.7883928571429 15.75  12.0535714285714 15.75  L 13.6607142857143 15.75  Z M 16.0714285714286 2.625  C 17.1361607142857 2.625  18 3.5068359375  18 4.59375  L 18 19.03125  C 18 20.1181640625  17.1361607142857 21  16.0714285714286 21  L 1.92857142857143 21  C 0.863839285714286 21  0 20.1181640625  0 19.03125  L 0 4.59375  C 0 3.5068359375  0.863839285714286 2.625  1.92857142857143 2.625  L 3.85714285714286 2.625  L 3.85714285714286 0.4921875  C 3.85714285714286 0.221484375  4.07410714285714 0  4.33928571428571 0  L 5.94642857142857 0  C 6.21160714285714 0  6.42857142857143 0.221484375  6.42857142857143 0.4921875  L 6.42857142857143 2.625  L 11.5714285714286 2.625  L 11.5714285714286 0.4921875  C 11.5714285714286 0.221484375  11.7883928571429 0  12.0535714285714 0  L 13.6607142857143 0  C 13.9258928571429 0  14.1428571428571 0.221484375  14.1428571428571 0.4921875  L 14.1428571428571 2.625  L 16.0714285714286 2.625  Z M 15.8303571428571 19  C 15.9629464285714 19.03125  16.0714285714286 18.9205078125  16 18.78515625  L 16 6.5625  L 2 6.5625  L 2 18.78515625  C 1.92857142857143 18.9205078125  2.03705357142857 19.03125  2.16964285714286 19  L 15.8303571428571 19  Z " fill-rule="nonzero" fill="#555555" stroke="none" transform="matrix(1 0 0 1 1889 2132 )" />
  </g>
</svg>