<?xml version="1.0" encoding="utf-8"?>
<svg version="1.1" xmlns:xlink="http://www.w3.org/1999/xlink" width="6px" height="3px" xmlns="http://www.w3.org/2000/svg">
  <g transform="matrix(1 0 0 1 -1895 -2158 )">
    <path d="M 5.93987975951904 0.309278350515464  C 5.97995991983968 0.343642611683848  6 0.383161512027491  6 0.427835051546392  C 6 0.472508591065292  5.97995991983968 0.512027491408934  5.93987975951904 0.54639175257732  L 3.13827655310621 2.94845360824742  C 3.09819639278557 2.98281786941581  3.05210420841683 3  3 3  C 2.94789579158317 3  2.90180360721443 2.98281786941581  2.86172344689379 2.94845360824742  L 0.0601202404809619 0.54639175257732  C 0.0200400801603207 0.512027491408934  0 0.472508591065292  0 0.427835051546392  C 0 0.383161512027491  0.0200400801603207 0.343642611683848  0.0601202404809619 0.309278350515464  L 0.360721442885772 0.0515463917525775  C 0.400801603206413 0.017182130584192  0.44689378757515 0  0.498997995991984 0  C 0.551102204408818 0  0.597194388777555 0.017182130584192  0.637274549098196 0.0515463917525775  L 3 2.07731958762887  L 5.3627254509018 0.0515463917525775  C 5.40280561122244 0.017182130584192  5.44889779559118 0  5.50100200400802 0  C 5.55310621242485 0  5.59919839679359 0.017182130584192  5.63927855711423 0.0515463917525775  L 5.93987975951904 0.309278350515464  Z " fill-rule="nonzero" fill="#555555" stroke="none" transform="matrix(1 0 0 1 1895 2158 )" />
  </g>
</svg>