<?xml version="1.0" encoding="utf-8"?>
<svg version="1.1" xmlns:xlink="http://www.w3.org/1999/xlink" width="61px" height="61px" xmlns="http://www.w3.org/2000/svg">
  <g transform="matrix(1 0 0 1 -1143 -1235 )">
    <path d="M 30.3888856186067 0.0326831344971197  C 13.6698617324647 -0.164695519441693  0.294642623551226 13.4544316023389  0.294642623551226 30.2316171871413  C 0.294642623551226 47.0088027719438  13.8665561311252 60.4305512397856  30.3888856186067 60.4305512397856  C 47.1079095047485 60.4305512397856  60.483128613662 46.8114241180049  60.483128613662 30.2316171871413  C 60.483128613662 13.4544316023389  46.911215106088 0.0326831344971197  30.3888856186067 0.0326831344971197  Z M 30.3888856186067 1.41433371206892  C 46.3211319101065 1.21695505813034  59.1062678230385 14.2439462180943  59.1062678230385 30.2316171871413  C 59.1062678230385 46.2192881561883  46.124437511446 59.0489006622137  30.3888856186067 59.0489006622137  C 14.4566393271067 59.0489006622137  1.67150341417471 46.0219095022495  1.67150341417471 30.2316171871413  C 1.67150341417471 14.2439462180943  14.6533337257672 1.41433371206892  30.3888856186067 1.41433371206892  Z " fill-rule="nonzero" fill="#afb9c0" stroke="none" transform="matrix(1 0 0 1 1143 1235 )" />
  </g>
</svg>