<?xml version="1.0" encoding="utf-8"?>
<svg version="1.1" xmlns:xlink="http://www.w3.org/1999/xlink" width="430px" height="867px" xmlns="http://www.w3.org/2000/svg">
  <g transform="matrix(1 0 0 1 -2094 -1778 )">
    <path d="M 54.4581281960484 0.988501332489093  C 26.6102705717952 0.988501332489093  4.00911076080706 23.5893665808195  4 51.4368612617979  L 4 92.8045164038311  L 1.78935399365645 92.8045164038311  C 1.38576185417446 92.8045164038311  0.982169714692589 93.2081032832656  0.982169714692589 93.8134836024173  L 0.982169714692589 124.28429299972  C 0.982169714692589 124.889673318872  1.38576185417452 125.293260198306  1.78935399365645 125.293260198306  L 4 125.293260198306  L 4 157.983797432498  C 2.19294613313838 158.387384311933  0.780373644951624 159.799938389953  0.780373644951624 161.817872787126  L 0.780373644951624 209.441124560393  C 0.780373644951624 211.257265517848  2.19294613313838 212.871613035586  4 213.275199915021  L 4 226.189980056924  C 2.19294613313838 226.593566936358  0.780373644951624 228.006121014379  0.780373644951624 230.024055411551  L 0.780373644951624 277.647307184819  C 0.780373644951624 279.463448142274  2.19294613313838 281.077795660012  4 281.481382539446  L 4 816.435791229837  C 4.00911076080706 844.283285910816  26.6102705717952 866.884151159146  54.4581281960484 866.884151159146  L 374.304898735479 866.884151159146  C 402.152756359732 866.884151159146  424.75391617072 844.283285910816  424 816.435791229837  L 424 213.275199915021  C 425.157508310202 213.275199915021  425.359304379943 213.476993354738  425.762896519425 213.476993354738  C 427.780857216834 213.476993354738  429.597021844503 211.660852397283  429.597021844503 209.64291800011  L 429.597021844503 162.019666226843  C 429.597021844503 160.00173182967  427.780857216834 158.185590872215  425.762896519425 158.185590872215  C 425.359304379943 158.185590872215  424.955712240461 158.185590872215  424 158.387384311933  L 424 51.4368612617979  C 424.75391617072 23.5893665808195  402.152756359732 0.988501332489093  374.304898735479 0.988501332489093  L 54.4581281960484 0.988501332489093  Z " fill-rule="nonzero" fill="#ffffff" stroke="none" transform="matrix(1 0 0 1 2094 1778 )" />
  </g>
</svg>