<?xml version="1.0" encoding="utf-8"?>
<svg version="1.1" xmlns:xlink="http://www.w3.org/1999/xlink" width="55px" height="55px" xmlns="http://www.w3.org/2000/svg">
  <g transform="matrix(1 0 0 1 -2281 -2569 )">
    <path d="M 27.7923371989492 0.663705745971242  C 12.9466517148751 0.663705745971242  0.708992059084267 12.7007480303556  0.708992059084267 27.7470508858362  C 0.708992059084267 42.5927363699103  12.7460343434687 54.8303960257011  27.7923371989492 54.8303960257011  C 42.6380226830233 54.8303960257011  54.8756823388141 42.7933537413168  54.8756823388141 27.7470508858362  C 54.8756823388141 12.901365401762  42.8386400544297 0.663705745971242  27.7923371989492 0.663705745971242  Z M 27.7923371989492 2.06802734581606  C 41.8355531973976 2.06802734581606  53.4713607389692 13.5032175159813  53.4713607389692 27.7470508858362  C 53.4713607389692 41.7902668842846  42.036170568804 53.4260744258564  27.7923371989492 53.4260744258564  C 13.7491212005007 53.4260744258564  2.11331365892909 41.9908842556911  2.11331365892909 27.7470508858362  C 2.11331365892909 13.7038348873876  13.5485038290943 2.06802734581606  27.7923371989492 2.06802734581606  Z " fill-rule="nonzero" fill="#afb9c0" stroke="none" transform="matrix(1 0 0 1 2281 2569 )" />
  </g>
</svg>