<?xml version="1.0" encoding="utf-8"?>
<svg version="1.1" xmlns:xlink="http://www.w3.org/1999/xlink" width="59px" height="7px" xmlns="http://www.w3.org/2000/svg">
  <g transform="matrix(1 0 0 1 -2279 -1820 )">
    <path d="M 4.06276194961146 0.0633298574904444  C 2.08420976898725 0.0633298574904444  0.501368024487874 1.52559378982737  0.501368024487874 3.35342370524852  C 0.501368024487874 5.18125362066968  2.08420976898725 6.6435175530066  4.06276194961146 6.6435175530066  L 54.7136977735919 6.6435175530066  C 56.6922499542161 6.6435175530066  58.2750916987154 5.18125362066968  58.2750916987154 3.35342370524852  C 58.2750916987154 1.52559378982737  56.6922499542161 0.0633298574904444  54.7136977735919 0.0633298574904444  L 4.06276194961146 0.0633298574904444  Z M 4.06276194961146 1.34281079828525  L 54.7136977735919 1.34281079828525  C 55.9008290819664 1.34281079828525  56.8901051722785 2.25672575599582  56.8901051722785 3.35342370524852  C 56.8901051722785 4.45012165450122  55.9008290819664 5.36403661221179  54.7136977735919 5.36403661221179  L 4.06276194961146 5.36403661221179  C 2.87563064123697 5.36403661221179  1.88635455092486 4.45012165450122  1.88635455092486 3.35342370524852  C 1.88635455092486 2.25672575599582  2.87563064123697 1.34281079828525  4.06276194961146 1.34281079828525  Z " fill-rule="nonzero" fill="#afb9c0" stroke="none" transform="matrix(1 0 0 1 2279 1820 )" />
  </g>
</svg>