<?xml version="1.0" encoding="utf-8"?>
<svg version="1.1" xmlns:xlink="http://www.w3.org/1999/xlink" width="16px" height="16px" xmlns="http://www.w3.org/2000/svg">
  <g transform="matrix(1 0 0 1 -1108 -485 )">
    <path d="M 7.9346496974234 0.176866928691744  C 3.84400149728617 0.392164202383178  0.399245118223206 3.6216233077547  0.399245118223206 7.71227150789194  C 0.399245118223206 11.8029197080292  3.84400149728614 15.2476760870922  7.9346496974234 15.2476760870922  C 12.0252978975606 15.2476760870922  15.4700542766236 11.8029197080292  15.4700542766236 7.71227150789194  C 15.4700542766236 3.6216233077547  12.0252978975606 0.176866928691744  7.9346496974234 0.176866928691744  Z M 7.71935242373198 1.6839478445318  C 11.1641088027949 1.89924511822321  13.7476760870921 4.48281240252044  13.7476760870921 7.71227150789194  C 13.7476760870921 10.9417306132635  11.1641088027949 13.7405951712521  7.71935242373198 13.7405951712521  C 4.48989331836046 13.7405951712521  1.69102876037184 11.1570278869549  1.69102876037184 7.71227150789194  C 1.69102876037184 4.48281240252044  4.27459604466907 1.6839478445318  7.71935242373198 1.6839478445318  Z " fill-rule="nonzero" fill="#afb9c0" stroke="none" transform="matrix(1 0 0 1 1108 485 )" />
  </g>
</svg>