<?xml version="1.0" encoding="utf-8"?>
<svg version="1.1" xmlns:xlink="http://www.w3.org/1999/xlink" width="380px" height="673px" xmlns="http://www.w3.org/2000/svg">
  <defs>
    <mask fill="white" id="clip71">
      <path d="M 0.570277044399575 2.78652453767899  L 0.570277044399575 670.249674177555  L 0.570277044399575 672.065625914785  L 2.38868828838154 672.065625914785  L 377.587541629998 672.065625914785  L 379.40595287398 672.065625914785  L 379.40595287398 670.249674177555  L 379.40595287398 2.78652453767899  L 379.40595287398 0.768800385200507  L 377.587541629998 0.768800385200507  L 2.38868828838154 0.768800385200507  L 0.570277044399575 0.768800385200507  L 0.570277044399575 2.78652453767899  Z M 3 3  L 377 3  L 377 670  L 3 670  L 3 3  Z " fill-rule="evenodd" />
    </mask>
  </defs>
  <g transform="matrix(1 0 0 1 -2711 -2966 )">
    <path d="M 0.570277044399575 2.78652453767899  L 0.570277044399575 670.249674177555  L 0.570277044399575 672.065625914785  L 2.38868828838154 672.065625914785  L 377.587541629998 672.065625914785  L 379.40595287398 672.065625914785  L 379.40595287398 670.249674177555  L 379.40595287398 2.78652453767899  L 379.40595287398 0.768800385200507  L 377.587541629998 0.768800385200507  L 2.38868828838154 0.768800385200507  L 0.570277044399575 0.768800385200507  L 0.570277044399575 2.78652453767899  Z M 3 3  L 377 3  L 377 670  L 3 670  L 3 3  Z " fill-rule="nonzero" fill="#ffffff" stroke="none" transform="matrix(1 0 0 1 2711 2966 )" />
    <path d="M 0.570277044399575 2.78652453767899  L 0.570277044399575 670.249674177555  L 0.570277044399575 672.065625914785  L 2.38868828838154 672.065625914785  L 377.587541629998 672.065625914785  L 379.40595287398 672.065625914785  L 379.40595287398 670.249674177555  L 379.40595287398 2.78652453767899  L 379.40595287398 0.768800385200507  L 377.587541629998 0.768800385200507  L 2.38868828838154 0.768800385200507  L 0.570277044399575 0.768800385200507  L 0.570277044399575 2.78652453767899  Z " stroke-width="2" stroke="#7f7f7f" fill="none" transform="matrix(1 0 0 1 2711 2966 )" mask="url(#clip71)" />
    <path d="M 3 3  L 377 3  L 377 670  L 3 670  L 3 3  Z " stroke-width="2" stroke="#7f7f7f" fill="none" transform="matrix(1 0 0 1 2711 2966 )" mask="url(#clip71)" />
  </g>
</svg>