<?xml version="1.0" encoding="utf-8"?>
<svg version="1.1" xmlns:xlink="http://www.w3.org/1999/xlink" width="430px" height="867px" xmlns="http://www.w3.org/2000/svg">
  <g transform="matrix(1 0 0 1 -959 -447 )">
    <path d="M 54.4581281960484 1  C 26.6102705717952 0.988501332489097  4.00911076080706 23.5893665808195  4 51.4368612617979  L 4 92.8045164038312  L 1.78935399365643 92.8045164038312  C 1.38576185417448 92.8045164038312  0.982169714692574 93.2081032832656  1 93.8134836024173  L 1 107.999999999981  L 1 124.28429299972  C 0.982169714692574 124.889673318872  1.3857618541745 125.293260198306  1.78935399365643 125.293260198306  L 4 125.293260198306  L 4 157.983797432498  C 2.19294613313838 158.387384311933  0.780373644951609 159.799938389953  1 161.817872787126  L 1 209.441124560393  C 0.780373644951609 211.257265517848  2.19294613313838 212.871613035586  4 213.275199915021  L 4 226.189980056924  C 2.19294613313838 226.593566936358  0.780373644951609 228.006121014379  1 230.024055411551  L 1 277.647307184819  C 0.780373644951609 279.463448142274  2.19294613313838 281.077795660012  4 281.481382539446  L 4 816.435791229837  C 4.00911076080706 844.283285910816  26.6102705717952 866.884151159146  54.4581281960484 866  L 374.304898735479 866  C 402.152756359732 866.884151159146  424.75391617072 844.283285910816  424 816.435791229837  L 424 213.275199915021  C 425.157508310202 213.275199915021  425.359304379943 213.476993354738  425.762896519425 213.476993354738  C 427.780857216834 213.476993354738  429.597021844503 211.660852397283  429 209.64291800011  L 429 162.019666226843  C 429.597021844503 160.00173182967  427.780857216834 158.185590872215  425.762896519425 158.185590872215  C 425.359304379943 158.185590872215  424.955712240461 158.185590872215  424 158.387384311933  L 424 51.4368612617979  C 424.75391617072 23.5893665808195  402.152756359732 0.988501332489097  374.304898735479 1  L 54.4581281960484 1  Z M 54.4581281960484 7  L 374.103102665738 7  C 398.722223174135 6.63871764457168  418.901830148232 26.616268176578  419 51.4368612617979  L 419 816.23399779012  C 418.901830148232 840.852797435622  398.924019243876 861.032141407346  374.103102665738 861  L 54.4581281960484 861  C 29.8390076876506 861.032141407346  9.65940071355408 841.05459087534  10 816.23399779012  L 10 51.4368612617979  C 9.65940071355408 26.8180616162952  29.6372116179097 6.63871764457168  54.4581281960484 7  Z " fill-rule="nonzero" fill="#afb9c0" stroke="none" transform="matrix(1 0 0 1 959 447 )" />
  </g>
</svg>