<?xml version="1.0" encoding="utf-8"?>
<svg version="1.1" xmlns:xlink="http://www.w3.org/1999/xlink" width="8px" height="8px" xmlns="http://www.w3.org/2000/svg">
  <defs>
    <mask fill="white" id="clip56">
      <path d="M 0.799817518248233 4.17953887150966  C 0.799817518248233 6.19015177847294  2.41916058394156 7.83519870235198  4.39835766423357 7.83519870235198  C 6.37755474452558 7.83519870235198  7.99689781021902 6.19015177847294  7.99689781021902 4.17953887150966  C 7.99689781021902 2.1689259645464  6.37755474452558 0.52387904066736  4.39835766423357 0.52387904066736  C 2.41916058394162 0.52387904066736  0.799817518248233 2.1689259645464  0.799817518248233 4.17953887150966  Z M 2.05930656934305 4.17953887150966  C 2.05930656934305 2.90005793071487  3.13886861313864 1.80335998146217  4.39835766423357 1.80335998146217  C 5.65784671532845 1.80335998146217  6.73740875912415 2.90005793071487  6.73740875912415 4.17953887150966  C 6.73740875912415 5.45901981230449  5.6578467153285 6.55571776155717  4.39835766423357 6.55571776155717  C 3.1388686131387 6.55571776155717  2.05930656934305 5.45901981230448  2.05930656934305 4.17953887150966  Z " fill-rule="evenodd" />
    </mask>
  </defs>
  <g transform="matrix(1 0 0 1 -2305 -2895 )">
    <path d="M 0.799817518248233 4.17953887150966  C 0.799817518248233 6.19015177847294  2.41916058394156 7.83519870235198  4.39835766423357 7.83519870235198  C 6.37755474452558 7.83519870235198  7.99689781021902 6.19015177847294  7.99689781021902 4.17953887150966  C 7.99689781021902 2.1689259645464  6.37755474452558 0.52387904066736  4.39835766423357 0.52387904066736  C 2.41916058394162 0.52387904066736  0.799817518248233 2.1689259645464  0.799817518248233 4.17953887150966  Z M 2.05930656934305 4.17953887150966  C 2.05930656934305 2.90005793071487  3.13886861313864 1.80335998146217  4.39835766423357 1.80335998146217  C 5.65784671532845 1.80335998146217  6.73740875912415 2.90005793071487  6.73740875912415 4.17953887150966  C 6.73740875912415 5.45901981230449  5.6578467153285 6.55571776155717  4.39835766423357 6.55571776155717  C 3.1388686131387 6.55571776155717  2.05930656934305 5.45901981230448  2.05930656934305 4.17953887150966  Z " fill-rule="nonzero" fill="#ffffff" stroke="none" transform="matrix(1 0 0 1 2305 2895 )" />
    <path d="M 0.799817518248233 4.17953887150966  C 0.799817518248233 6.19015177847294  2.41916058394156 7.83519870235198  4.39835766423357 7.83519870235198  C 6.37755474452558 7.83519870235198  7.99689781021902 6.19015177847294  7.99689781021902 4.17953887150966  C 7.99689781021902 2.1689259645464  6.37755474452558 0.52387904066736  4.39835766423357 0.52387904066736  C 2.41916058394162 0.52387904066736  0.799817518248233 2.1689259645464  0.799817518248233 4.17953887150966  Z " stroke-width="4" stroke="#aaaaaa" fill="none" transform="matrix(1 0 0 1 2305 2895 )" mask="url(#clip56)" />
    <path d="M 2.05930656934305 4.17953887150966  C 2.05930656934305 2.90005793071487  3.13886861313864 1.80335998146217  4.39835766423357 1.80335998146217  C 5.65784671532845 1.80335998146217  6.73740875912415 2.90005793071487  6.73740875912415 4.17953887150966  C 6.73740875912415 5.45901981230449  5.6578467153285 6.55571776155717  4.39835766423357 6.55571776155717  C 3.1388686131387 6.55571776155717  2.05930656934305 5.45901981230448  2.05930656934305 4.17953887150966  Z " stroke-width="4" stroke="#aaaaaa" fill="none" transform="matrix(1 0 0 1 2305 2895 )" mask="url(#clip56)" />
  </g>
</svg>